{
	"asset":{
		"generator":"Khronos glTF Blender I/O v4.4.55",
		"version":"2.0"
	},
	"scene":0,
	"scenes":[
		{
			"name":"Scene",
			"nodes":[
				0
			]
		}
	],
	"nodes":[
		{
			"mesh":0,
			"name":"Bathroom_ToiletPaper"
		}
	],
	"materials":[
		{
			"doubleSided":true,
			"name":"White",
			"pbrMetallicRoughness":{
				"baseColorFactor":[
					0.44797539710998535,
					0.443290650844574,
					0.4294084906578064,
					1
				],
				"metallicFactor":0,
				"roughnessFactor":0.5
			}
		},
		{
			"doubleSided":true,
			"name":"Brown",
			"pbrMetallicRoughness":{
				"baseColorFactor":[
					0.11443537473678589,
					0.08865559101104736,
					0.05612849444150925,
					1
				],
				"metallicFactor":0,
				"roughnessFactor":0.5
			}
		},
		{
			"doubleSided":true,
			"name":"LightMetal",
			"pbrMetallicRoughness":{
				"baseColorFactor":[
					0.1733521670103073,
					0.1733521670103073,
					0.1733521670103073,
					1
				],
				"metallicFactor":0,
				"roughnessFactor":0.5
			}
		}
	],
	"meshes":[
		{
			"name":"Cylinder.009",
			"primitives":[
				{
					"attributes":{
						"POSITION":0,
						"NORMAL":1
					},
					"indices":2,
					"material":0
				},
				{
					"attributes":{
						"POSITION":3,
						"NORMAL":4
					},
					"indices":5,
					"material":1
				},
				{
					"attributes":{
						"POSITION":6,
						"NORMAL":7
					},
					"indices":8,
					"material":2
				}
			]
		}
	],
	"accessors":[
		{
			"bufferView":0,
			"componentType":5126,
			"count":68,
			"max":[
				0.1042761355638504,
				0.12816716730594635,
				0.08743827790021896
			],
			"min":[
				-0.1042761281132698,
				-0.09826941043138504,
				-0.08743827790021896
			],
			"type":"VEC3"
		},
		{
			"bufferView":1,
			"componentType":5126,
			"count":68,
			"type":"VEC3"
		},
		{
			"bufferView":2,
			"componentType":5123,
			"count":186,
			"type":"SCALAR"
		},
		{
			"bufferView":3,
			"componentType":5126,
			"count":54,
			"max":[
				0.1042761355638504,
				0.0890982449054718,
				0.048369381576776505
			],
			"min":[
				-0.1042761281132698,
				-0.007640484720468521,
				-0.04836934432387352
			],
			"type":"VEC3"
		},
		{
			"bufferView":4,
			"componentType":5126,
			"count":54,
			"type":"VEC3"
		},
		{
			"bufferView":5,
			"componentType":5123,
			"count":162,
			"type":"SCALAR"
		},
		{
			"bufferView":6,
			"componentType":5126,
			"count":210,
			"max":[
				0.13416509330272675,
				0.2461376041173935,
				0.01465422473847866
			],
			"min":[
				-0.16577602922916412,
				0.054138243198394775,
				-0.06283359974622726
			],
			"type":"VEC3"
		},
		{
			"bufferView":7,
			"componentType":5126,
			"count":210,
			"type":"VEC3"
		},
		{
			"bufferView":8,
			"componentType":5123,
			"count":480,
			"type":"SCALAR"
		}
	],
	"bufferViews":[
		{
			"buffer":0,
			"byteLength":816,
			"byteOffset":0,
			"target":34962
		},
		{
			"buffer":0,
			"byteLength":816,
			"byteOffset":816,
			"target":34962
		},
		{
			"buffer":0,
			"byteLength":372,
			"byteOffset":1632,
			"target":34963
		},
		{
			"buffer":0,
			"byteLength":648,
			"byteOffset":2004,
			"target":34962
		},
		{
			"buffer":0,
			"byteLength":648,
			"byteOffset":2652,
			"target":34962
		},
		{
			"buffer":0,
			"byteLength":324,
			"byteOffset":3300,
			"target":34963
		},
		{
			"buffer":0,
			"byteLength":2520,
			"byteOffset":3624,
			"target":34962
		},
		{
			"buffer":0,
			"byteLength":2520,
			"byteOffset":6144,
			"target":34962
		},
		{
			"buffer":0,
			"byteLength":960,
			"byteOffset":8664,
			"target":34963
		}
	],
	"buffers":[
		{
			"byteLength":9624,
			"uri":"Bathroom_ToiletPaper-e491eda8c30c2dbcb3cc02e8804afc68.bin"
		}
	]
}
