{
	"asset":{
		"generator":"Khronos glTF Blender I/O v4.4.55",
		"version":"2.0"
	},
	"scene":0,
	"scenes":[
		{
			"name":"Scene",
			"nodes":[
				0
			]
		}
	],
	"nodes":[
		{
			"mesh":0,
			"name":"Bathroom_Sink"
		}
	],
	"materials":[
		{
			"doubleSided":true,
			"name":"White",
			"pbrMetallicRoughness":{
				"baseColorFactor":[
					0.44797539710998535,
					0.443290650844574,
					0.4294084906578064,
					1
				],
				"metallicFactor":0,
				"roughnessFactor":0.5
			}
		},
		{
			"doubleSided":true,
			"name":"Grey",
			"pbrMetallicRoughness":{
				"baseColorFactor":[
					0.2597948908805847,
					0.25713229179382324,
					0.24924027919769287,
					1
				],
				"metallicFactor":0,
				"roughnessFactor":0.5
			}
		}
	],
	"meshes":[
		{
			"name":"Cube.016",
			"primitives":[
				{
					"attributes":{
						"POSITION":0,
						"NORMAL":1
					},
					"indices":2,
					"material":0
				},
				{
					"attributes":{
						"POSITION":3,
						"NORMAL":4
					},
					"indices":5,
					"material":1
				}
			]
		}
	],
	"accessors":[
		{
			"bufferView":0,
			"componentType":5126,
			"count":76,
			"max":[
				0.694749653339386,
				1.3788459300994873,
				0.511631429195404
			],
			"min":[
				-0.694749653339386,
				0.8961100578308105,
				-0.245254784822464
			],
			"type":"VEC3"
		},
		{
			"bufferView":1,
			"componentType":5126,
			"count":76,
			"type":"VEC3"
		},
		{
			"bufferView":2,
			"componentType":5123,
			"count":288,
			"type":"SCALAR"
		},
		{
			"bufferView":3,
			"componentType":5126,
			"count":252,
			"max":[
				0.08160382509231567,
				1.5973403453826904,
				0.208661288022995
			],
			"min":[
				-0.08160381019115448,
				0.1505100131034851,
				-0.3036322593688965
			],
			"type":"VEC3"
		},
		{
			"bufferView":4,
			"componentType":5126,
			"count":252,
			"type":"VEC3"
		},
		{
			"bufferView":5,
			"componentType":5123,
			"count":762,
			"type":"SCALAR"
		}
	],
	"bufferViews":[
		{
			"buffer":0,
			"byteLength":912,
			"byteOffset":0,
			"target":34962
		},
		{
			"buffer":0,
			"byteLength":912,
			"byteOffset":912,
			"target":34962
		},
		{
			"buffer":0,
			"byteLength":576,
			"byteOffset":1824,
			"target":34963
		},
		{
			"buffer":0,
			"byteLength":3024,
			"byteOffset":2400,
			"target":34962
		},
		{
			"buffer":0,
			"byteLength":3024,
			"byteOffset":5424,
			"target":34962
		},
		{
			"buffer":0,
			"byteLength":1524,
			"byteOffset":8448,
			"target":34963
		}
	],
	"buffers":[
		{
			"byteLength":9972,
			"uri":"Bathroom_Sink-98997820b558bf5a2130e95eca16c11a.bin"
		}
	]
}
