{
	"asset":{
		"generator":"Khronos glTF Blender I/O v4.4.55",
		"version":"2.0"
	},
	"scene":0,
	"scenes":[
		{
			"name":"Scene",
			"nodes":[
				0
			]
		}
	],
	"nodes":[
		{
			"mesh":0,
			"name":"Bathroom_Bathtub"
		}
	],
	"materials":[
		{
			"doubleSided":true,
			"name":"White",
			"pbrMetallicRoughness":{
				"baseColorFactor":[
					0.44797539710998535,
					0.443290650844574,
					0.4294084906578064,
					1
				],
				"metallicFactor":0,
				"roughnessFactor":0.5
			}
		},
		{
			"doubleSided":true,
			"name":"Grey",
			"pbrMetallicRoughness":{
				"baseColorFactor":[
					0.2597948908805847,
					0.25713229179382324,
					0.24924027919769287,
					1
				],
				"metallicFactor":0,
				"roughnessFactor":0.5
			}
		}
	],
	"meshes":[
		{
			"name":"Cube.015",
			"primitives":[
				{
					"attributes":{
						"POSITION":0,
						"NORMAL":1
					},
					"indices":2,
					"material":0
				},
				{
					"attributes":{
						"POSITION":3,
						"NORMAL":4
					},
					"indices":5,
					"material":1
				}
			]
		}
	],
	"accessors":[
		{
			"bufferView":0,
			"componentType":5126,
			"count":100,
			"max":[
				0.8037549257278442,
				1.0766358375549316,
				1.7757847309112549
			],
			"min":[
				-0.8037549257278442,
				0.1366981416940689,
				-2.1239514350891113
			],
			"type":"VEC3"
		},
		{
			"bufferView":1,
			"componentType":5126,
			"count":100,
			"type":"VEC3"
		},
		{
			"bufferView":2,
			"componentType":5123,
			"count":294,
			"type":"SCALAR"
		},
		{
			"bufferView":3,
			"componentType":5126,
			"count":178,
			"max":[
				0.7326576709747314,
				1.252702236175537,
				1.5898855924606323
			],
			"min":[
				-0.7326576709747314,
				-0.007505327463150024,
				-2.1058857440948486
			],
			"type":"VEC3"
		},
		{
			"bufferView":4,
			"componentType":5126,
			"count":178,
			"type":"VEC3"
		},
		{
			"bufferView":5,
			"componentType":5123,
			"count":450,
			"type":"SCALAR"
		}
	],
	"bufferViews":[
		{
			"buffer":0,
			"byteLength":1200,
			"byteOffset":0,
			"target":34962
		},
		{
			"buffer":0,
			"byteLength":1200,
			"byteOffset":1200,
			"target":34962
		},
		{
			"buffer":0,
			"byteLength":588,
			"byteOffset":2400,
			"target":34963
		},
		{
			"buffer":0,
			"byteLength":2136,
			"byteOffset":2988,
			"target":34962
		},
		{
			"buffer":0,
			"byteLength":2136,
			"byteOffset":5124,
			"target":34962
		},
		{
			"buffer":0,
			"byteLength":900,
			"byteOffset":7260,
			"target":34963
		}
	],
	"buffers":[
		{
			"byteLength":8160,
			"uri":"Bathroom_Bathtub-7ca871e9e483e53702b3bc39823bfee5.bin"
		}
	]
}
