{
	"asset":{
		"generator":"Khronos glTF Blender I/O v4.4.55",
		"version":"2.0"
	},
	"scene":0,
	"scenes":[
		{
			"name":"Scene",
			"nodes":[
				0
			]
		}
	],
	"nodes":[
		{
			"mesh":0,
			"name":"Bathroom_Shower1"
		}
	],
	"materials":[
		{
			"doubleSided":true,
			"name":"Grey",
			"pbrMetallicRoughness":{
				"baseColorFactor":[
					0.2597948908805847,
					0.25713229179382324,
					0.24924027919769287,
					1
				],
				"metallicFactor":0,
				"roughnessFactor":0.5
			}
		},
		{
			"doubleSided":true,
			"name":"LightMetal",
			"pbrMetallicRoughness":{
				"baseColorFactor":[
					0.1733521670103073,
					0.1733521670103073,
					0.1733521670103073,
					1
				],
				"metallicFactor":0,
				"roughnessFactor":0.5
			}
		},
		{
			"doubleSided":true,
			"name":"Couch_Blue",
			"pbrMetallicRoughness":{
				"baseColorFactor":[
					0.03935335949063301,
					0.07543732225894928,
					0.11926928907632828,
					1
				],
				"metallicFactor":0,
				"roughnessFactor":0.5
			}
		},
		{
			"doubleSided":true,
			"name":"Metal",
			"pbrMetallicRoughness":{
				"baseColorFactor":[
					0.14730893075466156,
					0.11338981986045837,
					0.09997832775115967,
					1
				],
				"metallicFactor":0,
				"roughnessFactor":0.5
			}
		}
	],
	"meshes":[
		{
			"name":"Cube.033",
			"primitives":[
				{
					"attributes":{
						"POSITION":0,
						"NORMAL":1
					},
					"indices":2,
					"material":0
				},
				{
					"attributes":{
						"POSITION":3,
						"NORMAL":4
					},
					"indices":5,
					"material":1
				},
				{
					"attributes":{
						"POSITION":6,
						"NORMAL":7
					},
					"indices":8,
					"material":2
				},
				{
					"attributes":{
						"POSITION":9,
						"NORMAL":10
					},
					"indices":11,
					"material":3
				}
			]
		}
	],
	"accessors":[
		{
			"bufferView":0,
			"componentType":5126,
			"count":24,
			"max":[
				0.7531540989875793,
				-0.08282577991485596,
				0.7531536817550659
			],
			"min":[
				-0.7531538605690002,
				-0.09501137584447861,
				-0.7531543374061584
			],
			"type":"VEC3"
		},
		{
			"bufferView":1,
			"componentType":5126,
			"count":24,
			"type":"VEC3"
		},
		{
			"bufferView":2,
			"componentType":5123,
			"count":36,
			"type":"SCALAR"
		},
		{
			"bufferView":3,
			"componentType":5126,
			"count":912,
			"max":[
				1.0716626644134521,
				3.4471375942230225,
				0.8680883646011353
			],
			"min":[
				-0.8144086599349976,
				-0.0922745019197464,
				-1.024747610092163
			],
			"type":"VEC3"
		},
		{
			"bufferView":4,
			"componentType":5126,
			"count":912,
			"type":"VEC3"
		},
		{
			"bufferView":5,
			"componentType":5123,
			"count":1416,
			"type":"SCALAR"
		},
		{
			"bufferView":6,
			"componentType":5126,
			"count":56,
			"max":[
				-0.7662891745567322,
				3.4214608669281006,
				0.1483031064271927
			],
			"min":[
				-0.8241257071495056,
				0.003935845103114843,
				-0.8931589126586914
			],
			"type":"VEC3"
		},
		{
			"bufferView":7,
			"componentType":5126,
			"count":56,
			"type":"VEC3"
		},
		{
			"bufferView":8,
			"componentType":5123,
			"count":84,
			"type":"SCALAR"
		},
		{
			"bufferView":9,
			"componentType":5126,
			"count":252,
			"max":[
				-0.7453343868255615,
				3.4530980587005615,
				0.07882756739854813
			],
			"min":[
				-0.8241859078407288,
				3.38481068611145,
				-0.8270903825759888
			],
			"type":"VEC3"
		},
		{
			"bufferView":10,
			"componentType":5126,
			"count":252,
			"type":"VEC3"
		},
		{
			"bufferView":11,
			"componentType":5123,
			"count":420,
			"type":"SCALAR"
		}
	],
	"bufferViews":[
		{
			"buffer":0,
			"byteLength":288,
			"byteOffset":0,
			"target":34962
		},
		{
			"buffer":0,
			"byteLength":288,
			"byteOffset":288,
			"target":34962
		},
		{
			"buffer":0,
			"byteLength":72,
			"byteOffset":576,
			"target":34963
		},
		{
			"buffer":0,
			"byteLength":10944,
			"byteOffset":648,
			"target":34962
		},
		{
			"buffer":0,
			"byteLength":10944,
			"byteOffset":11592,
			"target":34962
		},
		{
			"buffer":0,
			"byteLength":2832,
			"byteOffset":22536,
			"target":34963
		},
		{
			"buffer":0,
			"byteLength":672,
			"byteOffset":25368,
			"target":34962
		},
		{
			"buffer":0,
			"byteLength":672,
			"byteOffset":26040,
			"target":34962
		},
		{
			"buffer":0,
			"byteLength":168,
			"byteOffset":26712,
			"target":34963
		},
		{
			"buffer":0,
			"byteLength":3024,
			"byteOffset":26880,
			"target":34962
		},
		{
			"buffer":0,
			"byteLength":3024,
			"byteOffset":29904,
			"target":34962
		},
		{
			"buffer":0,
			"byteLength":840,
			"byteOffset":32928,
			"target":34963
		}
	],
	"buffers":[
		{
			"byteLength":33768,
			"uri":"Bathroom_Shower1-19a3ffe81d538b9dc4da0a3761cecd95.bin"
		}
	]
}
