{
	"asset":{
		"generator":"Khronos glTF Blender I/O v4.4.55",
		"version":"2.0"
	},
	"scene":0,
	"scenes":[
		{
			"name":"Scene",
			"nodes":[
				0
			]
		}
	],
	"nodes":[
		{
			"mesh":0,
			"name":"Bed"
		}
	],
	"materials":[
		{
			"doubleSided":true,
			"name":"Wood"
		},
		{
			"doubleSided":true,
			"name":"White"
		},
		{
			"doubleSided":true,
			"name":"Sheets"
		},
		{
			"doubleSided":true,
			"name":"DarkBrown"
		}
	],
	"meshes":[
		{
			"name":"Cube.011",
			"primitives":[
				{
					"attributes":{
						"POSITION":0,
						"NORMAL":1
					},
					"indices":2,
					"material":0
				},
				{
					"attributes":{
						"POSITION":3,
						"NORMAL":4
					},
					"indices":5,
					"material":1
				},
				{
					"attributes":{
						"POSITION":6,
						"NORMAL":7
					},
					"indices":8,
					"material":2
				},
				{
					"attributes":{
						"POSITION":9,
						"NORMAL":10
					},
					"indices":11,
					"material":3
				}
			]
		}
	],
	"accessors":[
		{
			"bufferView":0,
			"componentType":5126,
			"count":280,
			"max":[
				0.671781599521637,
				0.4858904480934143,
				0.3512449264526367
			],
			"min":[
				-0.7084801197052002,
				0.040051430463790894,
				-0.35124486684799194
			],
			"type":"VEC3"
		},
		{
			"bufferView":1,
			"componentType":5126,
			"count":280,
			"type":"VEC3"
		},
		{
			"bufferView":2,
			"componentType":5123,
			"count":450,
			"type":"SCALAR"
		},
		{
			"bufferView":3,
			"componentType":5126,
			"count":388,
			"max":[
				-0.3562486171722412,
				0.2799112796783447,
				0.3619026839733124
			],
			"min":[
				-0.6636593341827393,
				0.04015161097049713,
				-0.3619025647640228
			],
			"type":"VEC3"
		},
		{
			"bufferView":4,
			"componentType":5126,
			"count":388,
			"type":"VEC3"
		},
		{
			"bufferView":5,
			"componentType":5123,
			"count":648,
			"type":"SCALAR"
		},
		{
			"bufferView":6,
			"componentType":5126,
			"count":20,
			"max":[
				0.6269608736038208,
				0.21160754561424255,
				0.35093557834625244
			],
			"min":[
				-0.35948920249938965,
				0.04015161097049713,
				-0.35093557834625244
			],
			"type":"VEC3"
		},
		{
			"bufferView":7,
			"componentType":5126,
			"count":20,
			"type":"VEC3"
		},
		{
			"bufferView":8,
			"componentType":5123,
			"count":30,
			"type":"SCALAR"
		},
		{
			"bufferView":9,
			"componentType":5126,
			"count":304,
			"max":[
				0.6967834830284119,
				0.45971834659576416,
				0.4449019134044647
			],
			"min":[
				-0.7334821224212646,
				-0.003903605043888092,
				-0.44490188360214233
			],
			"type":"VEC3"
		},
		{
			"bufferView":10,
			"componentType":5126,
			"count":304,
			"type":"VEC3"
		},
		{
			"bufferView":11,
			"componentType":5123,
			"count":456,
			"type":"SCALAR"
		}
	],
	"bufferViews":[
		{
			"buffer":0,
			"byteLength":3360,
			"byteOffset":0,
			"target":34962
		},
		{
			"buffer":0,
			"byteLength":3360,
			"byteOffset":3360,
			"target":34962
		},
		{
			"buffer":0,
			"byteLength":900,
			"byteOffset":6720,
			"target":34963
		},
		{
			"buffer":0,
			"byteLength":4656,
			"byteOffset":7620,
			"target":34962
		},
		{
			"buffer":0,
			"byteLength":4656,
			"byteOffset":12276,
			"target":34962
		},
		{
			"buffer":0,
			"byteLength":1296,
			"byteOffset":16932,
			"target":34963
		},
		{
			"buffer":0,
			"byteLength":240,
			"byteOffset":18228,
			"target":34962
		},
		{
			"buffer":0,
			"byteLength":240,
			"byteOffset":18468,
			"target":34962
		},
		{
			"buffer":0,
			"byteLength":60,
			"byteOffset":18708,
			"target":34963
		},
		{
			"buffer":0,
			"byteLength":3648,
			"byteOffset":18768,
			"target":34962
		},
		{
			"buffer":0,
			"byteLength":3648,
			"byteOffset":22416,
			"target":34962
		},
		{
			"buffer":0,
			"byteLength":912,
			"byteOffset":26064,
			"target":34963
		}
	],
	"buffers":[
		{
			"byteLength":26976,
			"uri":"Bed-f1123df1eb7d621376ca92c73c8d80a6.bin"
		}
	]
}
