{
	"asset":{
		"generator":"Khronos glTF Blender I/O v4.4.55",
		"version":"2.0"
	},
	"scene":0,
	"scenes":[
		{
			"name":"Scene",
			"nodes":[
				0
			]
		}
	],
	"nodes":[
		{
			"mesh":0,
			"name":"Bed_Single"
		}
	],
	"materials":[
		{
			"doubleSided":true,
			"name":"White",
			"pbrMetallicRoughness":{
				"baseColorFactor":[
					0.44797539710998535,
					0.443290650844574,
					0.4294084906578064,
					1
				],
				"metallicFactor":0,
				"roughnessFactor":0.5
			}
		},
		{
			"doubleSided":true,
			"name":"Red",
			"pbrMetallicRoughness":{
				"baseColorFactor":[
					0.15743045508861542,
					0.05174337327480316,
					0.033754151314496994,
					1
				],
				"metallicFactor":0,
				"roughnessFactor":0.5
			}
		},
		{
			"doubleSided":true,
			"name":"Wood",
			"pbrMetallicRoughness":{
				"baseColorFactor":[
					0.11443537473678589,
					0.08865559101104736,
					0.05612849444150925,
					1
				],
				"metallicFactor":0,
				"roughnessFactor":0.5
			}
		},
		{
			"doubleSided":true,
			"name":"Grey",
			"pbrMetallicRoughness":{
				"baseColorFactor":[
					0.2597948908805847,
					0.25713229179382324,
					0.24924027919769287,
					1
				],
				"metallicFactor":0,
				"roughnessFactor":0.5
			}
		},
		{
			"doubleSided":true,
			"name":"DarkRed",
			"pbrMetallicRoughness":{
				"baseColorFactor":[
					0.10247109830379486,
					0.034876663237810135,
					0.02316785603761673,
					1
				],
				"metallicFactor":0,
				"roughnessFactor":0.5
			}
		}
	],
	"meshes":[
		{
			"name":"Cube.044",
			"primitives":[
				{
					"attributes":{
						"POSITION":0,
						"NORMAL":1
					},
					"indices":2,
					"material":0
				},
				{
					"attributes":{
						"POSITION":3,
						"NORMAL":4
					},
					"indices":5,
					"material":1
				},
				{
					"attributes":{
						"POSITION":6,
						"NORMAL":7
					},
					"indices":8,
					"material":2
				},
				{
					"attributes":{
						"POSITION":9,
						"NORMAL":10
					},
					"indices":11,
					"material":3
				},
				{
					"attributes":{
						"POSITION":12,
						"NORMAL":13
					},
					"indices":14,
					"material":4
				}
			]
		}
	],
	"accessors":[
		{
			"bufferView":0,
			"componentType":5126,
			"count":123,
			"max":[
				0.9510806202888489,
				1.0866429805755615,
				-1.1475168466567993
			],
			"min":[
				-0.9082964062690735,
				0.44999369978904724,
				-1.9381217956542969
			],
			"type":"VEC3"
		},
		{
			"bufferView":1,
			"componentType":5126,
			"count":123,
			"type":"VEC3"
		},
		{
			"bufferView":2,
			"componentType":5123,
			"count":432,
			"type":"SCALAR"
		},
		{
			"bufferView":3,
			"componentType":5126,
			"count":42,
			"max":[
				0.9754100441932678,
				0.8146384954452515,
				1.9074773788452148
			],
			"min":[
				-0.9326258301734924,
				0.42839759588241577,
				-0.7923004627227783
			],
			"type":"VEC3"
		},
		{
			"bufferView":4,
			"componentType":5126,
			"count":42,
			"type":"VEC3"
		},
		{
			"bufferView":5,
			"componentType":5123,
			"count":180,
			"type":"SCALAR"
		},
		{
			"bufferView":6,
			"componentType":5126,
			"count":276,
			"max":[
				0.9466152787208557,
				1.3545749187469482,
				1.96999990940094
			],
			"min":[
				-0.9449999928474426,
				0,
				-1.96999990940094
			],
			"type":"VEC3"
		},
		{
			"bufferView":7,
			"componentType":5126,
			"count":276,
			"type":"VEC3"
		},
		{
			"bufferView":8,
			"componentType":5123,
			"count":684,
			"type":"SCALAR"
		},
		{
			"bufferView":9,
			"componentType":5126,
			"count":51,
			"max":[
				0.9824050068855286,
				0.8783806562423706,
				-0.653432309627533
			],
			"min":[
				-0.9396207928657532,
				0.42218855023384094,
				-1.1475169658660889
			],
			"type":"VEC3"
		},
		{
			"bufferView":10,
			"componentType":5126,
			"count":51,
			"type":"VEC3"
		},
		{
			"bufferView":11,
			"componentType":5123,
			"count":180,
			"type":"SCALAR"
		},
		{
			"bufferView":12,
			"componentType":5126,
			"count":54,
			"max":[
				1.0125758647918701,
				0.8093955516815186,
				1.341703176498413
			],
			"min":[
				-0.9665692448616028,
				0.06315835565328598,
				0.2146330028772354
			],
			"type":"VEC3"
		},
		{
			"bufferView":13,
			"componentType":5126,
			"count":54,
			"type":"VEC3"
		},
		{
			"bufferView":14,
			"componentType":5123,
			"count":132,
			"type":"SCALAR"
		}
	],
	"bufferViews":[
		{
			"buffer":0,
			"byteLength":1476,
			"byteOffset":0,
			"target":34962
		},
		{
			"buffer":0,
			"byteLength":1476,
			"byteOffset":1476,
			"target":34962
		},
		{
			"buffer":0,
			"byteLength":864,
			"byteOffset":2952,
			"target":34963
		},
		{
			"buffer":0,
			"byteLength":504,
			"byteOffset":3816,
			"target":34962
		},
		{
			"buffer":0,
			"byteLength":504,
			"byteOffset":4320,
			"target":34962
		},
		{
			"buffer":0,
			"byteLength":360,
			"byteOffset":4824,
			"target":34963
		},
		{
			"buffer":0,
			"byteLength":3312,
			"byteOffset":5184,
			"target":34962
		},
		{
			"buffer":0,
			"byteLength":3312,
			"byteOffset":8496,
			"target":34962
		},
		{
			"buffer":0,
			"byteLength":1368,
			"byteOffset":11808,
			"target":34963
		},
		{
			"buffer":0,
			"byteLength":612,
			"byteOffset":13176,
			"target":34962
		},
		{
			"buffer":0,
			"byteLength":612,
			"byteOffset":13788,
			"target":34962
		},
		{
			"buffer":0,
			"byteLength":360,
			"byteOffset":14400,
			"target":34963
		},
		{
			"buffer":0,
			"byteLength":648,
			"byteOffset":14760,
			"target":34962
		},
		{
			"buffer":0,
			"byteLength":648,
			"byteOffset":15408,
			"target":34962
		},
		{
			"buffer":0,
			"byteLength":264,
			"byteOffset":16056,
			"target":34963
		}
	],
	"buffers":[
		{
			"byteLength":16320,
			"uri":"Bed_Single-28597770b9a91f024f701340a23d6748.bin"
		}
	]
}
