{
	"asset":{
		"generator":"Khronos glTF Blender I/O v4.4.55",
		"version":"2.0"
	},
	"scene":0,
	"scenes":[
		{
			"name":"Scene",
			"nodes":[
				0
			]
		}
	],
	"nodes":[
		{
			"mesh":0,
			"name":"Bed_King"
		}
	],
	"materials":[
		{
			"doubleSided":true,
			"name":"White",
			"pbrMetallicRoughness":{
				"baseColorFactor":[
					0.44797539710998535,
					0.443290650844574,
					0.4294084906578064,
					1
				],
				"metallicFactor":0,
				"roughnessFactor":0.5
			}
		},
		{
			"doubleSided":true,
			"name":"Red",
			"pbrMetallicRoughness":{
				"baseColorFactor":[
					0.15743045508861542,
					0.05174337327480316,
					0.033754151314496994,
					1
				],
				"metallicFactor":0,
				"roughnessFactor":0.5
			}
		},
		{
			"doubleSided":true,
			"name":"Wood",
			"pbrMetallicRoughness":{
				"baseColorFactor":[
					0.11443537473678589,
					0.08865559101104736,
					0.05612849444150925,
					1
				],
				"metallicFactor":0,
				"roughnessFactor":0.5
			}
		},
		{
			"doubleSided":true,
			"name":"Grey",
			"pbrMetallicRoughness":{
				"baseColorFactor":[
					0.2597948908805847,
					0.25713229179382324,
					0.24924027919769287,
					1
				],
				"metallicFactor":0,
				"roughnessFactor":0.5
			}
		},
		{
			"doubleSided":true,
			"name":"DarkRed",
			"pbrMetallicRoughness":{
				"baseColorFactor":[
					0.10247109830379486,
					0.034876663237810135,
					0.02316785603761673,
					1
				],
				"metallicFactor":0,
				"roughnessFactor":0.5
			}
		}
	],
	"meshes":[
		{
			"name":"Cube.042",
			"primitives":[
				{
					"attributes":{
						"POSITION":0,
						"NORMAL":1
					},
					"indices":2,
					"material":0
				},
				{
					"attributes":{
						"POSITION":3,
						"NORMAL":4
					},
					"indices":5,
					"material":1
				},
				{
					"attributes":{
						"POSITION":6,
						"NORMAL":7
					},
					"indices":8,
					"material":2
				},
				{
					"attributes":{
						"POSITION":9,
						"NORMAL":10
					},
					"indices":11,
					"material":3
				},
				{
					"attributes":{
						"POSITION":12,
						"NORMAL":13
					},
					"indices":14,
					"material":4
				}
			]
		}
	],
	"accessors":[
		{
			"bufferView":0,
			"componentType":5126,
			"count":227,
			"max":[
				1.479813575744629,
				1.0069776773452759,
				-1.2109776735305786
			],
			"min":[
				-1.479813575744629,
				0.4034877121448517,
				-1.9484783411026
			],
			"type":"VEC3"
		},
		{
			"bufferView":1,
			"componentType":5126,
			"count":227,
			"type":"VEC3"
		},
		{
			"bufferView":2,
			"componentType":5123,
			"count":774,
			"type":"SCALAR"
		},
		{
			"bufferView":3,
			"componentType":5126,
			"count":50,
			"max":[
				1.5016286373138428,
				0.7304471135139465,
				1.948477864265442
			],
			"min":[
				-1.5016286373138428,
				0.3841235041618347,
				-0.921075701713562
			],
			"type":"VEC3"
		},
		{
			"bufferView":4,
			"componentType":5126,
			"count":50,
			"type":"VEC3"
		},
		{
			"bufferView":5,
			"componentType":5123,
			"count":222,
			"type":"SCALAR"
		},
		{
			"bufferView":6,
			"componentType":5126,
			"count":252,
			"max":[
				1.511528730392456,
				1.2145822048187256,
				1.97642183303833
			],
			"min":[
				-1.511528730392456,
				-1.862645149230957e-09,
				-1.9764223098754883
			],
			"type":"VEC3"
		},
		{
			"bufferView":7,
			"componentType":5126,
			"count":252,
			"type":"VEC3"
		},
		{
			"bufferView":8,
			"componentType":5123,
			"count":684,
			"type":"SCALAR"
		},
		{
			"bufferView":9,
			"componentType":5126,
			"count":60,
			"max":[
				1.507900595664978,
				0.7876017093658447,
				-0.7965592741966248
			],
			"min":[
				-1.507900595664978,
				0.37855616211891174,
				-1.2395812273025513
			],
			"type":"VEC3"
		},
		{
			"bufferView":10,
			"componentType":5126,
			"count":60,
			"type":"VEC3"
		},
		{
			"bufferView":11,
			"componentType":5123,
			"count":216,
			"type":"SCALAR"
		},
		{
			"bufferView":12,
			"componentType":5126,
			"count":54,
			"max":[
				1.5320640802383423,
				0.7257460355758667,
				0.9923827648162842
			],
			"min":[
				-1.5320640802383423,
				0.09430505335330963,
				-0.018206886947155
			],
			"type":"VEC3"
		},
		{
			"bufferView":13,
			"componentType":5126,
			"count":54,
			"type":"VEC3"
		},
		{
			"bufferView":14,
			"componentType":5123,
			"count":132,
			"type":"SCALAR"
		}
	],
	"bufferViews":[
		{
			"buffer":0,
			"byteLength":2724,
			"byteOffset":0,
			"target":34962
		},
		{
			"buffer":0,
			"byteLength":2724,
			"byteOffset":2724,
			"target":34962
		},
		{
			"buffer":0,
			"byteLength":1548,
			"byteOffset":5448,
			"target":34963
		},
		{
			"buffer":0,
			"byteLength":600,
			"byteOffset":6996,
			"target":34962
		},
		{
			"buffer":0,
			"byteLength":600,
			"byteOffset":7596,
			"target":34962
		},
		{
			"buffer":0,
			"byteLength":444,
			"byteOffset":8196,
			"target":34963
		},
		{
			"buffer":0,
			"byteLength":3024,
			"byteOffset":8640,
			"target":34962
		},
		{
			"buffer":0,
			"byteLength":3024,
			"byteOffset":11664,
			"target":34962
		},
		{
			"buffer":0,
			"byteLength":1368,
			"byteOffset":14688,
			"target":34963
		},
		{
			"buffer":0,
			"byteLength":720,
			"byteOffset":16056,
			"target":34962
		},
		{
			"buffer":0,
			"byteLength":720,
			"byteOffset":16776,
			"target":34962
		},
		{
			"buffer":0,
			"byteLength":432,
			"byteOffset":17496,
			"target":34963
		},
		{
			"buffer":0,
			"byteLength":648,
			"byteOffset":17928,
			"target":34962
		},
		{
			"buffer":0,
			"byteLength":648,
			"byteOffset":18576,
			"target":34962
		},
		{
			"buffer":0,
			"byteLength":264,
			"byteOffset":19224,
			"target":34963
		}
	],
	"buffers":[
		{
			"byteLength":19488,
			"uri":"Bed_King-08f879361ac2e2ca7e84412588c03bf3.bin"
		}
	]
}
