{
	"asset":{
		"generator":"Khronos glTF Blender I/O v4.4.55",
		"version":"2.0"
	},
	"scene":0,
	"scenes":[
		{
			"name":"Scene",
			"nodes":[
				0
			]
		}
	],
	"nodes":[
		{
			"mesh":0,
			"name":"Bed_Bunk"
		}
	],
	"materials":[
		{
			"doubleSided":true,
			"name":"Wood",
			"pbrMetallicRoughness":{
				"baseColorFactor":[
					0.11443537473678589,
					0.08865559101104736,
					0.05612849444150925,
					1
				],
				"metallicFactor":0,
				"roughnessFactor":0.5
			}
		},
		{
			"doubleSided":true,
			"name":"White",
			"pbrMetallicRoughness":{
				"baseColorFactor":[
					0.44797539710998535,
					0.443290650844574,
					0.4294084906578064,
					1
				],
				"metallicFactor":0,
				"roughnessFactor":0.5
			}
		},
		{
			"doubleSided":true,
			"name":"Red",
			"pbrMetallicRoughness":{
				"baseColorFactor":[
					0.15743045508861542,
					0.05174337327480316,
					0.033754151314496994,
					1
				],
				"metallicFactor":0,
				"roughnessFactor":0.5
			}
		},
		{
			"doubleSided":true,
			"name":"Grey",
			"pbrMetallicRoughness":{
				"baseColorFactor":[
					0.2597948908805847,
					0.25713229179382324,
					0.24924027919769287,
					1
				],
				"metallicFactor":0,
				"roughnessFactor":0.5
			}
		}
	],
	"meshes":[
		{
			"name":"Cube.052",
			"primitives":[
				{
					"attributes":{
						"POSITION":0,
						"NORMAL":1
					},
					"indices":2,
					"material":0
				},
				{
					"attributes":{
						"POSITION":3,
						"NORMAL":4
					},
					"indices":5,
					"material":1
				},
				{
					"attributes":{
						"POSITION":6,
						"NORMAL":7
					},
					"indices":8,
					"material":2
				},
				{
					"attributes":{
						"POSITION":9,
						"NORMAL":10
					},
					"indices":11,
					"material":3
				}
			]
		}
	],
	"accessors":[
		{
			"bufferView":0,
			"componentType":5126,
			"count":568,
			"max":[
				1.2707587480545044,
				2.997037410736084,
				1.9986974000930786
			],
			"min":[
				-0.8686655759811401,
				-0.02830718643963337,
				-1.998697280883789
			],
			"type":"VEC3"
		},
		{
			"bufferView":1,
			"componentType":5126,
			"count":568,
			"type":"VEC3"
		},
		{
			"bufferView":2,
			"componentType":5123,
			"count":1296,
			"type":"SCALAR"
		},
		{
			"bufferView":3,
			"componentType":5126,
			"count":160,
			"max":[
				0.9960070848464966,
				3.0024070739746094,
				-1.149226188659668
			],
			"min":[
				-0.8670257329940796,
				0.4553912580013275,
				-1.9525048732757568
			],
			"type":"VEC3"
		},
		{
			"bufferView":4,
			"componentType":5126,
			"count":160,
			"type":"VEC3"
		},
		{
			"bufferView":5,
			"componentType":5123,
			"count":864,
			"type":"SCALAR"
		},
		{
			"bufferView":6,
			"componentType":5126,
			"count":72,
			"max":[
				1.019566535949707,
				2.7328553199768066,
				1.8584139347076416
			],
			"min":[
				-0.8911359310150146,
				0.43447819352149963,
				-0.8170169591903687
			],
			"type":"VEC3"
		},
		{
			"bufferView":7,
			"componentType":5126,
			"count":72,
			"type":"VEC3"
		},
		{
			"bufferView":8,
			"componentType":5123,
			"count":360,
			"type":"SCALAR"
		},
		{
			"bufferView":9,
			"componentType":5126,
			"count":80,
			"max":[
				1.0263402462005615,
				2.796022891998291,
				-0.6707699298858643
			],
			"min":[
				-0.8980675935745239,
				0.4284656047821045,
				-1.1690300703048706
			],
			"type":"VEC3"
		},
		{
			"bufferView":10,
			"componentType":5126,
			"count":80,
			"type":"VEC3"
		},
		{
			"bufferView":11,
			"componentType":5123,
			"count":360,
			"type":"SCALAR"
		}
	],
	"bufferViews":[
		{
			"buffer":0,
			"byteLength":6816,
			"byteOffset":0,
			"target":34962
		},
		{
			"buffer":0,
			"byteLength":6816,
			"byteOffset":6816,
			"target":34962
		},
		{
			"buffer":0,
			"byteLength":2592,
			"byteOffset":13632,
			"target":34963
		},
		{
			"buffer":0,
			"byteLength":1920,
			"byteOffset":16224,
			"target":34962
		},
		{
			"buffer":0,
			"byteLength":1920,
			"byteOffset":18144,
			"target":34962
		},
		{
			"buffer":0,
			"byteLength":1728,
			"byteOffset":20064,
			"target":34963
		},
		{
			"buffer":0,
			"byteLength":864,
			"byteOffset":21792,
			"target":34962
		},
		{
			"buffer":0,
			"byteLength":864,
			"byteOffset":22656,
			"target":34962
		},
		{
			"buffer":0,
			"byteLength":720,
			"byteOffset":23520,
			"target":34963
		},
		{
			"buffer":0,
			"byteLength":960,
			"byteOffset":24240,
			"target":34962
		},
		{
			"buffer":0,
			"byteLength":960,
			"byteOffset":25200,
			"target":34962
		},
		{
			"buffer":0,
			"byteLength":720,
			"byteOffset":26160,
			"target":34963
		}
	],
	"buffers":[
		{
			"byteLength":26880,
			"uri":"Bed_Bunk-d79cc6fb78119e4217a9ac67c64ead31.bin"
		}
	]
}
