{
	"asset":{
		"generator":"Khronos glTF Blender I/O v4.4.55",
		"version":"2.0"
	},
	"scene":0,
	"scenes":[
		{
			"name":"Scene",
			"nodes":[
				0
			]
		}
	],
	"nodes":[
		{
			"mesh":0,
			"name":"BedKing"
		}
	],
	"materials":[
		{
			"doubleSided":true,
			"name":"Wood.001"
		},
		{
			"doubleSided":true,
			"name":"White.001"
		},
		{
			"doubleSided":true,
			"name":"Sheets.001"
		},
		{
			"doubleSided":true,
			"name":"DarkBrown.001"
		}
	],
	"meshes":[
		{
			"name":"Cube.018",
			"primitives":[
				{
					"attributes":{
						"POSITION":0,
						"NORMAL":1
					},
					"indices":2,
					"material":0
				},
				{
					"attributes":{
						"POSITION":3,
						"NORMAL":4
					},
					"indices":5,
					"material":1
				},
				{
					"attributes":{
						"POSITION":6,
						"NORMAL":7
					},
					"indices":8,
					"material":2
				},
				{
					"attributes":{
						"POSITION":9,
						"NORMAL":10
					},
					"indices":11,
					"material":3
				}
			]
		}
	],
	"accessors":[
		{
			"bufferView":0,
			"componentType":5126,
			"count":280,
			"max":[
				0.6554006338119507,
				0.48181721568107605,
				0.5876522660255432
			],
			"min":[
				-0.7248610258102417,
				0.03597816824913025,
				-0.5795222520828247
			],
			"type":"VEC3"
		},
		{
			"bufferView":1,
			"componentType":5126,
			"count":280,
			"type":"VEC3"
		},
		{
			"bufferView":2,
			"componentType":5123,
			"count":450,
			"type":"SCALAR"
		},
		{
			"bufferView":3,
			"componentType":5126,
			"count":688,
			"max":[
				-0.3726295530796051,
				0.2758380174636841,
				0.5983099937438965
			],
			"min":[
				-0.6800402402877808,
				0.03607834875583649,
				-0.5901799201965332
			],
			"type":"VEC3"
		},
		{
			"bufferView":4,
			"componentType":5126,
			"count":688,
			"type":"VEC3"
		},
		{
			"bufferView":5,
			"componentType":5123,
			"count":1164,
			"type":"SCALAR"
		},
		{
			"bufferView":6,
			"componentType":5126,
			"count":20,
			"max":[
				0.6105799674987793,
				0.2075342983007431,
				0.5873429179191589
			],
			"min":[
				-0.37587013840675354,
				0.03607834875583649,
				-0.5792129635810852
			],
			"type":"VEC3"
		},
		{
			"bufferView":7,
			"componentType":5126,
			"count":20,
			"type":"VEC3"
		},
		{
			"bufferView":8,
			"componentType":5123,
			"count":30,
			"type":"SCALAR"
		},
		{
			"bufferView":9,
			"componentType":5126,
			"count":304,
			"max":[
				0.6804025173187256,
				0.4556450843811035,
				0.6813092827796936
			],
			"min":[
				-0.7498630285263062,
				-0.007976874709129333,
				-0.6731793284416199
			],
			"type":"VEC3"
		},
		{
			"bufferView":10,
			"componentType":5126,
			"count":304,
			"type":"VEC3"
		},
		{
			"bufferView":11,
			"componentType":5123,
			"count":456,
			"type":"SCALAR"
		}
	],
	"bufferViews":[
		{
			"buffer":0,
			"byteLength":3360,
			"byteOffset":0,
			"target":34962
		},
		{
			"buffer":0,
			"byteLength":3360,
			"byteOffset":3360,
			"target":34962
		},
		{
			"buffer":0,
			"byteLength":900,
			"byteOffset":6720,
			"target":34963
		},
		{
			"buffer":0,
			"byteLength":8256,
			"byteOffset":7620,
			"target":34962
		},
		{
			"buffer":0,
			"byteLength":8256,
			"byteOffset":15876,
			"target":34962
		},
		{
			"buffer":0,
			"byteLength":2328,
			"byteOffset":24132,
			"target":34963
		},
		{
			"buffer":0,
			"byteLength":240,
			"byteOffset":26460,
			"target":34962
		},
		{
			"buffer":0,
			"byteLength":240,
			"byteOffset":26700,
			"target":34962
		},
		{
			"buffer":0,
			"byteLength":60,
			"byteOffset":26940,
			"target":34963
		},
		{
			"buffer":0,
			"byteLength":3648,
			"byteOffset":27000,
			"target":34962
		},
		{
			"buffer":0,
			"byteLength":3648,
			"byteOffset":30648,
			"target":34962
		},
		{
			"buffer":0,
			"byteLength":912,
			"byteOffset":34296,
			"target":34963
		}
	],
	"buffers":[
		{
			"byteLength":35208,
			"uri":"BedKing-6c943f296ebd93a5fe4eaafbb4c02321.bin"
		}
	]
}
