{
	"asset":{
		"generator":"Khronos glTF Blender I/O v4.4.55",
		"version":"2.0"
	},
	"scene":0,
	"scenes":[
		{
			"name":"Scene",
			"nodes":[
				0
			]
		}
	],
	"nodes":[
		{
			"mesh":0,
			"name":"BookCaseBooks"
		}
	],
	"materials":[
		{
			"doubleSided":true,
			"name":"Sofa"
		},
		{
			"doubleSided":true,
			"name":"Cover2"
		},
		{
			"doubleSided":true,
			"name":"Cover3"
		},
		{
			"doubleSided":true,
			"name":"Cover4"
		},
		{
			"doubleSided":true,
			"name":"Pages"
		},
		{
			"doubleSided":true,
			"name":"Wood.005"
		},
		{
			"doubleSided":true,
			"name":"DarkWood.003"
		}
	],
	"meshes":[
		{
			"name":"Cube.008",
			"primitives":[
				{
					"attributes":{
						"POSITION":0,
						"NORMAL":1
					},
					"indices":2,
					"material":0
				},
				{
					"attributes":{
						"POSITION":3,
						"NORMAL":4
					},
					"indices":5,
					"material":1
				},
				{
					"attributes":{
						"POSITION":6,
						"NORMAL":7
					},
					"indices":8,
					"material":2
				},
				{
					"attributes":{
						"POSITION":9,
						"NORMAL":10
					},
					"indices":11,
					"material":3
				},
				{
					"attributes":{
						"POSITION":12,
						"NORMAL":13
					},
					"indices":14,
					"material":4
				},
				{
					"attributes":{
						"POSITION":15,
						"NORMAL":16
					},
					"indices":17,
					"material":5
				},
				{
					"attributes":{
						"POSITION":18,
						"NORMAL":19
					},
					"indices":20,
					"material":6
				}
			]
		}
	],
	"accessors":[
		{
			"bufferView":0,
			"componentType":5126,
			"count":348,
			"max":[
				0.15155263245105743,
				1.0606625080108643,
				0.25378748774528503
			],
			"min":[
				0.031579870730638504,
				0.15740758180618286,
				-0.0569135844707489
			],
			"type":"VEC3"
		},
		{
			"bufferView":1,
			"componentType":5126,
			"count":348,
			"type":"VEC3"
		},
		{
			"bufferView":2,
			"componentType":5123,
			"count":606,
			"type":"SCALAR"
		},
		{
			"bufferView":3,
			"componentType":5126,
			"count":370,
			"max":[
				0.15155263245105743,
				1.2980263233184814,
				0.2663218677043915
			],
			"min":[
				0.031579870730638504,
				0.1537267565727234,
				-0.23141595721244812
			],
			"type":"VEC3"
		},
		{
			"bufferView":4,
			"componentType":5126,
			"count":370,
			"type":"VEC3"
		},
		{
			"bufferView":5,
			"componentType":5123,
			"count":648,
			"type":"SCALAR"
		},
		{
			"bufferView":6,
			"componentType":5126,
			"count":438,
			"max":[
				0.15155263245105743,
				1.293328046798706,
				0.16103017330169678
			],
			"min":[
				0.031579870730638504,
				0.15606969594955444,
				-0.21512678265571594
			],
			"type":"VEC3"
		},
		{
			"bufferView":7,
			"componentType":5126,
			"count":438,
			"type":"VEC3"
		},
		{
			"bufferView":8,
			"componentType":5123,
			"count":786,
			"type":"SCALAR"
		},
		{
			"bufferView":9,
			"componentType":5126,
			"count":416,
			"max":[
				0.15155263245105743,
				1.293328046798706,
				0.2320084571838379
			],
			"min":[
				0.031579870730638504,
				0.15677231550216675,
				-0.23383739590644836
			],
			"type":"VEC3"
		},
		{
			"bufferView":10,
			"componentType":5126,
			"count":416,
			"type":"VEC3"
		},
		{
			"bufferView":11,
			"componentType":5123,
			"count":732,
			"type":"SCALAR"
		},
		{
			"bufferView":12,
			"componentType":5126,
			"count":504,
			"max":[
				0.14375504851341248,
				1.2959253787994385,
				0.2615910470485687
			],
			"min":[
				0.031579870730638504,
				0.15523046255111694,
				-0.23093530535697937
			],
			"type":"VEC3"
		},
		{
			"bufferView":13,
			"componentType":5126,
			"count":504,
			"type":"VEC3"
		},
		{
			"bufferView":14,
			"componentType":5123,
			"count":756,
			"type":"SCALAR"
		},
		{
			"bufferView":15,
			"componentType":5126,
			"count":210,
			"max":[
				0.23932765424251556,
				1.5292770862579346,
				0.3853280544281006
			],
			"min":[
				-0.21262069046497345,
				-0.002708256244659424,
				-0.37237533926963806
			],
			"type":"VEC3"
		},
		{
			"bufferView":16,
			"componentType":5126,
			"count":210,
			"type":"VEC3"
		},
		{
			"bufferView":17,
			"componentType":5123,
			"count":312,
			"type":"SCALAR"
		},
		{
			"bufferView":18,
			"componentType":5126,
			"count":292,
			"max":[
				0.21821224689483643,
				1.3336257934570312,
				0.3765873908996582
			],
			"min":[
				-0.2093077450990677,
				-0.004225432872772217,
				-0.36363473534584045
			],
			"type":"VEC3"
		},
		{
			"bufferView":19,
			"componentType":5126,
			"count":292,
			"type":"VEC3"
		},
		{
			"bufferView":20,
			"componentType":5123,
			"count":528,
			"type":"SCALAR"
		}
	],
	"bufferViews":[
		{
			"buffer":0,
			"byteLength":4176,
			"byteOffset":0,
			"target":34962
		},
		{
			"buffer":0,
			"byteLength":4176,
			"byteOffset":4176,
			"target":34962
		},
		{
			"buffer":0,
			"byteLength":1212,
			"byteOffset":8352,
			"target":34963
		},
		{
			"buffer":0,
			"byteLength":4440,
			"byteOffset":9564,
			"target":34962
		},
		{
			"buffer":0,
			"byteLength":4440,
			"byteOffset":14004,
			"target":34962
		},
		{
			"buffer":0,
			"byteLength":1296,
			"byteOffset":18444,
			"target":34963
		},
		{
			"buffer":0,
			"byteLength":5256,
			"byteOffset":19740,
			"target":34962
		},
		{
			"buffer":0,
			"byteLength":5256,
			"byteOffset":24996,
			"target":34962
		},
		{
			"buffer":0,
			"byteLength":1572,
			"byteOffset":30252,
			"target":34963
		},
		{
			"buffer":0,
			"byteLength":4992,
			"byteOffset":31824,
			"target":34962
		},
		{
			"buffer":0,
			"byteLength":4992,
			"byteOffset":36816,
			"target":34962
		},
		{
			"buffer":0,
			"byteLength":1464,
			"byteOffset":41808,
			"target":34963
		},
		{
			"buffer":0,
			"byteLength":6048,
			"byteOffset":43272,
			"target":34962
		},
		{
			"buffer":0,
			"byteLength":6048,
			"byteOffset":49320,
			"target":34962
		},
		{
			"buffer":0,
			"byteLength":1512,
			"byteOffset":55368,
			"target":34963
		},
		{
			"buffer":0,
			"byteLength":2520,
			"byteOffset":56880,
			"target":34962
		},
		{
			"buffer":0,
			"byteLength":2520,
			"byteOffset":59400,
			"target":34962
		},
		{
			"buffer":0,
			"byteLength":624,
			"byteOffset":61920,
			"target":34963
		},
		{
			"buffer":0,
			"byteLength":3504,
			"byteOffset":62544,
			"target":34962
		},
		{
			"buffer":0,
			"byteLength":3504,
			"byteOffset":66048,
			"target":34962
		},
		{
			"buffer":0,
			"byteLength":1056,
			"byteOffset":69552,
			"target":34963
		}
	],
	"buffers":[
		{
			"byteLength":70608,
			"uri":"BookCaseBooks-aadaa40dedd261002b5b0448d9c5da51.bin"
		}
	]
}
