{
	"asset":{
		"generator":"Khronos glTF Blender I/O v4.4.55",
		"version":"2.0"
	},
	"scene":0,
	"scenes":[
		{
			"name":"Scene",
			"nodes":[
				0
			]
		}
	],
	"nodes":[
		{
			"mesh":0,
			"name":"BookCaseLarge",
			"translation":[
				0,
				0,
				-0.39995503425598145
			]
		}
	],
	"materials":[
		{
			"doubleSided":true,
			"name":"Wood.006"
		},
		{
			"doubleSided":true,
			"name":"DarkWood.004"
		}
	],
	"meshes":[
		{
			"name":"Cube.005",
			"primitives":[
				{
					"attributes":{
						"POSITION":0,
						"NORMAL":1
					},
					"indices":2,
					"material":0
				},
				{
					"attributes":{
						"POSITION":3,
						"NORMAL":4
					},
					"indices":5,
					"material":1
				}
			]
		}
	],
	"accessors":[
		{
			"bufferView":0,
			"componentType":5126,
			"count":210,
			"max":[
				0.24943959712982178,
				1.532456636428833,
				0.7853224873542786
			],
			"min":[
				-0.20250873267650604,
				0.0004715319664683193,
				-0.7853224873542786
			],
			"type":"VEC3"
		},
		{
			"bufferView":1,
			"componentType":5126,
			"count":210,
			"type":"VEC3"
		},
		{
			"bufferView":2,
			"componentType":5123,
			"count":312,
			"type":"SCALAR"
		},
		{
			"bufferView":3,
			"componentType":5126,
			"count":292,
			"max":[
				0.22832417488098145,
				1.3368053436279297,
				0.776581883430481
			],
			"min":[
				-0.19919578731060028,
				-0.0010457024909555912,
				-0.776581883430481
			],
			"type":"VEC3"
		},
		{
			"bufferView":4,
			"componentType":5126,
			"count":292,
			"type":"VEC3"
		},
		{
			"bufferView":5,
			"componentType":5123,
			"count":528,
			"type":"SCALAR"
		}
	],
	"bufferViews":[
		{
			"buffer":0,
			"byteLength":2520,
			"byteOffset":0,
			"target":34962
		},
		{
			"buffer":0,
			"byteLength":2520,
			"byteOffset":2520,
			"target":34962
		},
		{
			"buffer":0,
			"byteLength":624,
			"byteOffset":5040,
			"target":34963
		},
		{
			"buffer":0,
			"byteLength":3504,
			"byteOffset":5664,
			"target":34962
		},
		{
			"buffer":0,
			"byteLength":3504,
			"byteOffset":9168,
			"target":34962
		},
		{
			"buffer":0,
			"byteLength":1056,
			"byteOffset":12672,
			"target":34963
		}
	],
	"buffers":[
		{
			"byteLength":13728,
			"uri":"BookCaseLarge-81231465fd5fd71ac698cab2378a05e2.bin"
		}
	]
}
