{
	"asset":{
		"generator":"Khronos glTF Blender I/O v4.4.55",
		"version":"2.0"
	},
	"scene":0,
	"scenes":[
		{
			"name":"Scene",
			"nodes":[
				0
			]
		}
	],
	"nodes":[
		{
			"mesh":0,
			"name":"BookCaseLargeBooks"
		}
	],
	"materials":[
		{
			"doubleSided":true,
			"name":"Wood.007"
		},
		{
			"doubleSided":true,
			"name":"DarkWood.005"
		},
		{
			"doubleSided":true,
			"name":"Sofa.001"
		},
		{
			"doubleSided":true,
			"name":"Cover2.001"
		},
		{
			"doubleSided":true,
			"name":"Cover3.001"
		},
		{
			"doubleSided":true,
			"name":"Cover4.001"
		},
		{
			"doubleSided":true,
			"name":"Pages.001"
		}
	],
	"meshes":[
		{
			"name":"Cube.010",
			"primitives":[
				{
					"attributes":{
						"POSITION":0,
						"NORMAL":1
					},
					"indices":2,
					"material":0
				},
				{
					"attributes":{
						"POSITION":3,
						"NORMAL":4
					},
					"indices":5,
					"material":1
				},
				{
					"attributes":{
						"POSITION":6,
						"NORMAL":7
					},
					"indices":8,
					"material":2
				},
				{
					"attributes":{
						"POSITION":9,
						"NORMAL":10
					},
					"indices":11,
					"material":3
				},
				{
					"attributes":{
						"POSITION":12,
						"NORMAL":13
					},
					"indices":14,
					"material":4
				},
				{
					"attributes":{
						"POSITION":15,
						"NORMAL":16
					},
					"indices":17,
					"material":5
				},
				{
					"attributes":{
						"POSITION":18,
						"NORMAL":19
					},
					"indices":20,
					"material":6
				}
			]
		}
	],
	"accessors":[
		{
			"bufferView":0,
			"componentType":5126,
			"count":210,
			"max":[
				0.24943959712982178,
				1.532456636428833,
				0.7853224873542786
			],
			"min":[
				-0.20250873267650604,
				0.0004715319664683193,
				-0.7853224873542786
			],
			"type":"VEC3"
		},
		{
			"bufferView":1,
			"componentType":5126,
			"count":210,
			"type":"VEC3"
		},
		{
			"bufferView":2,
			"componentType":5123,
			"count":312,
			"type":"SCALAR"
		},
		{
			"bufferView":3,
			"componentType":5126,
			"count":292,
			"max":[
				0.22832417488098145,
				1.3368053436279297,
				0.776581883430481
			],
			"min":[
				-0.19919578731060028,
				-0.0010457024909555912,
				-0.776581883430481
			],
			"type":"VEC3"
		},
		{
			"bufferView":4,
			"componentType":5126,
			"count":292,
			"type":"VEC3"
		},
		{
			"bufferView":5,
			"componentType":5123,
			"count":528,
			"type":"SCALAR"
		},
		{
			"bufferView":6,
			"componentType":5126,
			"count":1382,
			"max":[
				0.1723823994398117,
				1.297720193862915,
				0.6464192271232605
			],
			"min":[
				0.052409637719392776,
				0.15679892897605896,
				-0.643127977848053
			],
			"type":"VEC3"
		},
		{
			"bufferView":7,
			"componentType":5126,
			"count":1382,
			"type":"VEC3"
		},
		{
			"bufferView":8,
			"componentType":5123,
			"count":2454,
			"type":"SCALAR"
		},
		{
			"bufferView":9,
			"componentType":5126,
			"count":612,
			"max":[
				0.1723823994398117,
				1.2977200746536255,
				0.5663555264472961
			],
			"min":[
				0.052409637719392776,
				0.15690647065639496,
				-0.5630643367767334
			],
			"type":"VEC3"
		},
		{
			"bufferView":10,
			"componentType":5126,
			"count":612,
			"type":"VEC3"
		},
		{
			"bufferView":11,
			"componentType":5123,
			"count":1044,
			"type":"SCALAR"
		},
		{
			"bufferView":12,
			"componentType":5126,
			"count":1120,
			"max":[
				0.1723823994398117,
				1.2965078353881836,
				0.5611999034881592
			],
			"min":[
				0.052409637719392776,
				0.15679892897605896,
				-0.5528044700622559
			],
			"type":"VEC3"
		},
		{
			"bufferView":13,
			"componentType":5126,
			"count":1120,
			"type":"VEC3"
		},
		{
			"bufferView":14,
			"componentType":5123,
			"count":1980,
			"type":"SCALAR"
		},
		{
			"bufferView":15,
			"componentType":5126,
			"count":1220,
			"max":[
				0.1723823994398117,
				1.301206111907959,
				0.6664916276931763
			],
			"min":[
				0.052409637719392776,
				0.15527057647705078,
				-0.6632002592086792
			],
			"type":"VEC3"
		},
		{
			"bufferView":16,
			"componentType":5126,
			"count":1220,
			"type":"VEC3"
		},
		{
			"bufferView":17,
			"componentType":5123,
			"count":2112,
			"type":"SCALAR"
		},
		{
			"bufferView":18,
			"componentType":5126,
			"count":1380,
			"max":[
				0.16458481550216675,
				1.299105167388916,
				0.6617608070373535
			],
			"min":[
				0.052409637719392776,
				0.1563761830329895,
				-0.658469557762146
			],
			"type":"VEC3"
		},
		{
			"bufferView":19,
			"componentType":5126,
			"count":1380,
			"type":"VEC3"
		},
		{
			"bufferView":20,
			"componentType":5123,
			"count":2070,
			"type":"SCALAR"
		}
	],
	"bufferViews":[
		{
			"buffer":0,
			"byteLength":2520,
			"byteOffset":0,
			"target":34962
		},
		{
			"buffer":0,
			"byteLength":2520,
			"byteOffset":2520,
			"target":34962
		},
		{
			"buffer":0,
			"byteLength":624,
			"byteOffset":5040,
			"target":34963
		},
		{
			"buffer":0,
			"byteLength":3504,
			"byteOffset":5664,
			"target":34962
		},
		{
			"buffer":0,
			"byteLength":3504,
			"byteOffset":9168,
			"target":34962
		},
		{
			"buffer":0,
			"byteLength":1056,
			"byteOffset":12672,
			"target":34963
		},
		{
			"buffer":0,
			"byteLength":16584,
			"byteOffset":13728,
			"target":34962
		},
		{
			"buffer":0,
			"byteLength":16584,
			"byteOffset":30312,
			"target":34962
		},
		{
			"buffer":0,
			"byteLength":4908,
			"byteOffset":46896,
			"target":34963
		},
		{
			"buffer":0,
			"byteLength":7344,
			"byteOffset":51804,
			"target":34962
		},
		{
			"buffer":0,
			"byteLength":7344,
			"byteOffset":59148,
			"target":34962
		},
		{
			"buffer":0,
			"byteLength":2088,
			"byteOffset":66492,
			"target":34963
		},
		{
			"buffer":0,
			"byteLength":13440,
			"byteOffset":68580,
			"target":34962
		},
		{
			"buffer":0,
			"byteLength":13440,
			"byteOffset":82020,
			"target":34962
		},
		{
			"buffer":0,
			"byteLength":3960,
			"byteOffset":95460,
			"target":34963
		},
		{
			"buffer":0,
			"byteLength":14640,
			"byteOffset":99420,
			"target":34962
		},
		{
			"buffer":0,
			"byteLength":14640,
			"byteOffset":114060,
			"target":34962
		},
		{
			"buffer":0,
			"byteLength":4224,
			"byteOffset":128700,
			"target":34963
		},
		{
			"buffer":0,
			"byteLength":16560,
			"byteOffset":132924,
			"target":34962
		},
		{
			"buffer":0,
			"byteLength":16560,
			"byteOffset":149484,
			"target":34962
		},
		{
			"buffer":0,
			"byteLength":4140,
			"byteOffset":166044,
			"target":34963
		}
	],
	"buffers":[
		{
			"byteLength":170184,
			"uri":"BookCaseLargeBooks-9fdf7168cdd75f339d5f0522ba7ab126.bin"
		}
	]
}
