{
	"asset":{
		"generator":"Khronos glTF Blender I/O v4.4.55",
		"version":"2.0"
	},
	"scene":0,
	"scenes":[
		{
			"name":"Scene",
			"nodes":[
				0
			]
		}
	],
	"nodes":[
		{
			"mesh":0,
			"name":"Carpet_2"
		}
	],
	"materials":[
		{
			"doubleSided":true,
			"name":"DarkRed",
			"pbrMetallicRoughness":{
				"baseColorFactor":[
					0.10247109830379486,
					0.034876663237810135,
					0.02316785603761673,
					1
				],
				"metallicFactor":0,
				"roughnessFactor":0.5
			}
		},
		{
			"doubleSided":true,
			"name":"LightOrange",
			"pbrMetallicRoughness":{
				"baseColorFactor":[
					0.548847496509552,
					0.32919058203697205,
					0.10517245531082153,
					1
				],
				"metallicFactor":0,
				"roughnessFactor":0.5
			}
		}
	],
	"meshes":[
		{
			"name":"Plane.007",
			"primitives":[
				{
					"attributes":{
						"POSITION":0,
						"NORMAL":1
					},
					"indices":2,
					"material":0
				},
				{
					"attributes":{
						"POSITION":3,
						"NORMAL":4
					},
					"indices":5,
					"material":1
				}
			]
		}
	],
	"accessors":[
		{
			"bufferView":0,
			"componentType":5126,
			"count":60,
			"max":[
				1.6373531818389893,
				0.03579145669937134,
				1.623917818069458
			],
			"min":[
				-1.455856204032898,
				-0.0008665717905387282,
				-1.5575274229049683
			],
			"type":"VEC3"
		},
		{
			"bufferView":1,
			"componentType":5126,
			"count":60,
			"type":"VEC3"
		},
		{
			"bufferView":2,
			"componentType":5123,
			"count":174,
			"type":"SCALAR"
		},
		{
			"bufferView":3,
			"componentType":5126,
			"count":40,
			"max":[
				1.5478037595748901,
				0.03430844098329544,
				1.5674149990081787
			],
			"min":[
				-1.3773103952407837,
				-0.0003574723086785525,
				-1.5012874603271484
			],
			"type":"VEC3"
		},
		{
			"bufferView":4,
			"componentType":5126,
			"count":40,
			"type":"VEC3"
		},
		{
			"bufferView":5,
			"componentType":5123,
			"count":120,
			"type":"SCALAR"
		}
	],
	"bufferViews":[
		{
			"buffer":0,
			"byteLength":720,
			"byteOffset":0,
			"target":34962
		},
		{
			"buffer":0,
			"byteLength":720,
			"byteOffset":720,
			"target":34962
		},
		{
			"buffer":0,
			"byteLength":348,
			"byteOffset":1440,
			"target":34963
		},
		{
			"buffer":0,
			"byteLength":480,
			"byteOffset":1788,
			"target":34962
		},
		{
			"buffer":0,
			"byteLength":480,
			"byteOffset":2268,
			"target":34962
		},
		{
			"buffer":0,
			"byteLength":240,
			"byteOffset":2748,
			"target":34963
		}
	],
	"buffers":[
		{
			"byteLength":2988,
			"uri":"Carpet_2-894a9a300ed44052fa5adcae9e236fc5.bin"
		}
	]
}
