{
	"asset":{
		"generator":"Khronos glTF Blender I/O v4.4.55",
		"version":"2.0"
	},
	"scene":0,
	"scenes":[
		{
			"name":"Scene",
			"nodes":[
				0
			]
		}
	],
	"nodes":[
		{
			"mesh":0,
			"name":"Carpet_1"
		}
	],
	"materials":[
		{
			"doubleSided":true,
			"name":"DarkRed",
			"pbrMetallicRoughness":{
				"baseColorFactor":[
					0.10247109830379486,
					0.034876663237810135,
					0.02316785603761673,
					1
				],
				"metallicFactor":0,
				"roughnessFactor":0.5
			}
		},
		{
			"doubleSided":true,
			"name":"LightOrange",
			"pbrMetallicRoughness":{
				"baseColorFactor":[
					0.548847496509552,
					0.32919058203697205,
					0.10517245531082153,
					1
				],
				"metallicFactor":0,
				"roughnessFactor":0.5
			}
		}
	],
	"meshes":[
		{
			"name":"Plane.008",
			"primitives":[
				{
					"attributes":{
						"POSITION":0,
						"NORMAL":1
					},
					"indices":2,
					"material":0
				},
				{
					"attributes":{
						"POSITION":3,
						"NORMAL":4
					},
					"indices":5,
					"material":1
				}
			]
		}
	],
	"accessors":[
		{
			"bufferView":0,
			"componentType":5126,
			"count":66,
			"max":[
				1.0730359554290771,
				0.03579145669937134,
				1.5372395515441895
			],
			"min":[
				-1.0581945180892944,
				-0.0008665717905387282,
				-1.5559695959091187
			],
			"type":"VEC3"
		},
		{
			"bufferView":1,
			"componentType":5126,
			"count":66,
			"type":"VEC3"
		},
		{
			"bufferView":2,
			"componentType":5123,
			"count":192,
			"type":"SCALAR"
		},
		{
			"bufferView":3,
			"componentType":5126,
			"count":44,
			"max":[
				1.0147912502288818,
				0.03430844098329544,
				1.4586937427520752
			],
			"min":[
				-1.0006213188171387,
				-0.0003574723086785525,
				-1.4664201736450195
			],
			"type":"VEC3"
		},
		{
			"bufferView":4,
			"componentType":5126,
			"count":44,
			"type":"VEC3"
		},
		{
			"bufferView":5,
			"componentType":5123,
			"count":132,
			"type":"SCALAR"
		}
	],
	"bufferViews":[
		{
			"buffer":0,
			"byteLength":792,
			"byteOffset":0,
			"target":34962
		},
		{
			"buffer":0,
			"byteLength":792,
			"byteOffset":792,
			"target":34962
		},
		{
			"buffer":0,
			"byteLength":384,
			"byteOffset":1584,
			"target":34963
		},
		{
			"buffer":0,
			"byteLength":528,
			"byteOffset":1968,
			"target":34962
		},
		{
			"buffer":0,
			"byteLength":528,
			"byteOffset":2496,
			"target":34962
		},
		{
			"buffer":0,
			"byteLength":264,
			"byteOffset":3024,
			"target":34963
		}
	],
	"buffers":[
		{
			"byteLength":3288,
			"uri":"Carpet_1-adbf6c1a73ee7ea074a6f59f0defabb8.bin"
		}
	]
}
