{
	"asset":{
		"generator":"Khronos glTF Blender I/O v4.4.55",
		"version":"2.0"
	},
	"scene":0,
	"scenes":[
		{
			"name":"Scene",
			"nodes":[
				0
			]
		}
	],
	"nodes":[
		{
			"mesh":0,
			"name":"Carpet_Round"
		}
	],
	"materials":[
		{
			"doubleSided":true,
			"name":"DarkRed",
			"pbrMetallicRoughness":{
				"baseColorFactor":[
					0.10247109830379486,
					0.034876663237810135,
					0.02316785603761673,
					1
				],
				"metallicFactor":0,
				"roughnessFactor":0.5
			}
		},
		{
			"doubleSided":true,
			"name":"LightOrange",
			"pbrMetallicRoughness":{
				"baseColorFactor":[
					0.548847496509552,
					0.32919058203697205,
					0.10517245531082153,
					1
				],
				"metallicFactor":0,
				"roughnessFactor":0.5
			}
		}
	],
	"meshes":[
		{
			"name":"Cylinder.038",
			"primitives":[
				{
					"attributes":{
						"POSITION":0,
						"NORMAL":1
					},
					"indices":2,
					"material":0
				},
				{
					"attributes":{
						"POSITION":3,
						"NORMAL":4
					},
					"indices":5,
					"material":1
				}
			]
		}
	],
	"accessors":[
		{
			"bufferView":0,
			"componentType":5126,
			"count":78,
			"max":[
				1.2463657855987549,
				0.01573587767779827,
				1.265593409538269
			],
			"min":[
				-1.24636709690094,
				-1.3392120479238656e-07,
				-1.2655940055847168
			],
			"type":"VEC3"
		},
		{
			"bufferView":1,
			"componentType":5126,
			"count":78,
			"type":"VEC3"
		},
		{
			"bufferView":2,
			"componentType":5123,
			"count":228,
			"type":"SCALAR"
		},
		{
			"bufferView":3,
			"componentType":5126,
			"count":52,
			"max":[
				1.1533125638961792,
				0.01573587767779827,
				1.1711045503616333
			],
			"min":[
				-1.1533138751983643,
				-1.3392120479238656e-07,
				-1.1711050271987915
			],
			"type":"VEC3"
		},
		{
			"bufferView":4,
			"componentType":5126,
			"count":52,
			"type":"VEC3"
		},
		{
			"bufferView":5,
			"componentType":5123,
			"count":156,
			"type":"SCALAR"
		}
	],
	"bufferViews":[
		{
			"buffer":0,
			"byteLength":936,
			"byteOffset":0,
			"target":34962
		},
		{
			"buffer":0,
			"byteLength":936,
			"byteOffset":936,
			"target":34962
		},
		{
			"buffer":0,
			"byteLength":456,
			"byteOffset":1872,
			"target":34963
		},
		{
			"buffer":0,
			"byteLength":624,
			"byteOffset":2328,
			"target":34962
		},
		{
			"buffer":0,
			"byteLength":624,
			"byteOffset":2952,
			"target":34962
		},
		{
			"buffer":0,
			"byteLength":312,
			"byteOffset":3576,
			"target":34963
		}
	],
	"buffers":[
		{
			"byteLength":3888,
			"uri":"Carpet_Round-22fee52defd833b03c4310fbb2cd518c.bin"
		}
	]
}
