{
	"asset":{
		"generator":"Khronos glTF Blender I/O v4.4.55",
		"version":"2.0"
	},
	"scene":0,
	"scenes":[
		{
			"name":"Scene",
			"nodes":[
				0
			]
		}
	],
	"nodes":[
		{
			"mesh":0,
			"name":"Chair_3"
		}
	],
	"materials":[
		{
			"doubleSided":true,
			"name":"Wood_Dark",
			"pbrMetallicRoughness":{
				"baseColorFactor":[
					0.05494704842567444,
					0.04043891653418541,
					0.031514640897512436,
					1
				],
				"metallicFactor":0,
				"roughnessFactor":0.5
			}
		},
		{
			"doubleSided":true,
			"name":"Cushin",
			"pbrMetallicRoughness":{
				"baseColorFactor":[
					0.30319470167160034,
					0.26339706778526306,
					0.23997287452220917,
					1
				],
				"metallicFactor":0,
				"roughnessFactor":0.5
			}
		}
	],
	"meshes":[
		{
			"name":"Cube.013",
			"primitives":[
				{
					"attributes":{
						"POSITION":0,
						"NORMAL":1
					},
					"indices":2,
					"material":0
				},
				{
					"attributes":{
						"POSITION":3,
						"NORMAL":4
					},
					"indices":5,
					"material":1
				}
			]
		}
	],
	"accessors":[
		{
			"bufferView":0,
			"componentType":5126,
			"count":600,
			"max":[
				0.3808608949184418,
				1.6874843835830688,
				0.3808608949184418
			],
			"min":[
				-0.3808608949184418,
				-0.006554323714226484,
				-0.45664697885513306
			],
			"type":"VEC3"
		},
		{
			"bufferView":1,
			"componentType":5126,
			"count":600,
			"type":"VEC3"
		},
		{
			"bufferView":2,
			"componentType":5123,
			"count":948,
			"type":"SCALAR"
		},
		{
			"bufferView":3,
			"componentType":5126,
			"count":71,
			"max":[
				0.3525528311729431,
				0.8704941272735596,
				0.36473599076271057
			],
			"min":[
				-0.3525528311729431,
				0.7147892713546753,
				-0.3677477538585663
			],
			"type":"VEC3"
		},
		{
			"bufferView":4,
			"componentType":5126,
			"count":71,
			"type":"VEC3"
		},
		{
			"bufferView":5,
			"componentType":5123,
			"count":336,
			"type":"SCALAR"
		}
	],
	"bufferViews":[
		{
			"buffer":0,
			"byteLength":7200,
			"byteOffset":0,
			"target":34962
		},
		{
			"buffer":0,
			"byteLength":7200,
			"byteOffset":7200,
			"target":34962
		},
		{
			"buffer":0,
			"byteLength":1896,
			"byteOffset":14400,
			"target":34963
		},
		{
			"buffer":0,
			"byteLength":852,
			"byteOffset":16296,
			"target":34962
		},
		{
			"buffer":0,
			"byteLength":852,
			"byteOffset":17148,
			"target":34962
		},
		{
			"buffer":0,
			"byteLength":672,
			"byteOffset":18000,
			"target":34963
		}
	],
	"buffers":[
		{
			"byteLength":18672,
			"uri":"Chair_3-9883f060a62dc6a091aad43a3da76832.bin"
		}
	]
}
