{
	"asset":{
		"generator":"Khronos glTF Blender I/O v4.4.55",
		"version":"2.0"
	},
	"scene":0,
	"scenes":[
		{
			"name":"Scene",
			"nodes":[
				0
			]
		}
	],
	"nodes":[
		{
			"mesh":0,
			"name":"Cushioned Chair"
		}
	],
	"materials":[
		{
			"doubleSided":true,
			"name":"DarkWood.011"
		},
		{
			"doubleSided":true,
			"name":"Wood.013"
		},
		{
			"doubleSided":true,
			"name":"Red"
		}
	],
	"meshes":[
		{
			"name":"Cube.009",
			"primitives":[
				{
					"attributes":{
						"POSITION":0,
						"NORMAL":1
					},
					"indices":2,
					"material":0
				},
				{
					"attributes":{
						"POSITION":3,
						"NORMAL":4
					},
					"indices":5,
					"material":1
				},
				{
					"attributes":{
						"POSITION":6,
						"NORMAL":7
					},
					"indices":8,
					"material":2
				}
			]
		}
	],
	"accessors":[
		{
			"bufferView":0,
			"componentType":5126,
			"count":156,
			"max":[
				0.1968221515417099,
				0.31872624158859253,
				0.19237779080867767
			],
			"min":[
				-0.1968221515417099,
				-0.005166157614439726,
				-0.19237779080867767
			],
			"type":"VEC3"
		},
		{
			"bufferView":1,
			"componentType":5126,
			"count":156,
			"type":"VEC3"
		},
		{
			"bufferView":2,
			"componentType":5123,
			"count":288,
			"type":"SCALAR"
		},
		{
			"bufferView":3,
			"componentType":5126,
			"count":123,
			"max":[
				0.21894480288028717,
				1.0486533641815186,
				0.21630297601222992
			],
			"min":[
				-0.21894480288028717,
				0.31872624158859253,
				-0.21630297601222992
			],
			"type":"VEC3"
		},
		{
			"bufferView":4,
			"componentType":5126,
			"count":123,
			"type":"VEC3"
		},
		{
			"bufferView":5,
			"componentType":5123,
			"count":306,
			"type":"SCALAR"
		},
		{
			"bufferView":6,
			"componentType":5126,
			"count":95,
			"max":[
				0.18577340245246887,
				0.9955424070358276,
				0.1854991614818573
			],
			"min":[
				-0.1585114598274231,
				0.3752736449241638,
				-0.1854991614818573
			],
			"type":"VEC3"
		},
		{
			"bufferView":7,
			"componentType":5126,
			"count":95,
			"type":"VEC3"
		},
		{
			"bufferView":8,
			"componentType":5123,
			"count":174,
			"type":"SCALAR"
		}
	],
	"bufferViews":[
		{
			"buffer":0,
			"byteLength":1872,
			"byteOffset":0,
			"target":34962
		},
		{
			"buffer":0,
			"byteLength":1872,
			"byteOffset":1872,
			"target":34962
		},
		{
			"buffer":0,
			"byteLength":576,
			"byteOffset":3744,
			"target":34963
		},
		{
			"buffer":0,
			"byteLength":1476,
			"byteOffset":4320,
			"target":34962
		},
		{
			"buffer":0,
			"byteLength":1476,
			"byteOffset":5796,
			"target":34962
		},
		{
			"buffer":0,
			"byteLength":612,
			"byteOffset":7272,
			"target":34963
		},
		{
			"buffer":0,
			"byteLength":1140,
			"byteOffset":7884,
			"target":34962
		},
		{
			"buffer":0,
			"byteLength":1140,
			"byteOffset":9024,
			"target":34962
		},
		{
			"buffer":0,
			"byteLength":348,
			"byteOffset":10164,
			"target":34963
		}
	],
	"buffers":[
		{
			"byteLength":10512,
			"uri":"ChairCushioned-9b3306b4f44ef915ab76bb5d09b21949.bin"
		}
	]
}
