{
	"asset":{
		"generator":"Khronos glTF Blender I/O v4.4.55",
		"version":"2.0"
	},
	"scene":0,
	"scenes":[
		{
			"name":"Scene",
			"nodes":[
				0
			]
		}
	],
	"nodes":[
		{
			"mesh":0,
			"name":"Chair"
		}
	],
	"materials":[
		{
			"doubleSided":true,
			"name":"DarkWood.009"
		},
		{
			"doubleSided":true,
			"name":"Wood.011"
		}
	],
	"meshes":[
		{
			"name":"Cube.016",
			"primitives":[
				{
					"attributes":{
						"POSITION":0,
						"NORMAL":1
					},
					"indices":2,
					"material":0
				},
				{
					"attributes":{
						"POSITION":3,
						"NORMAL":4
					},
					"indices":5,
					"material":1
				}
			]
		}
	],
	"accessors":[
		{
			"bufferView":0,
			"componentType":5126,
			"count":156,
			"max":[
				0.1968221515417099,
				0.31872624158859253,
				0.19237779080867767
			],
			"min":[
				-0.1968221515417099,
				-0.005166157614439726,
				-0.19237779080867767
			],
			"type":"VEC3"
		},
		{
			"bufferView":1,
			"componentType":5126,
			"count":156,
			"type":"VEC3"
		},
		{
			"bufferView":2,
			"componentType":5123,
			"count":288,
			"type":"SCALAR"
		},
		{
			"bufferView":3,
			"componentType":5126,
			"count":142,
			"max":[
				0.21894480288028717,
				0.9860897064208984,
				0.21630297601222992
			],
			"min":[
				-0.21894480288028717,
				0.31872624158859253,
				-0.21630297601222992
			],
			"type":"VEC3"
		},
		{
			"bufferView":4,
			"componentType":5126,
			"count":142,
			"type":"VEC3"
		},
		{
			"bufferView":5,
			"componentType":5123,
			"count":360,
			"type":"SCALAR"
		}
	],
	"bufferViews":[
		{
			"buffer":0,
			"byteLength":1872,
			"byteOffset":0,
			"target":34962
		},
		{
			"buffer":0,
			"byteLength":1872,
			"byteOffset":1872,
			"target":34962
		},
		{
			"buffer":0,
			"byteLength":576,
			"byteOffset":3744,
			"target":34963
		},
		{
			"buffer":0,
			"byteLength":1704,
			"byteOffset":4320,
			"target":34962
		},
		{
			"buffer":0,
			"byteLength":1704,
			"byteOffset":6024,
			"target":34962
		},
		{
			"buffer":0,
			"byteLength":720,
			"byteOffset":7728,
			"target":34963
		}
	],
	"buffers":[
		{
			"byteLength":8448,
			"uri":"Chair-458d198e5552c8a433aaeebc486d6787.bin"
		}
	]
}
