{
	"asset":{
		"generator":"Khronos glTF Blender I/O v4.4.55",
		"version":"2.0"
	},
	"scene":0,
	"scenes":[
		{
			"name":"Scene",
			"nodes":[
				0
			]
		}
	],
	"nodes":[
		{
			"mesh":0,
			"name":"Closet2"
		}
	],
	"materials":[
		{
			"doubleSided":true,
			"name":"DarkWood.001"
		},
		{
			"doubleSided":true,
			"name":"Wood.003"
		}
	],
	"meshes":[
		{
			"name":"Cube.003",
			"primitives":[
				{
					"attributes":{
						"POSITION":0,
						"NORMAL":1
					},
					"indices":2,
					"material":0
				},
				{
					"attributes":{
						"POSITION":3,
						"NORMAL":4
					},
					"indices":5,
					"material":1
				}
			]
		}
	],
	"accessors":[
		{
			"bufferView":0,
			"componentType":5126,
			"count":316,
			"max":[
				0.248616561293602,
				0.9401704668998718,
				0.32733216881752014
			],
			"min":[
				-0.20503298938274384,
				-0.004362395964562893,
				-0.32733216881752014
			],
			"type":"VEC3"
		},
		{
			"bufferView":1,
			"componentType":5126,
			"count":316,
			"type":"VEC3"
		},
		{
			"bufferView":2,
			"componentType":5123,
			"count":642,
			"type":"SCALAR"
		},
		{
			"bufferView":3,
			"componentType":5126,
			"count":434,
			"max":[
				0.2344750463962555,
				0.9914712905883789,
				0.3447640538215637
			],
			"min":[
				-0.2268708348274231,
				0.11293750256299973,
				-0.3447640538215637
			],
			"type":"VEC3"
		},
		{
			"bufferView":4,
			"componentType":5126,
			"count":434,
			"type":"VEC3"
		},
		{
			"bufferView":5,
			"componentType":5123,
			"count":906,
			"type":"SCALAR"
		}
	],
	"bufferViews":[
		{
			"buffer":0,
			"byteLength":3792,
			"byteOffset":0,
			"target":34962
		},
		{
			"buffer":0,
			"byteLength":3792,
			"byteOffset":3792,
			"target":34962
		},
		{
			"buffer":0,
			"byteLength":1284,
			"byteOffset":7584,
			"target":34963
		},
		{
			"buffer":0,
			"byteLength":5208,
			"byteOffset":8868,
			"target":34962
		},
		{
			"buffer":0,
			"byteLength":5208,
			"byteOffset":14076,
			"target":34962
		},
		{
			"buffer":0,
			"byteLength":1812,
			"byteOffset":19284,
			"target":34963
		}
	],
	"buffers":[
		{
			"byteLength":21096,
			"uri":"Closet2-5443312cd3a3ea4534a5fa24dd616d65.bin"
		}
	]
}
