{
	"asset":{
		"generator":"Khronos glTF Blender I/O v4.4.55",
		"version":"2.0"
	},
	"scene":0,
	"scenes":[
		{
			"name":"Scene",
			"nodes":[
				0
			]
		}
	],
	"nodes":[
		{
			"mesh":0,
			"name":"Closet1"
		}
	],
	"materials":[
		{
			"doubleSided":true,
			"name":"Wood.002"
		},
		{
			"doubleSided":true,
			"name":"DarkWood"
		}
	],
	"meshes":[
		{
			"name":"Cube",
			"primitives":[
				{
					"attributes":{
						"POSITION":0,
						"NORMAL":1
					},
					"indices":2,
					"material":0
				},
				{
					"attributes":{
						"POSITION":3,
						"NORMAL":4
					},
					"indices":5,
					"material":1
				}
			]
		}
	],
	"accessors":[
		{
			"bufferView":0,
			"componentType":5126,
			"count":86,
			"max":[
				0.18681469559669495,
				1.4265092611312866,
				0.2775632441043854
			],
			"min":[
				0.13727886974811554,
				0.1701052337884903,
				-0.2775632441043854
			],
			"type":"VEC3"
		},
		{
			"bufferView":1,
			"componentType":5126,
			"count":86,
			"type":"VEC3"
		},
		{
			"bufferView":2,
			"componentType":5123,
			"count":150,
			"type":"SCALAR"
		},
		{
			"bufferView":3,
			"componentType":5126,
			"count":283,
			"max":[
				0.19158951938152313,
				1.4746209383010864,
				0.33023327589035034
			],
			"min":[
				-0.16167497634887695,
				-0.007505801506340504,
				-0.33023327589035034
			],
			"type":"VEC3"
		},
		{
			"bufferView":4,
			"componentType":5126,
			"count":283,
			"type":"VEC3"
		},
		{
			"bufferView":5,
			"componentType":5123,
			"count":474,
			"type":"SCALAR"
		}
	],
	"bufferViews":[
		{
			"buffer":0,
			"byteLength":1032,
			"byteOffset":0,
			"target":34962
		},
		{
			"buffer":0,
			"byteLength":1032,
			"byteOffset":1032,
			"target":34962
		},
		{
			"buffer":0,
			"byteLength":300,
			"byteOffset":2064,
			"target":34963
		},
		{
			"buffer":0,
			"byteLength":3396,
			"byteOffset":2364,
			"target":34962
		},
		{
			"buffer":0,
			"byteLength":3396,
			"byteOffset":5760,
			"target":34962
		},
		{
			"buffer":0,
			"byteLength":948,
			"byteOffset":9156,
			"target":34963
		}
	],
	"buffers":[
		{
			"byteLength":10104,
			"uri":"Closet-a5f742242b2dd080249731a892a654a6.bin"
		}
	]
}
