{
	"asset":{
		"generator":"Khronos glTF Blender I/O v4.4.55",
		"version":"2.0"
	},
	"scene":0,
	"scenes":[
		{
			"name":"Scene",
			"nodes":[
				0
			]
		}
	],
	"nodes":[
		{
			"mesh":0,
			"name":"Coffee Table 2",
			"translation":[
				1.1205496788024902,
				0.09819380939006805,
				-1.7250990867614746
			]
		}
	],
	"materials":[
		{
			"doubleSided":true,
			"name":"DarkWood.006"
		},
		{
			"doubleSided":true,
			"name":"Wood.008"
		}
	],
	"meshes":[
		{
			"name":"Cube.013",
			"primitives":[
				{
					"attributes":{
						"POSITION":0,
						"NORMAL":1
					},
					"indices":2,
					"material":0
				},
				{
					"attributes":{
						"POSITION":3,
						"NORMAL":4
					},
					"indices":5,
					"material":1
				}
			]
		}
	],
	"accessors":[
		{
			"bufferView":0,
			"componentType":5126,
			"count":216,
			"max":[
				0.2650964856147766,
				0.219314843416214,
				0.4769822359085083
			],
			"min":[
				-0.2650964856147766,
				-0.05958322063088417,
				-0.4769822359085083
			],
			"type":"VEC3"
		},
		{
			"bufferView":1,
			"componentType":5126,
			"count":216,
			"type":"VEC3"
		},
		{
			"bufferView":2,
			"componentType":5123,
			"count":432,
			"type":"SCALAR"
		},
		{
			"bufferView":3,
			"componentType":5126,
			"count":58,
			"max":[
				0.29442736506462097,
				0.2758622169494629,
				0.5081156492233276
			],
			"min":[
				-0.29442736506462097,
				0.219314843416214,
				-0.5081156492233276
			],
			"type":"VEC3"
		},
		{
			"bufferView":4,
			"componentType":5126,
			"count":58,
			"type":"VEC3"
		},
		{
			"bufferView":5,
			"componentType":5123,
			"count":144,
			"type":"SCALAR"
		}
	],
	"bufferViews":[
		{
			"buffer":0,
			"byteLength":2592,
			"byteOffset":0,
			"target":34962
		},
		{
			"buffer":0,
			"byteLength":2592,
			"byteOffset":2592,
			"target":34962
		},
		{
			"buffer":0,
			"byteLength":864,
			"byteOffset":5184,
			"target":34963
		},
		{
			"buffer":0,
			"byteLength":696,
			"byteOffset":6048,
			"target":34962
		},
		{
			"buffer":0,
			"byteLength":696,
			"byteOffset":6744,
			"target":34962
		},
		{
			"buffer":0,
			"byteLength":288,
			"byteOffset":7440,
			"target":34963
		}
	],
	"buffers":[
		{
			"byteLength":7728,
			"uri":"Coffee%20Table%202-a7770b1fea8564363908b061ba80128b.bin"
		}
	]
}
