{
	"asset":{
		"generator":"Khronos glTF Blender I/O v4.4.55",
		"version":"2.0"
	},
	"scene":0,
	"scenes":[
		{
			"name":"Scene",
			"nodes":[
				0
			]
		}
	],
	"nodes":[
		{
			"mesh":0,
			"name":"Coffee Table"
		}
	],
	"materials":[
		{
			"doubleSided":true,
			"name":"DarkWood.007"
		},
		{
			"doubleSided":true,
			"name":"Wood.009"
		}
	],
	"meshes":[
		{
			"name":"Cube.006",
			"primitives":[
				{
					"attributes":{
						"POSITION":0,
						"NORMAL":1
					},
					"indices":2,
					"material":0
				},
				{
					"attributes":{
						"POSITION":3,
						"NORMAL":4
					},
					"indices":5,
					"material":1
				}
			]
		}
	],
	"accessors":[
		{
			"bufferView":0,
			"componentType":5126,
			"count":156,
			"max":[
				0.2723047137260437,
				0.219314843416214,
				0.4841904640197754
			],
			"min":[
				-0.2723047137260437,
				-0.00430904608219862,
				-0.4841904640197754
			],
			"type":"VEC3"
		},
		{
			"bufferView":1,
			"componentType":5126,
			"count":156,
			"type":"VEC3"
		},
		{
			"bufferView":2,
			"componentType":5123,
			"count":288,
			"type":"SCALAR"
		},
		{
			"bufferView":3,
			"componentType":5126,
			"count":58,
			"max":[
				0.29442736506462097,
				0.2758622169494629,
				0.5081156492233276
			],
			"min":[
				-0.29442736506462097,
				0.219314843416214,
				-0.5081156492233276
			],
			"type":"VEC3"
		},
		{
			"bufferView":4,
			"componentType":5126,
			"count":58,
			"type":"VEC3"
		},
		{
			"bufferView":5,
			"componentType":5123,
			"count":144,
			"type":"SCALAR"
		}
	],
	"bufferViews":[
		{
			"buffer":0,
			"byteLength":1872,
			"byteOffset":0,
			"target":34962
		},
		{
			"buffer":0,
			"byteLength":1872,
			"byteOffset":1872,
			"target":34962
		},
		{
			"buffer":0,
			"byteLength":576,
			"byteOffset":3744,
			"target":34963
		},
		{
			"buffer":0,
			"byteLength":696,
			"byteOffset":4320,
			"target":34962
		},
		{
			"buffer":0,
			"byteLength":696,
			"byteOffset":5016,
			"target":34962
		},
		{
			"buffer":0,
			"byteLength":288,
			"byteOffset":5712,
			"target":34963
		}
	],
	"buffers":[
		{
			"byteLength":6000,
			"uri":"CoffeeTable-abd4daa68cd10d922dde57021ad147c8.bin"
		}
	]
}
