{
	"asset":{
		"generator":"Khronos glTF Blender I/O v4.4.55",
		"version":"2.0"
	},
	"scene":0,
	"scenes":[
		{
			"name":"Scene",
			"nodes":[
				0
			]
		}
	],
	"nodes":[
		{
			"mesh":0,
			"name":"Column_Round2"
		}
	],
	"materials":[
		{
			"doubleSided":true,
			"name":"Marble",
			"pbrMetallicRoughness":{
				"baseColorFactor":[
					0.44797539710998535,
					0.4112987816333771,
					0.31204676628112793,
					1
				],
				"metallicFactor":0,
				"roughnessFactor":0.5
			}
		}
	],
	"meshes":[
		{
			"name":"Cylinder.058",
			"primitives":[
				{
					"attributes":{
						"POSITION":0,
						"NORMAL":1
					},
					"indices":2,
					"material":0
				}
			]
		}
	],
	"accessors":[
		{
			"bufferView":0,
			"componentType":5126,
			"count":440,
			"max":[
				0.7000192403793335,
				4.000646114349365,
				0.7360422015190125
			],
			"min":[
				-0.7000159025192261,
				0,
				-0.7360420823097229
			],
			"type":"VEC3"
		},
		{
			"bufferView":1,
			"componentType":5126,
			"count":440,
			"type":"VEC3"
		},
		{
			"bufferView":2,
			"componentType":5123,
			"count":1668,
			"type":"SCALAR"
		}
	],
	"bufferViews":[
		{
			"buffer":0,
			"byteLength":5280,
			"byteOffset":0,
			"target":34962
		},
		{
			"buffer":0,
			"byteLength":5280,
			"byteOffset":5280,
			"target":34962
		},
		{
			"buffer":0,
			"byteLength":3336,
			"byteOffset":10560,
			"target":34963
		}
	],
	"buffers":[
		{
			"byteLength":13896,
			"uri":"Column_Round2-584e492c44ec8962561a5852eb032acb.bin"
		}
	]
}
