{
	"asset":{
		"generator":"Khronos glTF Blender I/O v4.4.55",
		"version":"2.0"
	},
	"scene":0,
	"scenes":[
		{
			"name":"Scene",
			"nodes":[
				0
			]
		}
	],
	"nodes":[
		{
			"mesh":0,
			"name":"Couch_Small1"
		}
	],
	"materials":[
		{
			"doubleSided":true,
			"name":"Couch_Blue",
			"pbrMetallicRoughness":{
				"baseColorFactor":[
					0.03935335949063301,
					0.07543732225894928,
					0.11926928907632828,
					1
				],
				"metallicFactor":0,
				"roughnessFactor":0.5
			}
		},
		{
			"doubleSided":true,
			"name":"Black",
			"pbrMetallicRoughness":{
				"baseColorFactor":[
					0.03521668538451195,
					0.03521668538451195,
					0.03521668538451195,
					1
				],
				"metallicFactor":0,
				"roughnessFactor":0.5
			}
		}
	],
	"meshes":[
		{
			"name":"Couch_1",
			"primitives":[
				{
					"attributes":{
						"POSITION":0,
						"NORMAL":1
					},
					"indices":2,
					"material":0
				},
				{
					"attributes":{
						"POSITION":3,
						"NORMAL":4
					},
					"indices":5,
					"material":1
				}
			]
		}
	],
	"accessors":[
		{
			"bufferView":0,
			"componentType":5126,
			"count":302,
			"max":[
				1.442734956741333,
				1.8969298601150513,
				1.0199706554412842
			],
			"min":[
				-1.4427354335784912,
				0.4793502688407898,
				-1.1834909915924072
			],
			"type":"VEC3"
		},
		{
			"bufferView":1,
			"componentType":5126,
			"count":302,
			"type":"VEC3"
		},
		{
			"bufferView":2,
			"componentType":5123,
			"count":1692,
			"type":"SCALAR"
		},
		{
			"bufferView":3,
			"componentType":5126,
			"count":164,
			"max":[
				1.2376753091812134,
				0.6516722440719604,
				0.9324404001235962
			],
			"min":[
				-1.2376757860183716,
				-0.013098924420773983,
				-0.9324417114257812
			],
			"type":"VEC3"
		},
		{
			"bufferView":4,
			"componentType":5126,
			"count":164,
			"type":"VEC3"
		},
		{
			"bufferView":5,
			"componentType":5123,
			"count":864,
			"type":"SCALAR"
		}
	],
	"bufferViews":[
		{
			"buffer":0,
			"byteLength":3624,
			"byteOffset":0,
			"target":34962
		},
		{
			"buffer":0,
			"byteLength":3624,
			"byteOffset":3624,
			"target":34962
		},
		{
			"buffer":0,
			"byteLength":3384,
			"byteOffset":7248,
			"target":34963
		},
		{
			"buffer":0,
			"byteLength":1968,
			"byteOffset":10632,
			"target":34962
		},
		{
			"buffer":0,
			"byteLength":1968,
			"byteOffset":12600,
			"target":34962
		},
		{
			"buffer":0,
			"byteLength":1728,
			"byteOffset":14568,
			"target":34963
		}
	],
	"buffers":[
		{
			"byteLength":16296,
			"uri":"Couch_Small1-66b22763fc5d63a49f8dcad94c0fa725.bin"
		}
	]
}
