{
	"asset":{
		"generator":"Khronos glTF Blender I/O v4.4.55",
		"version":"2.0"
	},
	"scene":0,
	"scenes":[
		{
			"name":"Scene",
			"nodes":[
				0
			]
		}
	],
	"nodes":[
		{
			"mesh":0,
			"name":"Couch_Small2"
		}
	],
	"materials":[
		{
			"doubleSided":true,
			"name":"Couch_BeigeDark",
			"pbrMetallicRoughness":{
				"baseColorFactor":[
					0.09850230067968369,
					0.08672458678483963,
					0.07935652881860733,
					1
				],
				"metallicFactor":0,
				"roughnessFactor":0.5
			}
		},
		{
			"doubleSided":true,
			"name":"Couch_Beige",
			"pbrMetallicRoughness":{
				"baseColorFactor":[
					0.15743067860603333,
					0.13735057413578033,
					0.12550655007362366,
					1
				],
				"metallicFactor":0,
				"roughnessFactor":0.5
			}
		}
	],
	"meshes":[
		{
			"name":"Cube.026",
			"primitives":[
				{
					"attributes":{
						"POSITION":0,
						"NORMAL":1
					},
					"indices":2,
					"material":0
				},
				{
					"attributes":{
						"POSITION":3,
						"NORMAL":4
					},
					"indices":5,
					"material":1
				}
			]
		}
	],
	"accessors":[
		{
			"bufferView":0,
			"componentType":5126,
			"count":261,
			"max":[
				1.056824803352356,
				1.2691142559051514,
				1.3171378374099731
			],
			"min":[
				-1.056824803352356,
				-1.8366156595561733e-08,
				-0.6751505732536316
			],
			"type":"VEC3"
		},
		{
			"bufferView":1,
			"componentType":5126,
			"count":261,
			"type":"VEC3"
		},
		{
			"bufferView":2,
			"componentType":5123,
			"count":924,
			"type":"SCALAR"
		},
		{
			"bufferView":3,
			"componentType":5126,
			"count":130,
			"max":[
				0.7633183598518372,
				0.9429556727409363,
				1.21002995967865
			],
			"min":[
				-0.706778347492218,
				0.37260571122169495,
				-0.3214111924171448
			],
			"type":"VEC3"
		},
		{
			"bufferView":4,
			"componentType":5126,
			"count":130,
			"type":"VEC3"
		},
		{
			"bufferView":5,
			"componentType":5123,
			"count":480,
			"type":"SCALAR"
		}
	],
	"bufferViews":[
		{
			"buffer":0,
			"byteLength":3132,
			"byteOffset":0,
			"target":34962
		},
		{
			"buffer":0,
			"byteLength":3132,
			"byteOffset":3132,
			"target":34962
		},
		{
			"buffer":0,
			"byteLength":1848,
			"byteOffset":6264,
			"target":34963
		},
		{
			"buffer":0,
			"byteLength":1560,
			"byteOffset":8112,
			"target":34962
		},
		{
			"buffer":0,
			"byteLength":1560,
			"byteOffset":9672,
			"target":34962
		},
		{
			"buffer":0,
			"byteLength":960,
			"byteOffset":11232,
			"target":34963
		}
	],
	"buffers":[
		{
			"byteLength":12192,
			"uri":"Couch_Small2-2447829794327be707c0fb54e8331b37.bin"
		}
	]
}
