{
	"asset":{
		"generator":"Khronos glTF Blender I/O v4.4.55",
		"version":"2.0"
	},
	"scene":0,
	"scenes":[
		{
			"name":"Scene",
			"nodes":[
				0
			]
		}
	],
	"nodes":[
		{
			"mesh":0,
			"name":"Couch_Large3"
		}
	],
	"materials":[
		{
			"doubleSided":true,
			"name":"Couch_Green",
			"pbrMetallicRoughness":{
				"baseColorFactor":[
					0.04767613857984543,
					0.060718096792697906,
					0.03200801834464073,
					1
				],
				"metallicFactor":0,
				"roughnessFactor":0.5
			}
		}
	],
	"meshes":[
		{
			"name":"Cube.036",
			"primitives":[
				{
					"attributes":{
						"POSITION":0,
						"NORMAL":1
					},
					"indices":2,
					"material":0
				}
			]
		}
	],
	"accessors":[
		{
			"bufferView":0,
			"componentType":5126,
			"count":1086,
			"max":[
				3.562223196029663,
				1.0737804174423218,
				1.6900254487991333
			],
			"min":[
				-3.522937059402466,
				-0.014553382992744446,
				-1.331480622291565
			],
			"type":"VEC3"
		},
		{
			"bufferView":1,
			"componentType":5126,
			"count":1086,
			"type":"VEC3"
		},
		{
			"bufferView":2,
			"componentType":5123,
			"count":3900,
			"type":"SCALAR"
		}
	],
	"bufferViews":[
		{
			"buffer":0,
			"byteLength":13032,
			"byteOffset":0,
			"target":34962
		},
		{
			"buffer":0,
			"byteLength":13032,
			"byteOffset":13032,
			"target":34962
		},
		{
			"buffer":0,
			"byteLength":7800,
			"byteOffset":26064,
			"target":34963
		}
	],
	"buffers":[
		{
			"byteLength":33864,
			"uri":"Couch_Large3-85bccc6d1bdaf0c60d10480fe2eca7a0.bin"
		}
	]
}
