{
	"asset":{
		"generator":"Khronos glTF Blender I/O v4.4.55",
		"version":"2.0"
	},
	"scene":0,
	"scenes":[
		{
			"name":"Scene",
			"nodes":[
				0
			]
		}
	],
	"nodes":[
		{
			"mesh":0,
			"name":"Couch_Large1"
		}
	],
	"materials":[
		{
			"doubleSided":true,
			"name":"DarkRed",
			"pbrMetallicRoughness":{
				"baseColorFactor":[
					0.10247109830379486,
					0.034876663237810135,
					0.02316785603761673,
					1
				],
				"metallicFactor":0,
				"roughnessFactor":0.5
			}
		},
		{
			"doubleSided":true,
			"name":"Red",
			"pbrMetallicRoughness":{
				"baseColorFactor":[
					0.15743045508861542,
					0.05174337327480316,
					0.033754151314496994,
					1
				],
				"metallicFactor":0,
				"roughnessFactor":0.5
			}
		}
	],
	"meshes":[
		{
			"name":"Cube.030",
			"primitives":[
				{
					"attributes":{
						"POSITION":0,
						"NORMAL":1
					},
					"indices":2,
					"material":0
				},
				{
					"attributes":{
						"POSITION":3,
						"NORMAL":4
					},
					"indices":5,
					"material":1
				}
			]
		}
	],
	"accessors":[
		{
			"bufferView":0,
			"componentType":5126,
			"count":252,
			"max":[
				2.7377469539642334,
				1.514849305152893,
				1.3171361684799194
			],
			"min":[
				-2.7377450466156006,
				7.346462638224693e-08,
				-0.6751523613929749
			],
			"type":"VEC3"
		},
		{
			"bufferView":1,
			"componentType":5126,
			"count":252,
			"type":"VEC3"
		},
		{
			"bufferView":2,
			"componentType":5123,
			"count":1500,
			"type":"SCALAR"
		},
		{
			"bufferView":3,
			"componentType":5126,
			"count":552,
			"max":[
				2.2448363304138184,
				2.1064400672912598,
				1.2224626541137695
			],
			"min":[
				-2.248256206512451,
				0.38884395360946655,
				-0.4583265781402588
			],
			"type":"VEC3"
		},
		{
			"bufferView":4,
			"componentType":5126,
			"count":552,
			"type":"VEC3"
		},
		{
			"bufferView":5,
			"componentType":5123,
			"count":2880,
			"type":"SCALAR"
		}
	],
	"bufferViews":[
		{
			"buffer":0,
			"byteLength":3024,
			"byteOffset":0,
			"target":34962
		},
		{
			"buffer":0,
			"byteLength":3024,
			"byteOffset":3024,
			"target":34962
		},
		{
			"buffer":0,
			"byteLength":3000,
			"byteOffset":6048,
			"target":34963
		},
		{
			"buffer":0,
			"byteLength":6624,
			"byteOffset":9048,
			"target":34962
		},
		{
			"buffer":0,
			"byteLength":6624,
			"byteOffset":15672,
			"target":34962
		},
		{
			"buffer":0,
			"byteLength":5760,
			"byteOffset":22296,
			"target":34963
		}
	],
	"buffers":[
		{
			"byteLength":28056,
			"uri":"Couch_Large1-23a1e04b1346aa27671d18d1c326ed1e.bin"
		}
	]
}
