{
	"asset":{
		"generator":"Khronos glTF Blender I/O v4.4.55",
		"version":"2.0"
	},
	"scene":0,
	"scenes":[
		{
			"name":"Scene",
			"nodes":[
				0
			]
		}
	],
	"nodes":[
		{
			"mesh":0,
			"name":"Couch_Medium1"
		}
	],
	"materials":[
		{
			"doubleSided":true,
			"name":"Couch_Blue",
			"pbrMetallicRoughness":{
				"baseColorFactor":[
					0.03935335949063301,
					0.07543732225894928,
					0.11926928907632828,
					1
				],
				"metallicFactor":0,
				"roughnessFactor":0.5
			}
		},
		{
			"doubleSided":true,
			"name":"Black",
			"pbrMetallicRoughness":{
				"baseColorFactor":[
					0.03521668538451195,
					0.03521668538451195,
					0.03521668538451195,
					1
				],
				"metallicFactor":0,
				"roughnessFactor":0.5
			}
		}
	],
	"meshes":[
		{
			"name":"Cube.024",
			"primitives":[
				{
					"attributes":{
						"POSITION":0,
						"NORMAL":1
					},
					"indices":2,
					"material":0
				},
				{
					"attributes":{
						"POSITION":3,
						"NORMAL":4
					},
					"indices":5,
					"material":1
				}
			]
		}
	],
	"accessors":[
		{
			"bufferView":0,
			"componentType":5126,
			"count":400,
			"max":[
				2.3440704345703125,
				1.8969298601150513,
				1.0199706554412842
			],
			"min":[
				-2.3440723419189453,
				0.479350209236145,
				-1.1834909915924072
			],
			"type":"VEC3"
		},
		{
			"bufferView":1,
			"componentType":5126,
			"count":400,
			"type":"VEC3"
		},
		{
			"bufferView":2,
			"componentType":5123,
			"count":2172,
			"type":"SCALAR"
		},
		{
			"bufferView":3,
			"componentType":5126,
			"count":188,
			"max":[
				2.1390106678009033,
				0.6516721844673157,
				0.9324404001235962
			],
			"min":[
				-2.139012575149536,
				-0.013098965398967266,
				-0.9324417114257812
			],
			"type":"VEC3"
		},
		{
			"bufferView":4,
			"componentType":5126,
			"count":188,
			"type":"VEC3"
		},
		{
			"bufferView":5,
			"componentType":5123,
			"count":864,
			"type":"SCALAR"
		}
	],
	"bufferViews":[
		{
			"buffer":0,
			"byteLength":4800,
			"byteOffset":0,
			"target":34962
		},
		{
			"buffer":0,
			"byteLength":4800,
			"byteOffset":4800,
			"target":34962
		},
		{
			"buffer":0,
			"byteLength":4344,
			"byteOffset":9600,
			"target":34963
		},
		{
			"buffer":0,
			"byteLength":2256,
			"byteOffset":13944,
			"target":34962
		},
		{
			"buffer":0,
			"byteLength":2256,
			"byteOffset":16200,
			"target":34962
		},
		{
			"buffer":0,
			"byteLength":1728,
			"byteOffset":18456,
			"target":34963
		}
	],
	"buffers":[
		{
			"byteLength":20184,
			"uri":"Couch_Medium1-2f9a110901d2949447ec228f6f89005b.bin"
		}
	]
}
