{
	"asset":{
		"generator":"Khronos glTF Blender I/O v4.4.55",
		"version":"2.0"
	},
	"scene":0,
	"scenes":[
		{
			"name":"Scene",
			"nodes":[
				0
			]
		}
	],
	"nodes":[
		{
			"mesh":0,
			"name":"Couch_L"
		}
	],
	"materials":[
		{
			"doubleSided":true,
			"name":"Couch_BeigeDark",
			"pbrMetallicRoughness":{
				"baseColorFactor":[
					0.09850230067968369,
					0.08672458678483963,
					0.07935652881860733,
					1
				],
				"metallicFactor":0,
				"roughnessFactor":0.5
			}
		},
		{
			"doubleSided":true,
			"name":"Couch_Beige",
			"pbrMetallicRoughness":{
				"baseColorFactor":[
					0.15743067860603333,
					0.13735057413578033,
					0.12550655007362366,
					1
				],
				"metallicFactor":0,
				"roughnessFactor":0.5
			}
		}
	],
	"meshes":[
		{
			"name":"Cube.028",
			"primitives":[
				{
					"attributes":{
						"POSITION":0,
						"NORMAL":1
					},
					"indices":2,
					"material":0
				},
				{
					"attributes":{
						"POSITION":3,
						"NORMAL":4
					},
					"indices":5,
					"material":1
				}
			]
		}
	],
	"accessors":[
		{
			"bufferView":0,
			"componentType":5126,
			"count":222,
			"max":[
				2.296006917953491,
				1.5547456741333008,
				2.9467613697052
			],
			"min":[
				-3.2992849349975586,
				-0.01545447576791048,
				-1.3802112340927124
			],
			"type":"VEC3"
		},
		{
			"bufferView":1,
			"componentType":5126,
			"count":222,
			"type":"VEC3"
		},
		{
			"bufferView":2,
			"componentType":5123,
			"count":1260,
			"type":"SCALAR"
		},
		{
			"bufferView":3,
			"componentType":5126,
			"count":589,
			"max":[
				2.315124273300171,
				2.2458691596984863,
				2.8531525135040283
			],
			"min":[
				-2.951688051223755,
				0.3861767053604126,
				-1.1627192497253418
			],
			"type":"VEC3"
		},
		{
			"bufferView":4,
			"componentType":5126,
			"count":589,
			"type":"VEC3"
		},
		{
			"bufferView":5,
			"componentType":5123,
			"count":3024,
			"type":"SCALAR"
		}
	],
	"bufferViews":[
		{
			"buffer":0,
			"byteLength":2664,
			"byteOffset":0,
			"target":34962
		},
		{
			"buffer":0,
			"byteLength":2664,
			"byteOffset":2664,
			"target":34962
		},
		{
			"buffer":0,
			"byteLength":2520,
			"byteOffset":5328,
			"target":34963
		},
		{
			"buffer":0,
			"byteLength":7068,
			"byteOffset":7848,
			"target":34962
		},
		{
			"buffer":0,
			"byteLength":7068,
			"byteOffset":14916,
			"target":34962
		},
		{
			"buffer":0,
			"byteLength":6048,
			"byteOffset":21984,
			"target":34963
		}
	],
	"buffers":[
		{
			"byteLength":28032,
			"uri":"Couch_L-a616de0ef22c86cab72b27111b532cc1.bin"
		}
	]
}
