{
	"asset":{
		"generator":"Khronos glTF Blender I/O v4.4.55",
		"version":"2.0"
	},
	"scene":0,
	"scenes":[
		{
			"name":"Scene",
			"nodes":[
				0
			]
		}
	],
	"nodes":[
		{
			"mesh":0,
			"name":"Couch_Medium2"
		}
	],
	"materials":[
		{
			"doubleSided":true,
			"name":"Couch_Mustard",
			"pbrMetallicRoughness":{
				"baseColorFactor":[
					0.1574295312166214,
					0.11244288831949234,
					0.04129568487405777,
					1
				],
				"metallicFactor":0,
				"roughnessFactor":0.5
			}
		},
		{
			"doubleSided":true,
			"name":"Wood",
			"pbrMetallicRoughness":{
				"baseColorFactor":[
					0.11443537473678589,
					0.08865559101104736,
					0.05612849444150925,
					1
				],
				"metallicFactor":0,
				"roughnessFactor":0.5
			}
		}
	],
	"meshes":[
		{
			"name":"Cube.047",
			"primitives":[
				{
					"attributes":{
						"POSITION":0,
						"NORMAL":1
					},
					"indices":2,
					"material":0
				},
				{
					"attributes":{
						"POSITION":3,
						"NORMAL":4
					},
					"indices":5,
					"material":1
				}
			]
		}
	],
	"accessors":[
		{
			"bufferView":0,
			"componentType":5126,
			"count":432,
			"max":[
				2.259331464767456,
				1.9593425989151,
				1.0538626909255981
			],
			"min":[
				-2.259331464767456,
				0.19058792293071747,
				-0.9456151127815247
			],
			"type":"VEC3"
		},
		{
			"bufferView":1,
			"componentType":5126,
			"count":432,
			"type":"VEC3"
		},
		{
			"bufferView":2,
			"componentType":5123,
			"count":2340,
			"type":"SCALAR"
		},
		{
			"bufferView":3,
			"componentType":5126,
			"count":216,
			"max":[
				2.214519739151001,
				1.210991621017456,
				0.9817551970481873
			],
			"min":[
				-2.214519739151001,
				1.059419787452498e-07,
				-0.8780744671821594
			],
			"type":"VEC3"
		},
		{
			"bufferView":4,
			"componentType":5126,
			"count":216,
			"type":"VEC3"
		},
		{
			"bufferView":5,
			"componentType":5123,
			"count":432,
			"type":"SCALAR"
		}
	],
	"bufferViews":[
		{
			"buffer":0,
			"byteLength":5184,
			"byteOffset":0,
			"target":34962
		},
		{
			"buffer":0,
			"byteLength":5184,
			"byteOffset":5184,
			"target":34962
		},
		{
			"buffer":0,
			"byteLength":4680,
			"byteOffset":10368,
			"target":34963
		},
		{
			"buffer":0,
			"byteLength":2592,
			"byteOffset":15048,
			"target":34962
		},
		{
			"buffer":0,
			"byteLength":2592,
			"byteOffset":17640,
			"target":34962
		},
		{
			"buffer":0,
			"byteLength":864,
			"byteOffset":20232,
			"target":34963
		}
	],
	"buffers":[
		{
			"byteLength":21096,
			"uri":"Couch_Medium2-126426848e8f9c735dce15cd923c0abb.bin"
		}
	]
}
