{
	"asset":{
		"generator":"Khronos glTF Blender I/O v4.4.55",
		"version":"2.0"
	},
	"scene":0,
	"scenes":[
		{
			"name":"Scene",
			"nodes":[
				0
			]
		}
	],
	"nodes":[
		{
			"mesh":0,
			"name":"Couch_Large2"
		}
	],
	"materials":[
		{
			"doubleSided":true,
			"name":"Couch_BeigeDark",
			"pbrMetallicRoughness":{
				"baseColorFactor":[
					0.09850230067968369,
					0.08672458678483963,
					0.07935652881860733,
					1
				],
				"metallicFactor":0,
				"roughnessFactor":0.5
			}
		},
		{
			"doubleSided":true,
			"name":"Couch_Beige",
			"pbrMetallicRoughness":{
				"baseColorFactor":[
					0.15743067860603333,
					0.13735057413578033,
					0.12550655007362366,
					1
				],
				"metallicFactor":0,
				"roughnessFactor":0.5
			}
		}
	],
	"meshes":[
		{
			"name":"Cube.022",
			"primitives":[
				{
					"attributes":{
						"POSITION":0,
						"NORMAL":1
					},
					"indices":2,
					"material":0
				},
				{
					"attributes":{
						"POSITION":3,
						"NORMAL":4
					},
					"indices":5,
					"material":1
				}
			]
		}
	],
	"accessors":[
		{
			"bufferView":0,
			"componentType":5126,
			"count":318,
			"max":[
				2.5954623222351074,
				1.4418004751205444,
				1.2254247665405273
			],
			"min":[
				-2.5954630374908447,
				-0.014922814443707466,
				-0.7668638229370117
			],
			"type":"VEC3"
		},
		{
			"bufferView":1,
			"componentType":5126,
			"count":318,
			"type":"VEC3"
		},
		{
			"bufferView":2,
			"componentType":5123,
			"count":1116,
			"type":"SCALAR"
		},
		{
			"bufferView":3,
			"componentType":5126,
			"count":780,
			"max":[
				2.266888380050659,
				2.093121290206909,
				1.1328306198120117
			],
			"min":[
				-2.2537806034088135,
				0.35768288373947144,
				-0.5651266574859619
			],
			"type":"VEC3"
		},
		{
			"bufferView":4,
			"componentType":5126,
			"count":780,
			"type":"VEC3"
		},
		{
			"bufferView":5,
			"componentType":5123,
			"count":2880,
			"type":"SCALAR"
		}
	],
	"bufferViews":[
		{
			"buffer":0,
			"byteLength":3816,
			"byteOffset":0,
			"target":34962
		},
		{
			"buffer":0,
			"byteLength":3816,
			"byteOffset":3816,
			"target":34962
		},
		{
			"buffer":0,
			"byteLength":2232,
			"byteOffset":7632,
			"target":34963
		},
		{
			"buffer":0,
			"byteLength":9360,
			"byteOffset":9864,
			"target":34962
		},
		{
			"buffer":0,
			"byteLength":9360,
			"byteOffset":19224,
			"target":34962
		},
		{
			"buffer":0,
			"byteLength":5760,
			"byteOffset":28584,
			"target":34963
		}
	],
	"buffers":[
		{
			"byteLength":34344,
			"uri":"Couch_Large2-d102c138bc93f99a137cbaeace3fe066.bin"
		}
	]
}
