{
	"asset":{
		"generator":"Khronos glTF Blender I/O v4.4.55",
		"version":"2.0"
	},
	"scene":0,
	"scenes":[
		{
			"name":"Scene",
			"nodes":[
				0
			]
		}
	],
	"nodes":[
		{
			"mesh":0,
			"name":"Curtains_Single"
		}
	],
	"materials":[
		{
			"doubleSided":true,
			"name":"LightMetal",
			"pbrMetallicRoughness":{
				"baseColorFactor":[
					0.1733521670103073,
					0.1733521670103073,
					0.1733521670103073,
					1
				],
				"metallicFactor":0,
				"roughnessFactor":0.5
			}
		},
		{
			"doubleSided":true,
			"name":"Couch_Blue",
			"pbrMetallicRoughness":{
				"baseColorFactor":[
					0.03935335949063301,
					0.07543732225894928,
					0.11926928907632828,
					1
				],
				"metallicFactor":0,
				"roughnessFactor":0.5
			}
		}
	],
	"meshes":[
		{
			"name":"Cylinder.031",
			"primitives":[
				{
					"attributes":{
						"POSITION":0,
						"NORMAL":1
					},
					"indices":2,
					"material":0
				},
				{
					"attributes":{
						"POSITION":3,
						"NORMAL":4
					},
					"indices":5,
					"material":1
				}
			]
		}
	],
	"accessors":[
		{
			"bufferView":0,
			"componentType":5126,
			"count":152,
			"max":[
				0.8555366396903992,
				4.243546009063721,
				-0.024997759610414505
			],
			"min":[
				-0.7764572501182556,
				4.176059246063232,
				-0.420770525932312
			],
			"type":"VEC3"
		},
		{
			"bufferView":1,
			"componentType":5126,
			"count":152,
			"type":"VEC3"
		},
		{
			"bufferView":2,
			"componentType":5123,
			"count":336,
			"type":"SCALAR"
		},
		{
			"bufferView":3,
			"componentType":5126,
			"count":96,
			"max":[
				0.6810428500175476,
				4.344479560852051,
				0.05570678412914276
			],
			"min":[
				-0.6810428500175476,
				-1.4994293451309204e-07,
				-0.1114136278629303
			],
			"type":"VEC3"
		},
		{
			"bufferView":4,
			"componentType":5126,
			"count":96,
			"type":"VEC3"
		},
		{
			"bufferView":5,
			"componentType":5123,
			"count":288,
			"type":"SCALAR"
		}
	],
	"bufferViews":[
		{
			"buffer":0,
			"byteLength":1824,
			"byteOffset":0,
			"target":34962
		},
		{
			"buffer":0,
			"byteLength":1824,
			"byteOffset":1824,
			"target":34962
		},
		{
			"buffer":0,
			"byteLength":672,
			"byteOffset":3648,
			"target":34963
		},
		{
			"buffer":0,
			"byteLength":1152,
			"byteOffset":4320,
			"target":34962
		},
		{
			"buffer":0,
			"byteLength":1152,
			"byteOffset":5472,
			"target":34962
		},
		{
			"buffer":0,
			"byteLength":576,
			"byteOffset":6624,
			"target":34963
		}
	],
	"buffers":[
		{
			"byteLength":7200,
			"uri":"Curtains_Single-6d107ddcb4efb06fa6e810c784b70ddb.bin"
		}
	]
}
