{
	"asset":{
		"generator":"Khronos glTF Blender I/O v4.4.55",
		"version":"2.0"
	},
	"scene":0,
	"scenes":[
		{
			"name":"Scene",
			"nodes":[
				0
			]
		}
	],
	"nodes":[
		{
			"mesh":0,
			"name":"Curtains_Double"
		}
	],
	"materials":[
		{
			"doubleSided":true,
			"name":"LightMetal",
			"pbrMetallicRoughness":{
				"baseColorFactor":[
					0.1733521670103073,
					0.1733521670103073,
					0.1733521670103073,
					1
				],
				"metallicFactor":0,
				"roughnessFactor":0.5
			}
		},
		{
			"doubleSided":true,
			"name":"Couch_Blue",
			"pbrMetallicRoughness":{
				"baseColorFactor":[
					0.03935335949063301,
					0.07543732225894928,
					0.11926928907632828,
					1
				],
				"metallicFactor":0,
				"roughnessFactor":0.5
			}
		}
	],
	"meshes":[
		{
			"name":"Cylinder.032",
			"primitives":[
				{
					"attributes":{
						"POSITION":0,
						"NORMAL":1
					},
					"indices":2,
					"material":0
				},
				{
					"attributes":{
						"POSITION":3,
						"NORMAL":4
					},
					"indices":5,
					"material":1
				}
			]
		}
	],
	"accessors":[
		{
			"bufferView":0,
			"componentType":5126,
			"count":168,
			"max":[
				1.7748364210128784,
				4.237689018249512,
				0.03374316915869713
			],
			"min":[
				-1.6939624547958374,
				4.170202255249023,
				-0.3620296120643616
			],
			"type":"VEC3"
		},
		{
			"bufferView":1,
			"componentType":5126,
			"count":168,
			"type":"VEC3"
		},
		{
			"bufferView":2,
			"componentType":5123,
			"count":384,
			"type":"SCALAR"
		},
		{
			"bufferView":3,
			"componentType":5126,
			"count":192,
			"max":[
				1.598548412322998,
				4.338622570037842,
				0.1144477128982544
			],
			"min":[
				-1.5985480546951294,
				-0.005857123993337154,
				-0.052672699093818665
			],
			"type":"VEC3"
		},
		{
			"bufferView":4,
			"componentType":5126,
			"count":192,
			"type":"VEC3"
		},
		{
			"bufferView":5,
			"componentType":5123,
			"count":576,
			"type":"SCALAR"
		}
	],
	"bufferViews":[
		{
			"buffer":0,
			"byteLength":2016,
			"byteOffset":0,
			"target":34962
		},
		{
			"buffer":0,
			"byteLength":2016,
			"byteOffset":2016,
			"target":34962
		},
		{
			"buffer":0,
			"byteLength":768,
			"byteOffset":4032,
			"target":34963
		},
		{
			"buffer":0,
			"byteLength":2304,
			"byteOffset":4800,
			"target":34962
		},
		{
			"buffer":0,
			"byteLength":2304,
			"byteOffset":7104,
			"target":34962
		},
		{
			"buffer":0,
			"byteLength":1152,
			"byteOffset":9408,
			"target":34963
		}
	],
	"buffers":[
		{
			"byteLength":10560,
			"uri":"Curtains_Double-25d7098d3cf6e38fab5ab5185090d961.bin"
		}
	]
}
