{
	"asset":{
		"generator":"Khronos glTF Blender I/O v4.4.55",
		"version":"2.0"
	},
	"scene":0,
	"scenes":[
		{
			"name":"Scene",
			"nodes":[
				0,
				1
			]
		}
	],
	"nodes":[
		{
			"mesh":0,
			"name":"Door_DoubleLeft",
			"translation":[
				-1.7428821325302124,
				0.0041654109954833984,
				0.0005347691476345062
			]
		},
		{
			"mesh":1,
			"name":"Door_DoubleRight",
			"translation":[
				1.7397257089614868,
				0.004165172576904297,
				0.000534888356924057
			]
		}
	],
	"materials":[
		{
			"doubleSided":true,
			"name":"Wood",
			"pbrMetallicRoughness":{
				"baseColorFactor":[
					0.11443537473678589,
					0.08865559101104736,
					0.05612849444150925,
					1
				],
				"metallicFactor":0,
				"roughnessFactor":0.5
			}
		},
		{
			"doubleSided":true,
			"name":"Gold",
			"pbrMetallicRoughness":{
				"baseColorFactor":[
					0.548847496509552,
					0.32919058203697205,
					0.10517245531082153,
					1
				],
				"metallicFactor":0,
				"roughnessFactor":0.5
			}
		}
	],
	"meshes":[
		{
			"name":"Cube.032",
			"primitives":[
				{
					"attributes":{
						"POSITION":0,
						"NORMAL":1
					},
					"indices":2,
					"material":0
				},
				{
					"attributes":{
						"POSITION":3,
						"NORMAL":4
					},
					"indices":5,
					"material":1
				}
			]
		},
		{
			"name":"Cube.003",
			"primitives":[
				{
					"attributes":{
						"POSITION":6,
						"NORMAL":7
					},
					"indices":8,
					"material":0
				},
				{
					"attributes":{
						"POSITION":9,
						"NORMAL":10
					},
					"indices":11,
					"material":1
				}
			]
		}
	],
	"accessors":[
		{
			"bufferView":0,
			"componentType":5126,
			"count":840,
			"max":[
				1.7357720136642456,
				4.187835693359375,
				0.12557175755500793
			],
			"min":[
				3.7905783756286837e-07,
				0,
				-0.12557175755500793
			],
			"type":"VEC3"
		},
		{
			"bufferView":1,
			"componentType":5126,
			"count":840,
			"type":"VEC3"
		},
		{
			"bufferView":2,
			"componentType":5123,
			"count":2244,
			"type":"SCALAR"
		},
		{
			"bufferView":3,
			"componentType":5126,
			"count":176,
			"max":[
				1.6577274799346924,
				2.0063836574554443,
				0.21489812433719635
			],
			"min":[
				1.5376367568969727,
				1.4638652801513672,
				-0.21489812433719635
			],
			"type":"VEC3"
		},
		{
			"bufferView":4,
			"componentType":5126,
			"count":176,
			"type":"VEC3"
		},
		{
			"bufferView":5,
			"componentType":5123,
			"count":336,
			"type":"SCALAR"
		},
		{
			"bufferView":6,
			"componentType":5126,
			"count":840,
			"max":[
				5.746164788433816e-07,
				4.187836170196533,
				0.12557163834571838
			],
			"min":[
				-1.7357710599899292,
				2.384185791015625e-07,
				-0.12557187676429749
			],
			"type":"VEC3"
		},
		{
			"bufferView":7,
			"componentType":5126,
			"count":840,
			"type":"VEC3"
		},
		{
			"bufferView":8,
			"componentType":5123,
			"count":2244,
			"type":"SCALAR"
		},
		{
			"bufferView":9,
			"componentType":5126,
			"count":176,
			"max":[
				-1.5376358032226562,
				2.0063838958740234,
				0.2148980051279068
			],
			"min":[
				-1.657726526260376,
				1.4638655185699463,
				-0.2148982435464859
			],
			"type":"VEC3"
		},
		{
			"bufferView":10,
			"componentType":5126,
			"count":176,
			"type":"VEC3"
		},
		{
			"bufferView":11,
			"componentType":5123,
			"count":336,
			"type":"SCALAR"
		}
	],
	"bufferViews":[
		{
			"buffer":0,
			"byteLength":10080,
			"byteOffset":0,
			"target":34962
		},
		{
			"buffer":0,
			"byteLength":10080,
			"byteOffset":10080,
			"target":34962
		},
		{
			"buffer":0,
			"byteLength":4488,
			"byteOffset":20160,
			"target":34963
		},
		{
			"buffer":0,
			"byteLength":2112,
			"byteOffset":24648,
			"target":34962
		},
		{
			"buffer":0,
			"byteLength":2112,
			"byteOffset":26760,
			"target":34962
		},
		{
			"buffer":0,
			"byteLength":672,
			"byteOffset":28872,
			"target":34963
		},
		{
			"buffer":0,
			"byteLength":10080,
			"byteOffset":29544,
			"target":34962
		},
		{
			"buffer":0,
			"byteLength":10080,
			"byteOffset":39624,
			"target":34962
		},
		{
			"buffer":0,
			"byteLength":4488,
			"byteOffset":49704,
			"target":34963
		},
		{
			"buffer":0,
			"byteLength":2112,
			"byteOffset":54192,
			"target":34962
		},
		{
			"buffer":0,
			"byteLength":2112,
			"byteOffset":56304,
			"target":34962
		},
		{
			"buffer":0,
			"byteLength":672,
			"byteOffset":58416,
			"target":34963
		}
	],
	"buffers":[
		{
			"byteLength":59088,
			"uri":"Door_Double-b9d6739f667c854a2ddfbea8a1a02c6b.bin"
		}
	]
}
