{
	"asset":{
		"generator":"Khronos glTF Blender I/O v4.4.55",
		"version":"2.0"
	},
	"scene":0,
	"scenes":[
		{
			"name":"Scene",
			"nodes":[
				0
			]
		}
	],
	"nodes":[
		{
			"mesh":0,
			"name":"Door_2"
		}
	],
	"materials":[
		{
			"doubleSided":true,
			"name":"Wood",
			"pbrMetallicRoughness":{
				"baseColorFactor":[
					0.11443537473678589,
					0.08865559101104736,
					0.05612849444150925,
					1
				],
				"metallicFactor":0,
				"roughnessFactor":0.5
			}
		},
		{
			"doubleSided":true,
			"name":"Metal",
			"pbrMetallicRoughness":{
				"baseColorFactor":[
					0.14730893075466156,
					0.11338981986045837,
					0.09997832775115967,
					1
				],
				"metallicFactor":0,
				"roughnessFactor":0.5
			}
		}
	],
	"meshes":[
		{
			"name":"Cube.002",
			"primitives":[
				{
					"attributes":{
						"POSITION":0,
						"NORMAL":1
					},
					"indices":2,
					"material":0
				},
				{
					"attributes":{
						"POSITION":3,
						"NORMAL":4
					},
					"indices":5,
					"material":1
				}
			]
		}
	],
	"accessors":[
		{
			"bufferView":0,
			"componentType":5126,
			"count":450,
			"max":[
				-3.5762786865234375e-07,
				4.197657108306885,
				0.10661078989505768
			],
			"min":[
				-1.7398425340652466,
				0,
				-0.10661055147647858
			],
			"type":"VEC3"
		},
		{
			"bufferView":1,
			"componentType":5126,
			"count":450,
			"type":"VEC3"
		},
		{
			"bufferView":2,
			"componentType":5123,
			"count":1008,
			"type":"SCALAR"
		},
		{
			"bufferView":3,
			"componentType":5126,
			"count":224,
			"max":[
				-1.4449782371520996,
				1.9145658016204834,
				0.2105581909418106
			],
			"min":[
				-1.6174784898757935,
				1.7420654296875,
				-0.2105579525232315
			],
			"type":"VEC3"
		},
		{
			"bufferView":4,
			"componentType":5126,
			"count":224,
			"type":"VEC3"
		},
		{
			"bufferView":5,
			"componentType":5123,
			"count":360,
			"type":"SCALAR"
		}
	],
	"bufferViews":[
		{
			"buffer":0,
			"byteLength":5400,
			"byteOffset":0,
			"target":34962
		},
		{
			"buffer":0,
			"byteLength":5400,
			"byteOffset":5400,
			"target":34962
		},
		{
			"buffer":0,
			"byteLength":2016,
			"byteOffset":10800,
			"target":34963
		},
		{
			"buffer":0,
			"byteLength":2688,
			"byteOffset":12816,
			"target":34962
		},
		{
			"buffer":0,
			"byteLength":2688,
			"byteOffset":15504,
			"target":34962
		},
		{
			"buffer":0,
			"byteLength":720,
			"byteOffset":18192,
			"target":34963
		}
	],
	"buffers":[
		{
			"byteLength":18912,
			"uri":"Door_2-35aa09a83387262963306546e45a12b0.bin"
		}
	]
}
