{
	"asset":{
		"generator":"Khronos glTF Blender I/O v4.4.55",
		"version":"2.0"
	},
	"scene":0,
	"scenes":[
		{
			"name":"Scene",
			"nodes":[
				0
			]
		}
	],
	"nodes":[
		{
			"mesh":0,
			"name":"Door_4"
		}
	],
	"materials":[
		{
			"doubleSided":true,
			"name":"Wood",
			"pbrMetallicRoughness":{
				"baseColorFactor":[
					0.11443537473678589,
					0.08865559101104736,
					0.05612849444150925,
					1
				],
				"metallicFactor":0,
				"roughnessFactor":0.5
			}
		},
		{
			"doubleSided":true,
			"name":"Metal",
			"pbrMetallicRoughness":{
				"baseColorFactor":[
					0.14730893075466156,
					0.11338981986045837,
					0.09997832775115967,
					1
				],
				"metallicFactor":0,
				"roughnessFactor":0.5
			}
		}
	],
	"meshes":[
		{
			"name":"Cube.048",
			"primitives":[
				{
					"attributes":{
						"POSITION":0,
						"NORMAL":1
					},
					"indices":2,
					"material":0
				},
				{
					"attributes":{
						"POSITION":3,
						"NORMAL":4
					},
					"indices":5,
					"material":1
				}
			]
		}
	],
	"accessors":[
		{
			"bufferView":0,
			"componentType":5126,
			"count":966,
			"max":[
				3.5762786865234375e-07,
				4.197656154632568,
				0.10661067068576813
			],
			"min":[
				-1.7398418188095093,
				0,
				-0.10661067068576813
			],
			"type":"VEC3"
		},
		{
			"bufferView":1,
			"componentType":5126,
			"count":966,
			"type":"VEC3"
		},
		{
			"bufferView":2,
			"componentType":5123,
			"count":2400,
			"type":"SCALAR"
		},
		{
			"bufferView":3,
			"componentType":5126,
			"count":224,
			"max":[
				-1.4518764019012451,
				2.1824629306793213,
				0.21055810153484344
			],
			"min":[
				-1.6243767738342285,
				2.009962558746338,
				-0.21055804193019867
			],
			"type":"VEC3"
		},
		{
			"bufferView":4,
			"componentType":5126,
			"count":224,
			"type":"VEC3"
		},
		{
			"bufferView":5,
			"componentType":5123,
			"count":360,
			"type":"SCALAR"
		}
	],
	"bufferViews":[
		{
			"buffer":0,
			"byteLength":11592,
			"byteOffset":0,
			"target":34962
		},
		{
			"buffer":0,
			"byteLength":11592,
			"byteOffset":11592,
			"target":34962
		},
		{
			"buffer":0,
			"byteLength":4800,
			"byteOffset":23184,
			"target":34963
		},
		{
			"buffer":0,
			"byteLength":2688,
			"byteOffset":27984,
			"target":34962
		},
		{
			"buffer":0,
			"byteLength":2688,
			"byteOffset":30672,
			"target":34962
		},
		{
			"buffer":0,
			"byteLength":720,
			"byteOffset":33360,
			"target":34963
		}
	],
	"buffers":[
		{
			"byteLength":34080,
			"uri":"Door_4-a45935cb7d1e15124ac44a1e776f326d.bin"
		}
	]
}
