{
	"asset":{
		"generator":"Khronos glTF Blender I/O v4.4.55",
		"version":"2.0"
	},
	"scene":0,
	"scenes":[
		{
			"name":"Scene",
			"nodes":[
				0
			]
		}
	],
	"nodes":[
		{
			"mesh":0,
			"name":"Door_9"
		}
	],
	"materials":[
		{
			"doubleSided":true,
			"name":"White.001",
			"pbrMetallicRoughness":{
				"baseColorFactor":[
					0.44797539710998535,
					0.443290650844574,
					0.4294084906578064,
					1
				],
				"metallicFactor":0,
				"roughnessFactor":0.5
			}
		},
		{
			"doubleSided":true,
			"name":"Metal.001",
			"pbrMetallicRoughness":{
				"baseColorFactor":[
					0.14730893075466156,
					0.11338981986045837,
					0.09997832775115967,
					1
				],
				"metallicFactor":0,
				"roughnessFactor":0.5
			}
		}
	],
	"meshes":[
		{
			"name":"Cube.000",
			"primitives":[
				{
					"attributes":{
						"POSITION":0,
						"NORMAL":1
					},
					"indices":2,
					"material":0
				},
				{
					"attributes":{
						"POSITION":3,
						"NORMAL":4
					},
					"indices":5,
					"material":1
				}
			]
		}
	],
	"accessors":[
		{
			"bufferView":0,
			"componentType":5126,
			"count":970,
			"max":[
				-1.5497207641601562e-06,
				4.197656154632568,
				0.10661078989505768
			],
			"min":[
				-1.739843726158142,
				0,
				-0.10661055147647858
			],
			"type":"VEC3"
		},
		{
			"bufferView":1,
			"componentType":5126,
			"count":970,
			"type":"VEC3"
		},
		{
			"bufferView":2,
			"componentType":5123,
			"count":2400,
			"type":"SCALAR"
		},
		{
			"bufferView":3,
			"componentType":5126,
			"count":224,
			"max":[
				-1.451878309249878,
				2.1824629306793213,
				0.210558220744133
			],
			"min":[
				-1.6243786811828613,
				2.009962558746338,
				-0.21055792272090912
			],
			"type":"VEC3"
		},
		{
			"bufferView":4,
			"componentType":5126,
			"count":224,
			"type":"VEC3"
		},
		{
			"bufferView":5,
			"componentType":5123,
			"count":360,
			"type":"SCALAR"
		}
	],
	"bufferViews":[
		{
			"buffer":0,
			"byteLength":11640,
			"byteOffset":0,
			"target":34962
		},
		{
			"buffer":0,
			"byteLength":11640,
			"byteOffset":11640,
			"target":34962
		},
		{
			"buffer":0,
			"byteLength":4800,
			"byteOffset":23280,
			"target":34963
		},
		{
			"buffer":0,
			"byteLength":2688,
			"byteOffset":28080,
			"target":34962
		},
		{
			"buffer":0,
			"byteLength":2688,
			"byteOffset":30768,
			"target":34962
		},
		{
			"buffer":0,
			"byteLength":720,
			"byteOffset":33456,
			"target":34963
		}
	],
	"buffers":[
		{
			"byteLength":34176,
			"uri":"Door_9-1f0b09dae2df2dbeaa88e3112c91a9f6.bin"
		}
	]
}
