{
	"asset":{
		"generator":"Khronos glTF Blender I/O v4.4.55",
		"version":"2.0"
	},
	"scene":0,
	"scenes":[
		{
			"name":"Scene",
			"nodes":[
				0
			]
		}
	],
	"nodes":[
		{
			"mesh":0,
			"name":"Door_3"
		}
	],
	"materials":[
		{
			"doubleSided":true,
			"name":"Wood",
			"pbrMetallicRoughness":{
				"baseColorFactor":[
					0.11443537473678589,
					0.08865559101104736,
					0.05612849444150925,
					1
				],
				"metallicFactor":0,
				"roughnessFactor":0.5
			}
		},
		{
			"doubleSided":true,
			"name":"Metal",
			"pbrMetallicRoughness":{
				"baseColorFactor":[
					0.14730893075466156,
					0.11338981986045837,
					0.09997832775115967,
					1
				],
				"metallicFactor":0,
				"roughnessFactor":0.5
			}
		}
	],
	"meshes":[
		{
			"name":"Cube.017",
			"primitives":[
				{
					"attributes":{
						"POSITION":0,
						"NORMAL":1
					},
					"indices":2,
					"material":0
				},
				{
					"attributes":{
						"POSITION":3,
						"NORMAL":4
					},
					"indices":5,
					"material":1
				}
			]
		}
	],
	"accessors":[
		{
			"bufferView":0,
			"componentType":5126,
			"count":840,
			"max":[
				1.7881393432617188e-07,
				4.187835693359375,
				0.12557163834571838
			],
			"min":[
				-1.7357714176177979,
				-4.656612873077393e-10,
				-0.12557187676429749
			],
			"type":"VEC3"
		},
		{
			"bufferView":1,
			"componentType":5126,
			"count":840,
			"type":"VEC3"
		},
		{
			"bufferView":2,
			"componentType":5123,
			"count":2244,
			"type":"SCALAR"
		},
		{
			"bufferView":3,
			"componentType":5126,
			"count":112,
			"max":[
				-1.542842149734497,
				1.8923262357711792,
				0.20792588591575623
			],
			"min":[
				-1.6794184446334839,
				1.7557498216629028,
				-0.20792612433433533
			],
			"type":"VEC3"
		},
		{
			"bufferView":4,
			"componentType":5126,
			"count":112,
			"type":"VEC3"
		},
		{
			"bufferView":5,
			"componentType":5123,
			"count":324,
			"type":"SCALAR"
		}
	],
	"bufferViews":[
		{
			"buffer":0,
			"byteLength":10080,
			"byteOffset":0,
			"target":34962
		},
		{
			"buffer":0,
			"byteLength":10080,
			"byteOffset":10080,
			"target":34962
		},
		{
			"buffer":0,
			"byteLength":4488,
			"byteOffset":20160,
			"target":34963
		},
		{
			"buffer":0,
			"byteLength":1344,
			"byteOffset":24648,
			"target":34962
		},
		{
			"buffer":0,
			"byteLength":1344,
			"byteOffset":25992,
			"target":34962
		},
		{
			"buffer":0,
			"byteLength":648,
			"byteOffset":27336,
			"target":34963
		}
	],
	"buffers":[
		{
			"byteLength":27984,
			"uri":"Door_3-1a934641ba7cad3db05bfc52c8e6b3fd.bin"
		}
	]
}
