{
	"asset":{
		"generator":"Khronos glTF Blender I/O v4.4.55",
		"version":"2.0"
	},
	"scene":0,
	"scenes":[
		{
			"name":"Scene",
			"nodes":[
				0
			]
		}
	],
	"nodes":[
		{
			"mesh":0,
			"name":"Door_6"
		}
	],
	"materials":[
		{
			"doubleSided":true,
			"name":"Wood",
			"pbrMetallicRoughness":{
				"baseColorFactor":[
					0.11443537473678589,
					0.08865559101104736,
					0.05612849444150925,
					1
				],
				"metallicFactor":0,
				"roughnessFactor":0.5
			}
		},
		{
			"doubleSided":true,
			"name":"Wood_Dark",
			"pbrMetallicRoughness":{
				"baseColorFactor":[
					0.05494704842567444,
					0.04043891653418541,
					0.031514640897512436,
					1
				],
				"metallicFactor":0,
				"roughnessFactor":0.5
			}
		},
		{
			"doubleSided":true,
			"name":"Metal",
			"pbrMetallicRoughness":{
				"baseColorFactor":[
					0.14730893075466156,
					0.11338981986045837,
					0.09997832775115967,
					1
				],
				"metallicFactor":0,
				"roughnessFactor":0.5
			}
		},
		{
			"doubleSided":true,
			"name":"Glass"
		}
	],
	"meshes":[
		{
			"name":"Cube.055",
			"primitives":[
				{
					"attributes":{
						"POSITION":0,
						"NORMAL":1
					},
					"indices":2,
					"material":0
				},
				{
					"attributes":{
						"POSITION":3,
						"NORMAL":4
					},
					"indices":5,
					"material":1
				},
				{
					"attributes":{
						"POSITION":6,
						"NORMAL":7
					},
					"indices":8,
					"material":2
				},
				{
					"attributes":{
						"POSITION":9,
						"NORMAL":10
					},
					"indices":11,
					"material":3
				}
			]
		}
	],
	"accessors":[
		{
			"bufferView":0,
			"componentType":5126,
			"count":536,
			"max":[
				3.5762786865234375e-07,
				4.197657108306885,
				0.10709186643362045
			],
			"min":[
				-1.7398418188095093,
				-5.634501576423645e-08,
				-0.10709186643362045
			],
			"type":"VEC3"
		},
		{
			"bufferView":1,
			"componentType":5126,
			"count":536,
			"type":"VEC3"
		},
		{
			"bufferView":2,
			"componentType":5123,
			"count":1392,
			"type":"SCALAR"
		},
		{
			"bufferView":3,
			"componentType":5126,
			"count":268,
			"max":[
				-0.3623850345611572,
				3.7714366912841797,
				0.1320977658033371
			],
			"min":[
				-0.7211875915527344,
				0.4262201189994812,
				-0.1320977658033371
			],
			"type":"VEC3"
		},
		{
			"bufferView":4,
			"componentType":5126,
			"count":268,
			"type":"VEC3"
		},
		{
			"bufferView":5,
			"componentType":5123,
			"count":696,
			"type":"SCALAR"
		},
		{
			"bufferView":6,
			"componentType":5126,
			"count":224,
			"max":[
				-1.4449775218963623,
				1.9145658016204834,
				0.21055807173252106
			],
			"min":[
				-1.6174777746200562,
				1.7420654296875,
				-0.21055807173252106
			],
			"type":"VEC3"
		},
		{
			"bufferView":7,
			"componentType":5126,
			"count":224,
			"type":"VEC3"
		},
		{
			"bufferView":8,
			"componentType":5123,
			"count":360,
			"type":"SCALAR"
		},
		{
			"bufferView":9,
			"componentType":5126,
			"count":32,
			"max":[
				-0.42193135619163513,
				3.69058895111084,
				0.11456967145204544
			],
			"min":[
				-0.6616413593292236,
				0.5070680975914001,
				-0.11456967145204544
			],
			"type":"VEC3"
		},
		{
			"bufferView":10,
			"componentType":5126,
			"count":32,
			"type":"VEC3"
		},
		{
			"bufferView":11,
			"componentType":5123,
			"count":48,
			"type":"SCALAR"
		}
	],
	"bufferViews":[
		{
			"buffer":0,
			"byteLength":6432,
			"byteOffset":0,
			"target":34962
		},
		{
			"buffer":0,
			"byteLength":6432,
			"byteOffset":6432,
			"target":34962
		},
		{
			"buffer":0,
			"byteLength":2784,
			"byteOffset":12864,
			"target":34963
		},
		{
			"buffer":0,
			"byteLength":3216,
			"byteOffset":15648,
			"target":34962
		},
		{
			"buffer":0,
			"byteLength":3216,
			"byteOffset":18864,
			"target":34962
		},
		{
			"buffer":0,
			"byteLength":1392,
			"byteOffset":22080,
			"target":34963
		},
		{
			"buffer":0,
			"byteLength":2688,
			"byteOffset":23472,
			"target":34962
		},
		{
			"buffer":0,
			"byteLength":2688,
			"byteOffset":26160,
			"target":34962
		},
		{
			"buffer":0,
			"byteLength":720,
			"byteOffset":28848,
			"target":34963
		},
		{
			"buffer":0,
			"byteLength":384,
			"byteOffset":29568,
			"target":34962
		},
		{
			"buffer":0,
			"byteLength":384,
			"byteOffset":29952,
			"target":34962
		},
		{
			"buffer":0,
			"byteLength":96,
			"byteOffset":30336,
			"target":34963
		}
	],
	"buffers":[
		{
			"byteLength":30432,
			"uri":"Door_6-b6e9bfb4193a642ad6e11ca707793269.bin"
		}
	]
}
