{
	"asset":{
		"generator":"Khronos glTF Blender I/O v4.4.55",
		"version":"2.0"
	},
	"scene":0,
	"scenes":[
		{
			"name":"Scene",
			"nodes":[
				0
			]
		}
	],
	"nodes":[
		{
			"mesh":0,
			"name":"Door_8"
		}
	],
	"materials":[
		{
			"doubleSided":true,
			"name":"Wood",
			"pbrMetallicRoughness":{
				"baseColorFactor":[
					0.11443537473678589,
					0.08865559101104736,
					0.05612849444150925,
					1
				],
				"metallicFactor":0,
				"roughnessFactor":0.5
			}
		},
		{
			"doubleSided":true,
			"name":"Metal",
			"pbrMetallicRoughness":{
				"baseColorFactor":[
					0.14730893075466156,
					0.11338981986045837,
					0.09997832775115967,
					1
				],
				"metallicFactor":0,
				"roughnessFactor":0.5
			}
		}
	],
	"meshes":[
		{
			"name":"Cube.056",
			"primitives":[
				{
					"attributes":{
						"POSITION":0,
						"NORMAL":1
					},
					"indices":2,
					"material":0
				},
				{
					"attributes":{
						"POSITION":3,
						"NORMAL":4
					},
					"indices":5,
					"material":1
				}
			]
		}
	],
	"accessors":[
		{
			"bufferView":0,
			"componentType":5126,
			"count":2840,
			"max":[
				-1.5497207641601562e-06,
				4.197656154632568,
				0.10661067068576813
			],
			"min":[
				-1.739843726158142,
				0,
				-0.10661067068576813
			],
			"type":"VEC3"
		},
		{
			"bufferView":1,
			"componentType":5126,
			"count":2840,
			"type":"VEC3"
		},
		{
			"bufferView":2,
			"componentType":5123,
			"count":7296,
			"type":"SCALAR"
		},
		{
			"bufferView":3,
			"componentType":5126,
			"count":264,
			"max":[
				-1.4746774435043335,
				2.350815773010254,
				0.2247893214225769
			],
			"min":[
				-1.6445043087005615,
				1.7147363424301147,
				-0.21762557327747345
			],
			"type":"VEC3"
		},
		{
			"bufferView":4,
			"componentType":5126,
			"count":264,
			"type":"VEC3"
		},
		{
			"bufferView":5,
			"componentType":5123,
			"count":408,
			"type":"SCALAR"
		}
	],
	"bufferViews":[
		{
			"buffer":0,
			"byteLength":34080,
			"byteOffset":0,
			"target":34962
		},
		{
			"buffer":0,
			"byteLength":34080,
			"byteOffset":34080,
			"target":34962
		},
		{
			"buffer":0,
			"byteLength":14592,
			"byteOffset":68160,
			"target":34963
		},
		{
			"buffer":0,
			"byteLength":3168,
			"byteOffset":82752,
			"target":34962
		},
		{
			"buffer":0,
			"byteLength":3168,
			"byteOffset":85920,
			"target":34962
		},
		{
			"buffer":0,
			"byteLength":816,
			"byteOffset":89088,
			"target":34963
		}
	],
	"buffers":[
		{
			"byteLength":89904,
			"uri":"Door_8-990f23e3e11535a752821e617785c51d.bin"
		}
	]
}
