{
	"asset":{
		"generator":"Khronos glTF Blender I/O v4.4.55",
		"version":"2.0"
	},
	"scene":0,
	"scenes":[
		{
			"name":"Scene",
			"nodes":[
				0
			]
		}
	],
	"nodes":[
		{
			"mesh":0,
			"name":"Door_5"
		}
	],
	"materials":[
		{
			"doubleSided":true,
			"name":"Wood",
			"pbrMetallicRoughness":{
				"baseColorFactor":[
					0.11443537473678589,
					0.08865559101104736,
					0.05612849444150925,
					1
				],
				"metallicFactor":0,
				"roughnessFactor":0.5
			}
		},
		{
			"doubleSided":true,
			"name":"Metal",
			"pbrMetallicRoughness":{
				"baseColorFactor":[
					0.14730893075466156,
					0.11338981986045837,
					0.09997832775115967,
					1
				],
				"metallicFactor":0,
				"roughnessFactor":0.5
			}
		}
	],
	"meshes":[
		{
			"name":"Cube.050",
			"primitives":[
				{
					"attributes":{
						"POSITION":0,
						"NORMAL":1
					},
					"indices":2,
					"material":0
				},
				{
					"attributes":{
						"POSITION":3,
						"NORMAL":4
					},
					"indices":5,
					"material":1
				}
			]
		}
	],
	"accessors":[
		{
			"bufferView":0,
			"componentType":5126,
			"count":1452,
			"max":[
				2.2649765014648438e-06,
				4.197657108306885,
				0.10661067068576813
			],
			"min":[
				-1.7398399114608765,
				-5.634501576423645e-08,
				-0.10661067068576813
			],
			"type":"VEC3"
		},
		{
			"bufferView":1,
			"componentType":5126,
			"count":1452,
			"type":"VEC3"
		},
		{
			"bufferView":2,
			"componentType":5123,
			"count":3312,
			"type":"SCALAR"
		},
		{
			"bufferView":3,
			"componentType":5126,
			"count":224,
			"max":[
				-1.5171046257019043,
				2.073249340057373,
				0.21055808663368225
			],
			"min":[
				-1.6896047592163086,
				1.9007492065429688,
				-0.21055808663368225
			],
			"type":"VEC3"
		},
		{
			"bufferView":4,
			"componentType":5126,
			"count":224,
			"type":"VEC3"
		},
		{
			"bufferView":5,
			"componentType":5123,
			"count":360,
			"type":"SCALAR"
		}
	],
	"bufferViews":[
		{
			"buffer":0,
			"byteLength":17424,
			"byteOffset":0,
			"target":34962
		},
		{
			"buffer":0,
			"byteLength":17424,
			"byteOffset":17424,
			"target":34962
		},
		{
			"buffer":0,
			"byteLength":6624,
			"byteOffset":34848,
			"target":34963
		},
		{
			"buffer":0,
			"byteLength":2688,
			"byteOffset":41472,
			"target":34962
		},
		{
			"buffer":0,
			"byteLength":2688,
			"byteOffset":44160,
			"target":34962
		},
		{
			"buffer":0,
			"byteLength":720,
			"byteOffset":46848,
			"target":34963
		}
	],
	"buffers":[
		{
			"byteLength":47568,
			"uri":"Door_5-0239a092bdcbf26a96200ed8f32e6edb.bin"
		}
	]
}
