{
	"asset":{
		"generator":"Khronos glTF Blender I/O v4.4.55",
		"version":"2.0"
	},
	"scene":0,
	"scenes":[
		{
			"name":"Scene",
			"nodes":[
				0
			]
		}
	],
	"nodes":[
		{
			"mesh":0,
			"name":"Drawer_1"
		}
	],
	"materials":[
		{
			"doubleSided":true,
			"name":"Wood",
			"pbrMetallicRoughness":{
				"baseColorFactor":[
					0.11443537473678589,
					0.08865559101104736,
					0.05612849444150925,
					1
				],
				"metallicFactor":0,
				"roughnessFactor":0.5
			}
		},
		{
			"doubleSided":true,
			"name":"Wood_Dark",
			"pbrMetallicRoughness":{
				"baseColorFactor":[
					0.05494704842567444,
					0.04043891653418541,
					0.031514640897512436,
					1
				],
				"metallicFactor":0,
				"roughnessFactor":0.5
			}
		},
		{
			"doubleSided":true,
			"name":"Wood_Light",
			"pbrMetallicRoughness":{
				"baseColorFactor":[
					0.1844661384820938,
					0.14188668131828308,
					0.08849094808101654,
					1
				],
				"metallicFactor":0,
				"roughnessFactor":0.5
			}
		}
	],
	"meshes":[
		{
			"name":"Cube.051",
			"primitives":[
				{
					"attributes":{
						"POSITION":0,
						"NORMAL":1
					},
					"indices":2,
					"material":0
				},
				{
					"attributes":{
						"POSITION":3,
						"NORMAL":4
					},
					"indices":5,
					"material":1
				},
				{
					"attributes":{
						"POSITION":6,
						"NORMAL":7
					},
					"indices":8,
					"material":2
				}
			]
		}
	],
	"accessors":[
		{
			"bufferView":0,
			"componentType":5126,
			"count":136,
			"max":[
				1.3970292806625366,
				1.3434993028640747,
				0.5600208640098572
			],
			"min":[
				-1.3970307111740112,
				0.43269211053848267,
				-0.5508695244789124
			],
			"type":"VEC3"
		},
		{
			"bufferView":1,
			"componentType":5126,
			"count":136,
			"type":"VEC3"
		},
		{
			"bufferView":2,
			"componentType":5123,
			"count":276,
			"type":"SCALAR"
		},
		{
			"bufferView":3,
			"componentType":5126,
			"count":40,
			"max":[
				0.8784230351448059,
				1.1462488174438477,
				0.556389570236206
			],
			"min":[
				-0.878424346446991,
				1.0781782865524292,
				0.5043716430664062
			],
			"type":"VEC3"
		},
		{
			"bufferView":4,
			"componentType":5126,
			"count":40,
			"type":"VEC3"
		},
		{
			"bufferView":5,
			"componentType":5123,
			"count":60,
			"type":"SCALAR"
		},
		{
			"bufferView":6,
			"componentType":5126,
			"count":172,
			"max":[
				1.3608828783035278,
				1.2346222400665283,
				0.5585862398147583
			],
			"min":[
				-1.360884189605713,
				-0.009416218847036362,
				-0.5585864782333374
			],
			"type":"VEC3"
		},
		{
			"bufferView":7,
			"componentType":5126,
			"count":172,
			"type":"VEC3"
		},
		{
			"bufferView":8,
			"componentType":5123,
			"count":876,
			"type":"SCALAR"
		}
	],
	"bufferViews":[
		{
			"buffer":0,
			"byteLength":1632,
			"byteOffset":0,
			"target":34962
		},
		{
			"buffer":0,
			"byteLength":1632,
			"byteOffset":1632,
			"target":34962
		},
		{
			"buffer":0,
			"byteLength":552,
			"byteOffset":3264,
			"target":34963
		},
		{
			"buffer":0,
			"byteLength":480,
			"byteOffset":3816,
			"target":34962
		},
		{
			"buffer":0,
			"byteLength":480,
			"byteOffset":4296,
			"target":34962
		},
		{
			"buffer":0,
			"byteLength":120,
			"byteOffset":4776,
			"target":34963
		},
		{
			"buffer":0,
			"byteLength":2064,
			"byteOffset":4896,
			"target":34962
		},
		{
			"buffer":0,
			"byteLength":2064,
			"byteOffset":6960,
			"target":34962
		},
		{
			"buffer":0,
			"byteLength":1752,
			"byteOffset":9024,
			"target":34963
		}
	],
	"buffers":[
		{
			"byteLength":10776,
			"uri":"Drawer_1-f9d998e3b88cce22aa6b5e2f1d866548.bin"
		}
	]
}
