{
	"asset":{
		"generator":"Khronos glTF Blender I/O v4.4.55",
		"version":"2.0"
	},
	"scene":0,
	"scenes":[
		{
			"name":"Scene",
			"nodes":[
				0
			]
		}
	],
	"nodes":[
		{
			"mesh":0,
			"name":"Drawer_2"
		}
	],
	"materials":[
		{
			"doubleSided":true,
			"name":"Wood",
			"pbrMetallicRoughness":{
				"baseColorFactor":[
					0.11443537473678589,
					0.08865559101104736,
					0.05612849444150925,
					1
				],
				"metallicFactor":0,
				"roughnessFactor":0.5
			}
		},
		{
			"doubleSided":true,
			"name":"Wood_Dark",
			"pbrMetallicRoughness":{
				"baseColorFactor":[
					0.05494704842567444,
					0.04043891653418541,
					0.031514640897512436,
					1
				],
				"metallicFactor":0,
				"roughnessFactor":0.5
			}
		},
		{
			"doubleSided":true,
			"name":"Wood_Light",
			"pbrMetallicRoughness":{
				"baseColorFactor":[
					0.1844661384820938,
					0.14188668131828308,
					0.08849094808101654,
					1
				],
				"metallicFactor":0,
				"roughnessFactor":0.5
			}
		}
	],
	"meshes":[
		{
			"name":"Cube.053",
			"primitives":[
				{
					"attributes":{
						"POSITION":0,
						"NORMAL":1
					},
					"indices":2,
					"material":0
				},
				{
					"attributes":{
						"POSITION":3,
						"NORMAL":4
					},
					"indices":5,
					"material":1
				},
				{
					"attributes":{
						"POSITION":6,
						"NORMAL":7
					},
					"indices":8,
					"material":2
				}
			]
		}
	],
	"accessors":[
		{
			"bufferView":0,
			"componentType":5126,
			"count":168,
			"max":[
				2.017598867416382,
				1.2955212593078613,
				0.5600192546844482
			],
			"min":[
				-2.0176002979278564,
				0.43269211053848267,
				-0.5508711338043213
			],
			"type":"VEC3"
		},
		{
			"bufferView":1,
			"componentType":5126,
			"count":168,
			"type":"VEC3"
		},
		{
			"bufferView":2,
			"componentType":5123,
			"count":372,
			"type":"SCALAR"
		},
		{
			"bufferView":3,
			"componentType":5126,
			"count":40,
			"max":[
				1.4989925622940063,
				1.1462488174438477,
				0.5563879609107971
			],
			"min":[
				-1.4989938735961914,
				1.0781782865524292,
				0.5043700337409973
			],
			"type":"VEC3"
		},
		{
			"bufferView":4,
			"componentType":5126,
			"count":40,
			"type":"VEC3"
		},
		{
			"bufferView":5,
			"componentType":5123,
			"count":60,
			"type":"SCALAR"
		},
		{
			"bufferView":6,
			"componentType":5126,
			"count":172,
			"max":[
				1.981452465057373,
				1.2346222400665283,
				0.5585846900939941
			],
			"min":[
				-1.981453776359558,
				-0.009416218847036362,
				-0.5585880279541016
			],
			"type":"VEC3"
		},
		{
			"bufferView":7,
			"componentType":5126,
			"count":172,
			"type":"VEC3"
		},
		{
			"bufferView":8,
			"componentType":5123,
			"count":876,
			"type":"SCALAR"
		}
	],
	"bufferViews":[
		{
			"buffer":0,
			"byteLength":2016,
			"byteOffset":0,
			"target":34962
		},
		{
			"buffer":0,
			"byteLength":2016,
			"byteOffset":2016,
			"target":34962
		},
		{
			"buffer":0,
			"byteLength":744,
			"byteOffset":4032,
			"target":34963
		},
		{
			"buffer":0,
			"byteLength":480,
			"byteOffset":4776,
			"target":34962
		},
		{
			"buffer":0,
			"byteLength":480,
			"byteOffset":5256,
			"target":34962
		},
		{
			"buffer":0,
			"byteLength":120,
			"byteOffset":5736,
			"target":34963
		},
		{
			"buffer":0,
			"byteLength":2064,
			"byteOffset":5856,
			"target":34962
		},
		{
			"buffer":0,
			"byteLength":2064,
			"byteOffset":7920,
			"target":34962
		},
		{
			"buffer":0,
			"byteLength":1752,
			"byteOffset":9984,
			"target":34963
		}
	],
	"buffers":[
		{
			"byteLength":11736,
			"uri":"Drawer_2-ecc31403f4e34314c8d09ee8f20c21f1.bin"
		}
	]
}
