{
	"asset":{
		"generator":"Khronos glTF Blender I/O v4.4.55",
		"version":"2.0"
	},
	"scene":0,
	"scenes":[
		{
			"name":"Scene",
			"nodes":[
				0
			]
		}
	],
	"nodes":[
		{
			"mesh":0,
			"name":"Drawer_5"
		}
	],
	"materials":[
		{
			"doubleSided":true,
			"name":"Wood",
			"pbrMetallicRoughness":{
				"baseColorFactor":[
					0.11443537473678589,
					0.08865559101104736,
					0.05612849444150925,
					1
				],
				"metallicFactor":0,
				"roughnessFactor":0.5
			}
		},
		{
			"doubleSided":true,
			"name":"Wood_Dark",
			"pbrMetallicRoughness":{
				"baseColorFactor":[
					0.05494704842567444,
					0.04043891653418541,
					0.031514640897512436,
					1
				],
				"metallicFactor":0,
				"roughnessFactor":0.5
			}
		},
		{
			"doubleSided":true,
			"name":"Wood_Light",
			"pbrMetallicRoughness":{
				"baseColorFactor":[
					0.1844661384820938,
					0.14188668131828308,
					0.08849094808101654,
					1
				],
				"metallicFactor":0,
				"roughnessFactor":0.5
			}
		}
	],
	"meshes":[
		{
			"name":"Cube.097",
			"primitives":[
				{
					"attributes":{
						"POSITION":0,
						"NORMAL":1
					},
					"indices":2,
					"material":0
				},
				{
					"attributes":{
						"POSITION":3,
						"NORMAL":4
					},
					"indices":5,
					"material":1
				},
				{
					"attributes":{
						"POSITION":6,
						"NORMAL":7
					},
					"indices":8,
					"material":2
				}
			]
		}
	],
	"accessors":[
		{
			"bufferView":0,
			"componentType":5126,
			"count":338,
			"max":[
				1.397029995918274,
				1.3005706071853638,
				0.5554451942443848
			],
			"min":[
				-1.397029995918274,
				0.011076323688030243,
				-0.5554451942443848
			],
			"type":"VEC3"
		},
		{
			"bufferView":1,
			"componentType":5126,
			"count":338,
			"type":"VEC3"
		},
		{
			"bufferView":2,
			"componentType":5123,
			"count":756,
			"type":"SCALAR"
		},
		{
			"bufferView":3,
			"componentType":5126,
			"count":120,
			"max":[
				0.8784236907958984,
				1.1512980461120605,
				0.5518138408660889
			],
			"min":[
				-0.8784236907958984,
				0.20926111936569214,
				0.49979597330093384
			],
			"type":"VEC3"
		},
		{
			"bufferView":4,
			"componentType":5126,
			"count":120,
			"type":"VEC3"
		},
		{
			"bufferView":5,
			"componentType":5123,
			"count":180,
			"type":"SCALAR"
		},
		{
			"bufferView":6,
			"componentType":5126,
			"count":63,
			"max":[
				1.397029995918274,
				1.3432586193084717,
				0.5973208546638489
			],
			"min":[
				-1.397029995918274,
				0.09343086183071136,
				-0.5554451942443848
			],
			"type":"VEC3"
		},
		{
			"bufferView":7,
			"componentType":5126,
			"count":63,
			"type":"VEC3"
		},
		{
			"bufferView":8,
			"componentType":5123,
			"count":120,
			"type":"SCALAR"
		}
	],
	"bufferViews":[
		{
			"buffer":0,
			"byteLength":4056,
			"byteOffset":0,
			"target":34962
		},
		{
			"buffer":0,
			"byteLength":4056,
			"byteOffset":4056,
			"target":34962
		},
		{
			"buffer":0,
			"byteLength":1512,
			"byteOffset":8112,
			"target":34963
		},
		{
			"buffer":0,
			"byteLength":1440,
			"byteOffset":9624,
			"target":34962
		},
		{
			"buffer":0,
			"byteLength":1440,
			"byteOffset":11064,
			"target":34962
		},
		{
			"buffer":0,
			"byteLength":360,
			"byteOffset":12504,
			"target":34963
		},
		{
			"buffer":0,
			"byteLength":756,
			"byteOffset":12864,
			"target":34962
		},
		{
			"buffer":0,
			"byteLength":756,
			"byteOffset":13620,
			"target":34962
		},
		{
			"buffer":0,
			"byteLength":240,
			"byteOffset":14376,
			"target":34963
		}
	],
	"buffers":[
		{
			"byteLength":14616,
			"uri":"Drawer_5-0b717e61dca40e320e4e89dda92d52e5.bin"
		}
	]
}
