{
	"asset":{
		"generator":"Khronos glTF Blender I/O v4.4.55",
		"version":"2.0"
	},
	"scene":0,
	"scenes":[
		{
			"name":"Scene",
			"nodes":[
				0
			]
		}
	],
	"nodes":[
		{
			"mesh":0,
			"name":"Drawer_3"
		}
	],
	"materials":[
		{
			"doubleSided":true,
			"name":"Wood",
			"pbrMetallicRoughness":{
				"baseColorFactor":[
					0.11443537473678589,
					0.08865559101104736,
					0.05612849444150925,
					1
				],
				"metallicFactor":0,
				"roughnessFactor":0.5
			}
		},
		{
			"doubleSided":true,
			"name":"Wood_Dark",
			"pbrMetallicRoughness":{
				"baseColorFactor":[
					0.05494704842567444,
					0.04043891653418541,
					0.031514640897512436,
					1
				],
				"metallicFactor":0,
				"roughnessFactor":0.5
			}
		},
		{
			"doubleSided":true,
			"name":"Wood_Light",
			"pbrMetallicRoughness":{
				"baseColorFactor":[
					0.1844661384820938,
					0.14188668131828308,
					0.08849094808101654,
					1
				],
				"metallicFactor":0,
				"roughnessFactor":0.5
			}
		}
	],
	"meshes":[
		{
			"name":"Cube.098",
			"primitives":[
				{
					"attributes":{
						"POSITION":0,
						"NORMAL":1
					},
					"indices":2,
					"material":0
				},
				{
					"attributes":{
						"POSITION":3,
						"NORMAL":4
					},
					"indices":5,
					"material":1
				},
				{
					"attributes":{
						"POSITION":6,
						"NORMAL":7
					},
					"indices":8,
					"material":2
				}
			]
		}
	],
	"accessors":[
		{
			"bufferView":0,
			"componentType":5126,
			"count":524,
			"max":[
				2.0765340328216553,
				1.5513662099838257,
				0.6682456135749817
			],
			"min":[
				-2.0765340328216553,
				-7.14838463977685e-08,
				-0.6682455539703369
			],
			"type":"VEC3"
		},
		{
			"bufferView":1,
			"componentType":5126,
			"count":524,
			"type":"VEC3"
		},
		{
			"bufferView":2,
			"componentType":5123,
			"count":1296,
			"type":"SCALAR"
		},
		{
			"bufferView":3,
			"componentType":5126,
			"count":240,
			"max":[
				1.8119271993637085,
				1.3582767248153687,
				0.6638767719268799
			],
			"min":[
				-1.8119271993637085,
				0.2519347369670868,
				0.6012951135635376
			],
			"type":"VEC3"
		},
		{
			"bufferView":4,
			"componentType":5126,
			"count":240,
			"type":"VEC3"
		},
		{
			"bufferView":5,
			"componentType":5123,
			"count":360,
			"type":"SCALAR"
		},
		{
			"bufferView":6,
			"componentType":5126,
			"count":80,
			"max":[
				1.9925529956817627,
				1.577178716659546,
				0.6337072849273682
			],
			"min":[
				-1.9925529956817627,
				0.09907910972833633,
				-0.6110601425170898
			],
			"type":"VEC3"
		},
		{
			"bufferView":7,
			"componentType":5126,
			"count":80,
			"type":"VEC3"
		},
		{
			"bufferView":8,
			"componentType":5123,
			"count":156,
			"type":"SCALAR"
		}
	],
	"bufferViews":[
		{
			"buffer":0,
			"byteLength":6288,
			"byteOffset":0,
			"target":34962
		},
		{
			"buffer":0,
			"byteLength":6288,
			"byteOffset":6288,
			"target":34962
		},
		{
			"buffer":0,
			"byteLength":2592,
			"byteOffset":12576,
			"target":34963
		},
		{
			"buffer":0,
			"byteLength":2880,
			"byteOffset":15168,
			"target":34962
		},
		{
			"buffer":0,
			"byteLength":2880,
			"byteOffset":18048,
			"target":34962
		},
		{
			"buffer":0,
			"byteLength":720,
			"byteOffset":20928,
			"target":34963
		},
		{
			"buffer":0,
			"byteLength":960,
			"byteOffset":21648,
			"target":34962
		},
		{
			"buffer":0,
			"byteLength":960,
			"byteOffset":22608,
			"target":34962
		},
		{
			"buffer":0,
			"byteLength":312,
			"byteOffset":23568,
			"target":34963
		}
	],
	"buffers":[
		{
			"byteLength":23880,
			"uri":"Drawer_3-069b991b395addb882f9091e849a97a7.bin"
		}
	]
}
