{
	"asset":{
		"generator":"Khronos glTF Blender I/O v4.4.55",
		"version":"2.0"
	},
	"scene":0,
	"scenes":[
		{
			"name":"Scene",
			"nodes":[
				0
			]
		}
	],
	"nodes":[
		{
			"mesh":0,
			"name":"Houseplant_8"
		}
	],
	"materials":[
		{
			"doubleSided":true,
			"name":"Black",
			"pbrMetallicRoughness":{
				"baseColorFactor":[
					0.03521668538451195,
					0.03521668538451195,
					0.03521668538451195,
					1
				],
				"metallicFactor":0,
				"roughnessFactor":0.5
			}
		},
		{
			"doubleSided":true,
			"name":"Brown",
			"pbrMetallicRoughness":{
				"baseColorFactor":[
					0.11443537473678589,
					0.08865559101104736,
					0.05612849444150925,
					1
				],
				"metallicFactor":0,
				"roughnessFactor":0.5
			}
		},
		{
			"doubleSided":true,
			"name":"Wood",
			"pbrMetallicRoughness":{
				"baseColorFactor":[
					0.11443537473678589,
					0.08865559101104736,
					0.05612849444150925,
					1
				],
				"metallicFactor":0,
				"roughnessFactor":0.5
			}
		}
	],
	"meshes":[
		{
			"name":"Cylinder.027",
			"primitives":[
				{
					"attributes":{
						"POSITION":0,
						"NORMAL":1
					},
					"indices":2,
					"material":0
				},
				{
					"attributes":{
						"POSITION":3,
						"NORMAL":4
					},
					"indices":5,
					"material":1
				},
				{
					"attributes":{
						"POSITION":6,
						"NORMAL":7
					},
					"indices":8,
					"material":2
				}
			]
		}
	],
	"accessors":[
		{
			"bufferView":0,
			"componentType":5126,
			"count":72,
			"max":[
				0.16912823915481567,
				0.32134902477264404,
				0.16912823915481567
			],
			"min":[
				-0.16912823915481567,
				0.0014194967225193977,
				-0.16912823915481567
			],
			"type":"VEC3"
		},
		{
			"bufferView":1,
			"componentType":5126,
			"count":72,
			"type":"VEC3"
		},
		{
			"bufferView":2,
			"componentType":5123,
			"count":258,
			"type":"SCALAR"
		},
		{
			"bufferView":3,
			"componentType":5126,
			"count":428,
			"max":[
				0.23237107694149017,
				1.4014657735824585,
				0.25355470180511475
			],
			"min":[
				-0.28477707505226135,
				0.28521543741226196,
				-0.26357874274253845
			],
			"type":"VEC3"
		},
		{
			"bufferView":4,
			"componentType":5126,
			"count":428,
			"type":"VEC3"
		},
		{
			"bufferView":5,
			"componentType":5123,
			"count":558,
			"type":"SCALAR"
		},
		{
			"bufferView":6,
			"componentType":5126,
			"count":80,
			"max":[
				0.01433394756168127,
				1.5580167770385742,
				0.03732161968946457
			],
			"min":[
				-0.03127806633710861,
				0.22016789019107819,
				-0.0201424490660429
			],
			"type":"VEC3"
		},
		{
			"bufferView":7,
			"componentType":5126,
			"count":80,
			"type":"VEC3"
		},
		{
			"bufferView":8,
			"componentType":5123,
			"count":114,
			"type":"SCALAR"
		}
	],
	"bufferViews":[
		{
			"buffer":0,
			"byteLength":864,
			"byteOffset":0,
			"target":34962
		},
		{
			"buffer":0,
			"byteLength":864,
			"byteOffset":864,
			"target":34962
		},
		{
			"buffer":0,
			"byteLength":516,
			"byteOffset":1728,
			"target":34963
		},
		{
			"buffer":0,
			"byteLength":5136,
			"byteOffset":2244,
			"target":34962
		},
		{
			"buffer":0,
			"byteLength":5136,
			"byteOffset":7380,
			"target":34962
		},
		{
			"buffer":0,
			"byteLength":1116,
			"byteOffset":12516,
			"target":34963
		},
		{
			"buffer":0,
			"byteLength":960,
			"byteOffset":13632,
			"target":34962
		},
		{
			"buffer":0,
			"byteLength":960,
			"byteOffset":14592,
			"target":34962
		},
		{
			"buffer":0,
			"byteLength":228,
			"byteOffset":15552,
			"target":34963
		}
	],
	"buffers":[
		{
			"byteLength":15780,
			"uri":"Houseplant_8-4e20708bd15ffc72bbd605abd30c472e.bin"
		}
	]
}
