{
	"asset":{
		"generator":"Khronos glTF Blender I/O v4.4.55",
		"version":"2.0"
	},
	"scene":0,
	"scenes":[
		{
			"name":"Scene",
			"nodes":[
				0
			]
		}
	],
	"nodes":[
		{
			"mesh":0,
			"name":"Houseplant_1"
		}
	],
	"materials":[
		{
			"doubleSided":true,
			"name":"Black",
			"pbrMetallicRoughness":{
				"baseColorFactor":[
					0.03521668538451195,
					0.03521668538451195,
					0.03521668538451195,
					1
				],
				"metallicFactor":0,
				"roughnessFactor":0.5
			}
		},
		{
			"doubleSided":true,
			"name":"Brown",
			"pbrMetallicRoughness":{
				"baseColorFactor":[
					0.11443537473678589,
					0.08865559101104736,
					0.05612849444150925,
					1
				],
				"metallicFactor":0,
				"roughnessFactor":0.5
			}
		},
		{
			"doubleSided":true,
			"name":"Plant_Green",
			"pbrMetallicRoughness":{
				"baseColorFactor":[
					0.24706675112247467,
					0.39310935139656067,
					0.05337448790669441,
					1
				],
				"metallicFactor":0,
				"roughnessFactor":0.5
			}
		}
	],
	"meshes":[
		{
			"name":"Cylinder.024",
			"primitives":[
				{
					"attributes":{
						"POSITION":0,
						"NORMAL":1
					},
					"indices":2,
					"material":0
				},
				{
					"attributes":{
						"POSITION":3,
						"NORMAL":4
					},
					"indices":5,
					"material":1
				},
				{
					"attributes":{
						"POSITION":6,
						"NORMAL":7
					},
					"indices":8,
					"material":2
				}
			]
		}
	],
	"accessors":[
		{
			"bufferView":0,
			"componentType":5126,
			"count":72,
			"max":[
				0.12154386192560196,
				0.27488479018211365,
				0.12154386192560196
			],
			"min":[
				-0.12154386192560196,
				0.0015023763990029693,
				-0.12154386192560196
			],
			"type":"VEC3"
		},
		{
			"bufferView":1,
			"componentType":5126,
			"count":72,
			"type":"VEC3"
		},
		{
			"bufferView":2,
			"componentType":5123,
			"count":258,
			"type":"SCALAR"
		},
		{
			"bufferView":3,
			"componentType":5126,
			"count":8,
			"max":[
				0.107760950922966,
				0.23664261400699615,
				0.107760950922966
			],
			"min":[
				-0.107760950922966,
				0.23664261400699615,
				-0.107760950922966
			],
			"type":"VEC3"
		},
		{
			"bufferView":4,
			"componentType":5126,
			"count":8,
			"type":"VEC3"
		},
		{
			"bufferView":5,
			"componentType":5123,
			"count":18,
			"type":"SCALAR"
		},
		{
			"bufferView":6,
			"componentType":5126,
			"count":147,
			"max":[
				0.4772394597530365,
				0.7188604474067688,
				0.3714981973171234
			],
			"min":[
				-0.2918000817298889,
				0.0932491272687912,
				-0.32276156544685364
			],
			"type":"VEC3"
		},
		{
			"bufferView":7,
			"componentType":5126,
			"count":147,
			"type":"VEC3"
		},
		{
			"bufferView":8,
			"componentType":5123,
			"count":459,
			"type":"SCALAR"
		}
	],
	"bufferViews":[
		{
			"buffer":0,
			"byteLength":864,
			"byteOffset":0,
			"target":34962
		},
		{
			"buffer":0,
			"byteLength":864,
			"byteOffset":864,
			"target":34962
		},
		{
			"buffer":0,
			"byteLength":516,
			"byteOffset":1728,
			"target":34963
		},
		{
			"buffer":0,
			"byteLength":96,
			"byteOffset":2244,
			"target":34962
		},
		{
			"buffer":0,
			"byteLength":96,
			"byteOffset":2340,
			"target":34962
		},
		{
			"buffer":0,
			"byteLength":36,
			"byteOffset":2436,
			"target":34963
		},
		{
			"buffer":0,
			"byteLength":1764,
			"byteOffset":2472,
			"target":34962
		},
		{
			"buffer":0,
			"byteLength":1764,
			"byteOffset":4236,
			"target":34962
		},
		{
			"buffer":0,
			"byteLength":918,
			"byteOffset":6000,
			"target":34963
		}
	],
	"buffers":[
		{
			"byteLength":6920,
			"uri":"Houseplant_1-878a7b02fb0698d1c50444e6d05e072c.bin"
		}
	]
}
