{
	"asset":{
		"generator":"Khronos glTF Blender I/O v4.4.55",
		"version":"2.0"
	},
	"scene":0,
	"scenes":[
		{
			"name":"Scene",
			"nodes":[
				0
			]
		}
	],
	"nodes":[
		{
			"mesh":0,
			"name":"Houseplant_2"
		}
	],
	"materials":[
		{
			"doubleSided":true,
			"name":"Black",
			"pbrMetallicRoughness":{
				"baseColorFactor":[
					0.03521668538451195,
					0.03521668538451195,
					0.03521668538451195,
					1
				],
				"metallicFactor":0,
				"roughnessFactor":0.5
			}
		},
		{
			"doubleSided":true,
			"name":"Brown",
			"pbrMetallicRoughness":{
				"baseColorFactor":[
					0.11443537473678589,
					0.08865559101104736,
					0.05612849444150925,
					1
				],
				"metallicFactor":0,
				"roughnessFactor":0.5
			}
		},
		{
			"doubleSided":true,
			"name":"DarkGreen",
			"pbrMetallicRoughness":{
				"baseColorFactor":[
					0.08744194358587265,
					0.15232062339782715,
					0.05986013635993004,
					1
				],
				"metallicFactor":0,
				"roughnessFactor":0.5
			}
		},
		{
			"doubleSided":true,
			"name":"LightOrange",
			"pbrMetallicRoughness":{
				"baseColorFactor":[
					0.548847496509552,
					0.32919058203697205,
					0.10517245531082153,
					1
				],
				"metallicFactor":0,
				"roughnessFactor":0.5
			}
		}
	],
	"meshes":[
		{
			"name":"Cylinder.021",
			"primitives":[
				{
					"attributes":{
						"POSITION":0,
						"NORMAL":1
					},
					"indices":2,
					"material":0
				},
				{
					"attributes":{
						"POSITION":3,
						"NORMAL":4
					},
					"indices":5,
					"material":1
				},
				{
					"attributes":{
						"POSITION":6,
						"NORMAL":7
					},
					"indices":8,
					"material":2
				},
				{
					"attributes":{
						"POSITION":9,
						"NORMAL":10
					},
					"indices":11,
					"material":3
				}
			]
		}
	],
	"accessors":[
		{
			"bufferView":0,
			"componentType":5126,
			"count":72,
			"max":[
				0.12527532875537872,
				0.23802711069583893,
				0.12527532875537872
			],
			"min":[
				-0.12527532875537872,
				0.001051453989930451,
				-0.12527532875537872
			],
			"type":"VEC3"
		},
		{
			"bufferView":1,
			"componentType":5126,
			"count":72,
			"type":"VEC3"
		},
		{
			"bufferView":2,
			"componentType":5123,
			"count":258,
			"type":"SCALAR"
		},
		{
			"bufferView":3,
			"componentType":5126,
			"count":8,
			"max":[
				0.11106928437948227,
				0.2112625390291214,
				0.11106928437948227
			],
			"min":[
				-0.11106928437948227,
				0.2112625390291214,
				-0.11106928437948227
			],
			"type":"VEC3"
		},
		{
			"bufferView":4,
			"componentType":5126,
			"count":8,
			"type":"VEC3"
		},
		{
			"bufferView":5,
			"componentType":5123,
			"count":18,
			"type":"SCALAR"
		},
		{
			"bufferView":6,
			"componentType":5126,
			"count":66,
			"max":[
				0.10083524137735367,
				0.38246551156044006,
				0.06694982200860977
			],
			"min":[
				-0.0899774506688118,
				0.19269117712974548,
				-0.06416948139667511
			],
			"type":"VEC3"
		},
		{
			"bufferView":7,
			"componentType":5126,
			"count":66,
			"type":"VEC3"
		},
		{
			"bufferView":8,
			"componentType":5123,
			"count":336,
			"type":"SCALAR"
		},
		{
			"bufferView":9,
			"componentType":5126,
			"count":320,
			"max":[
				0.10891985893249512,
				0.3859434425830841,
				0.0815260037779808
			],
			"min":[
				-0.121226467192173,
				0.24584262073040009,
				-0.09150604158639908
			],
			"type":"VEC3"
		},
		{
			"bufferView":10,
			"componentType":5126,
			"count":320,
			"type":"VEC3"
		},
		{
			"bufferView":11,
			"componentType":5123,
			"count":360,
			"type":"SCALAR"
		}
	],
	"bufferViews":[
		{
			"buffer":0,
			"byteLength":864,
			"byteOffset":0,
			"target":34962
		},
		{
			"buffer":0,
			"byteLength":864,
			"byteOffset":864,
			"target":34962
		},
		{
			"buffer":0,
			"byteLength":516,
			"byteOffset":1728,
			"target":34963
		},
		{
			"buffer":0,
			"byteLength":96,
			"byteOffset":2244,
			"target":34962
		},
		{
			"buffer":0,
			"byteLength":96,
			"byteOffset":2340,
			"target":34962
		},
		{
			"buffer":0,
			"byteLength":36,
			"byteOffset":2436,
			"target":34963
		},
		{
			"buffer":0,
			"byteLength":792,
			"byteOffset":2472,
			"target":34962
		},
		{
			"buffer":0,
			"byteLength":792,
			"byteOffset":3264,
			"target":34962
		},
		{
			"buffer":0,
			"byteLength":672,
			"byteOffset":4056,
			"target":34963
		},
		{
			"buffer":0,
			"byteLength":3840,
			"byteOffset":4728,
			"target":34962
		},
		{
			"buffer":0,
			"byteLength":3840,
			"byteOffset":8568,
			"target":34962
		},
		{
			"buffer":0,
			"byteLength":720,
			"byteOffset":12408,
			"target":34963
		}
	],
	"buffers":[
		{
			"byteLength":13128,
			"uri":"Houseplant_2-d0060e09f263a4b626c3127d6fffd068.bin"
		}
	]
}
