{
	"asset":{
		"generator":"Khronos glTF Blender I/O v4.4.55",
		"version":"2.0"
	},
	"scene":0,
	"scenes":[
		{
			"name":"Scene",
			"nodes":[
				0
			]
		}
	],
	"nodes":[
		{
			"mesh":0,
			"name":"Houseplant_7"
		}
	],
	"materials":[
		{
			"doubleSided":true,
			"name":"Black",
			"pbrMetallicRoughness":{
				"baseColorFactor":[
					0.03521668538451195,
					0.03521668538451195,
					0.03521668538451195,
					1
				],
				"metallicFactor":0,
				"roughnessFactor":0.5
			}
		},
		{
			"doubleSided":true,
			"name":"Brown",
			"pbrMetallicRoughness":{
				"baseColorFactor":[
					0.11443537473678589,
					0.08865559101104736,
					0.05612849444150925,
					1
				],
				"metallicFactor":0,
				"roughnessFactor":0.5
			}
		},
		{
			"doubleSided":true,
			"name":"Plant_Green",
			"pbrMetallicRoughness":{
				"baseColorFactor":[
					0.24706675112247467,
					0.39310935139656067,
					0.05337448790669441,
					1
				],
				"metallicFactor":0,
				"roughnessFactor":0.5
			}
		}
	],
	"meshes":[
		{
			"name":"Cylinder.023",
			"primitives":[
				{
					"attributes":{
						"POSITION":0,
						"NORMAL":1
					},
					"indices":2,
					"material":0
				},
				{
					"attributes":{
						"POSITION":3,
						"NORMAL":4
					},
					"indices":5,
					"material":1
				},
				{
					"attributes":{
						"POSITION":6,
						"NORMAL":7
					},
					"indices":8,
					"material":2
				}
			]
		}
	],
	"accessors":[
		{
			"bufferView":0,
			"componentType":5126,
			"count":72,
			"max":[
				0.20534850656986237,
				0.3401013910770416,
				0.20534850656986237
			],
			"min":[
				-0.20534850656986237,
				0.0015023540472611785,
				-0.20534850656986237
			],
			"type":"VEC3"
		},
		{
			"bufferView":1,
			"componentType":5126,
			"count":72,
			"type":"VEC3"
		},
		{
			"bufferView":2,
			"componentType":5123,
			"count":258,
			"type":"SCALAR"
		},
		{
			"bufferView":3,
			"componentType":5126,
			"count":8,
			"max":[
				0.1820622682571411,
				0.3018592298030853,
				0.1820622682571411
			],
			"min":[
				-0.1820622682571411,
				0.3018592298030853,
				-0.1820622682571411
			],
			"type":"VEC3"
		},
		{
			"bufferView":4,
			"componentType":5126,
			"count":8,
			"type":"VEC3"
		},
		{
			"bufferView":5,
			"componentType":5123,
			"count":18,
			"type":"SCALAR"
		},
		{
			"bufferView":6,
			"componentType":5126,
			"count":343,
			"max":[
				0.6282608509063721,
				0.8833589553833008,
				0.6340108513832092
			],
			"min":[
				-0.5379853248596191,
				0.061680641025304794,
				-0.5860483050346375
			],
			"type":"VEC3"
		},
		{
			"bufferView":7,
			"componentType":5126,
			"count":343,
			"type":"VEC3"
		},
		{
			"bufferView":8,
			"componentType":5123,
			"count":1071,
			"type":"SCALAR"
		}
	],
	"bufferViews":[
		{
			"buffer":0,
			"byteLength":864,
			"byteOffset":0,
			"target":34962
		},
		{
			"buffer":0,
			"byteLength":864,
			"byteOffset":864,
			"target":34962
		},
		{
			"buffer":0,
			"byteLength":516,
			"byteOffset":1728,
			"target":34963
		},
		{
			"buffer":0,
			"byteLength":96,
			"byteOffset":2244,
			"target":34962
		},
		{
			"buffer":0,
			"byteLength":96,
			"byteOffset":2340,
			"target":34962
		},
		{
			"buffer":0,
			"byteLength":36,
			"byteOffset":2436,
			"target":34963
		},
		{
			"buffer":0,
			"byteLength":4116,
			"byteOffset":2472,
			"target":34962
		},
		{
			"buffer":0,
			"byteLength":4116,
			"byteOffset":6588,
			"target":34962
		},
		{
			"buffer":0,
			"byteLength":2142,
			"byteOffset":10704,
			"target":34963
		}
	],
	"buffers":[
		{
			"byteLength":12848,
			"uri":"Houseplant_7-5190c7297ee88bd9b3d99ceabf8b9bd3.bin"
		}
	]
}
