{
	"asset":{
		"generator":"Khronos glTF Blender I/O v4.4.55",
		"version":"2.0"
	},
	"scene":0,
	"scenes":[
		{
			"name":"Scene",
			"nodes":[
				0
			]
		}
	],
	"nodes":[
		{
			"mesh":0,
			"name":"Houseplant_6"
		}
	],
	"materials":[
		{
			"doubleSided":true,
			"name":"Grey",
			"pbrMetallicRoughness":{
				"baseColorFactor":[
					0.2597948908805847,
					0.25713229179382324,
					0.24924027919769287,
					1
				],
				"metallicFactor":0,
				"roughnessFactor":0.5
			}
		},
		{
			"doubleSided":true,
			"name":"Brown",
			"pbrMetallicRoughness":{
				"baseColorFactor":[
					0.11443537473678589,
					0.08865559101104736,
					0.05612849444150925,
					1
				],
				"metallicFactor":0,
				"roughnessFactor":0.5
			}
		},
		{
			"doubleSided":true,
			"name":"Plant_Green",
			"pbrMetallicRoughness":{
				"baseColorFactor":[
					0.24706675112247467,
					0.39310935139656067,
					0.05337448790669441,
					1
				],
				"metallicFactor":0,
				"roughnessFactor":0.5
			}
		}
	],
	"meshes":[
		{
			"name":"Cylinder.015",
			"primitives":[
				{
					"attributes":{
						"POSITION":0,
						"NORMAL":1
					},
					"indices":2,
					"material":0
				},
				{
					"attributes":{
						"POSITION":3,
						"NORMAL":4
					},
					"indices":5,
					"material":1
				},
				{
					"attributes":{
						"POSITION":6,
						"NORMAL":7
					},
					"indices":8,
					"material":2
				}
			]
		}
	],
	"accessors":[
		{
			"bufferView":0,
			"componentType":5126,
			"count":72,
			"max":[
				0.16912823915481567,
				0.32134902477264404,
				0.16912823915481567
			],
			"min":[
				-0.16912823915481567,
				0.0014194967225193977,
				-0.16912823915481567
			],
			"type":"VEC3"
		},
		{
			"bufferView":1,
			"componentType":5126,
			"count":72,
			"type":"VEC3"
		},
		{
			"bufferView":2,
			"componentType":5123,
			"count":258,
			"type":"SCALAR"
		},
		{
			"bufferView":3,
			"componentType":5126,
			"count":8,
			"max":[
				0.1499493271112442,
				0.28521543741226196,
				0.1499493271112442
			],
			"min":[
				-0.1499493271112442,
				0.28521543741226196,
				-0.1499493271112442
			],
			"type":"VEC3"
		},
		{
			"bufferView":4,
			"componentType":5126,
			"count":8,
			"type":"VEC3"
		},
		{
			"bufferView":5,
			"componentType":5123,
			"count":18,
			"type":"SCALAR"
		},
		{
			"bufferView":6,
			"componentType":5126,
			"count":678,
			"max":[
				0.5650454163551331,
				0.9600276350975037,
				0.479107141494751
			],
			"min":[
				-0.47483980655670166,
				0.22756071388721466,
				-0.570996880531311
			],
			"type":"VEC3"
		},
		{
			"bufferView":7,
			"componentType":5126,
			"count":678,
			"type":"VEC3"
		},
		{
			"bufferView":8,
			"componentType":5123,
			"count":1680,
			"type":"SCALAR"
		}
	],
	"bufferViews":[
		{
			"buffer":0,
			"byteLength":864,
			"byteOffset":0,
			"target":34962
		},
		{
			"buffer":0,
			"byteLength":864,
			"byteOffset":864,
			"target":34962
		},
		{
			"buffer":0,
			"byteLength":516,
			"byteOffset":1728,
			"target":34963
		},
		{
			"buffer":0,
			"byteLength":96,
			"byteOffset":2244,
			"target":34962
		},
		{
			"buffer":0,
			"byteLength":96,
			"byteOffset":2340,
			"target":34962
		},
		{
			"buffer":0,
			"byteLength":36,
			"byteOffset":2436,
			"target":34963
		},
		{
			"buffer":0,
			"byteLength":8136,
			"byteOffset":2472,
			"target":34962
		},
		{
			"buffer":0,
			"byteLength":8136,
			"byteOffset":10608,
			"target":34962
		},
		{
			"buffer":0,
			"byteLength":3360,
			"byteOffset":18744,
			"target":34963
		}
	],
	"buffers":[
		{
			"byteLength":22104,
			"uri":"Houseplant_6-240008a4badccd121151cb2ef608bf0a.bin"
		}
	]
}
