{
	"asset":{
		"generator":"Khronos glTF Blender I/O v4.4.55",
		"version":"2.0"
	},
	"scene":0,
	"scenes":[
		{
			"name":"Scene",
			"nodes":[
				0
			]
		}
	],
	"nodes":[
		{
			"mesh":0,
			"name":"Houseplant_3"
		}
	],
	"materials":[
		{
			"doubleSided":true,
			"name":"Black",
			"pbrMetallicRoughness":{
				"baseColorFactor":[
					0.03521668538451195,
					0.03521668538451195,
					0.03521668538451195,
					1
				],
				"metallicFactor":0,
				"roughnessFactor":0.5
			}
		},
		{
			"doubleSided":true,
			"name":"Brown",
			"pbrMetallicRoughness":{
				"baseColorFactor":[
					0.11443537473678589,
					0.08865559101104736,
					0.05612849444150925,
					1
				],
				"metallicFactor":0,
				"roughnessFactor":0.5
			}
		},
		{
			"doubleSided":true,
			"name":"DarkGreen",
			"pbrMetallicRoughness":{
				"baseColorFactor":[
					0.08744194358587265,
					0.15232062339782715,
					0.05986013635993004,
					1
				],
				"metallicFactor":0,
				"roughnessFactor":0.5
			}
		},
		{
			"doubleSided":true,
			"name":"LightOrange",
			"pbrMetallicRoughness":{
				"baseColorFactor":[
					0.548847496509552,
					0.32919058203697205,
					0.10517245531082153,
					1
				],
				"metallicFactor":0,
				"roughnessFactor":0.5
			}
		}
	],
	"meshes":[
		{
			"name":"Cylinder.020",
			"primitives":[
				{
					"attributes":{
						"POSITION":0,
						"NORMAL":1
					},
					"indices":2,
					"material":0
				},
				{
					"attributes":{
						"POSITION":3,
						"NORMAL":4
					},
					"indices":5,
					"material":1
				},
				{
					"attributes":{
						"POSITION":6,
						"NORMAL":7
					},
					"indices":8,
					"material":2
				},
				{
					"attributes":{
						"POSITION":9,
						"NORMAL":10
					},
					"indices":11,
					"material":3
				}
			]
		}
	],
	"accessors":[
		{
			"bufferView":0,
			"componentType":5126,
			"count":72,
			"max":[
				0.16912823915481567,
				0.32134902477264404,
				0.16912823915481567
			],
			"min":[
				-0.16912823915481567,
				0.0014194967225193977,
				-0.16912823915481567
			],
			"type":"VEC3"
		},
		{
			"bufferView":1,
			"componentType":5126,
			"count":72,
			"type":"VEC3"
		},
		{
			"bufferView":2,
			"componentType":5123,
			"count":258,
			"type":"SCALAR"
		},
		{
			"bufferView":3,
			"componentType":5126,
			"count":8,
			"max":[
				0.1499493271112442,
				0.28521543741226196,
				0.1499493271112442
			],
			"min":[
				-0.1499493271112442,
				0.28521543741226196,
				-0.1499493271112442
			],
			"type":"VEC3"
		},
		{
			"bufferView":4,
			"componentType":5126,
			"count":8,
			"type":"VEC3"
		},
		{
			"bufferView":5,
			"componentType":5123,
			"count":18,
			"type":"SCALAR"
		},
		{
			"bufferView":6,
			"componentType":5126,
			"count":66,
			"max":[
				0.12497775256633759,
				0.8463361263275146,
				0.12497775256633759
			],
			"min":[
				-0.12497775256633759,
				0.22767458856105804,
				-0.12497775256633759
			],
			"type":"VEC3"
		},
		{
			"bufferView":7,
			"componentType":5126,
			"count":66,
			"type":"VEC3"
		},
		{
			"bufferView":8,
			"componentType":5123,
			"count":384,
			"type":"SCALAR"
		},
		{
			"bufferView":9,
			"componentType":5126,
			"count":510,
			"max":[
				0.1734461486339569,
				0.8245518207550049,
				0.16255247592926025
			],
			"min":[
				-0.16404779255390167,
				0.3059791624546051,
				-0.1648985892534256
			],
			"type":"VEC3"
		},
		{
			"bufferView":10,
			"componentType":5126,
			"count":510,
			"type":"VEC3"
		},
		{
			"bufferView":11,
			"componentType":5123,
			"count":576,
			"type":"SCALAR"
		}
	],
	"bufferViews":[
		{
			"buffer":0,
			"byteLength":864,
			"byteOffset":0,
			"target":34962
		},
		{
			"buffer":0,
			"byteLength":864,
			"byteOffset":864,
			"target":34962
		},
		{
			"buffer":0,
			"byteLength":516,
			"byteOffset":1728,
			"target":34963
		},
		{
			"buffer":0,
			"byteLength":96,
			"byteOffset":2244,
			"target":34962
		},
		{
			"buffer":0,
			"byteLength":96,
			"byteOffset":2340,
			"target":34962
		},
		{
			"buffer":0,
			"byteLength":36,
			"byteOffset":2436,
			"target":34963
		},
		{
			"buffer":0,
			"byteLength":792,
			"byteOffset":2472,
			"target":34962
		},
		{
			"buffer":0,
			"byteLength":792,
			"byteOffset":3264,
			"target":34962
		},
		{
			"buffer":0,
			"byteLength":768,
			"byteOffset":4056,
			"target":34963
		},
		{
			"buffer":0,
			"byteLength":6120,
			"byteOffset":4824,
			"target":34962
		},
		{
			"buffer":0,
			"byteLength":6120,
			"byteOffset":10944,
			"target":34962
		},
		{
			"buffer":0,
			"byteLength":1152,
			"byteOffset":17064,
			"target":34963
		}
	],
	"buffers":[
		{
			"byteLength":18216,
			"uri":"Houseplant_3-2be7a71aae89f4cd76075cb520580ea9.bin"
		}
	]
}
