{
	"asset":{
		"generator":"Khronos glTF Blender I/O v4.4.55",
		"version":"2.0"
	},
	"scene":0,
	"scenes":[
		{
			"name":"Scene",
			"nodes":[
				0
			]
		}
	],
	"nodes":[
		{
			"mesh":0,
			"name":"Kitchen_1Drawers"
		}
	],
	"materials":[
		{
			"doubleSided":true,
			"name":"Kitchen",
			"pbrMetallicRoughness":{
				"baseColorFactor":[
					0.12968529760837555,
					0.16794617474079132,
					0.14458946883678436,
					1
				],
				"metallicFactor":0,
				"roughnessFactor":0.5
			}
		},
		{
			"doubleSided":true,
			"name":"White",
			"pbrMetallicRoughness":{
				"baseColorFactor":[
					0.44797539710998535,
					0.443290650844574,
					0.4294084906578064,
					1
				],
				"metallicFactor":0,
				"roughnessFactor":0.5
			}
		},
		{
			"doubleSided":true,
			"name":"KitchenTop",
			"pbrMetallicRoughness":{
				"baseColorFactor":[
					0.2738257348537445,
					0.2710132598876953,
					0.26267725229263306,
					1
				],
				"metallicFactor":0,
				"roughnessFactor":0.5
			}
		}
	],
	"meshes":[
		{
			"name":"Cube.077",
			"primitives":[
				{
					"attributes":{
						"POSITION":0,
						"NORMAL":1
					},
					"indices":2,
					"material":0
				},
				{
					"attributes":{
						"POSITION":3,
						"NORMAL":4
					},
					"indices":5,
					"material":1
				},
				{
					"attributes":{
						"POSITION":6,
						"NORMAL":7
					},
					"indices":8,
					"material":2
				}
			]
		}
	],
	"accessors":[
		{
			"bufferView":0,
			"componentType":5126,
			"count":48,
			"max":[
				0.5054059624671936,
				1.571075439453125,
				0.6150208115577698
			],
			"min":[
				-0.5054061412811279,
				0.006806648336350918,
				-0.5054059624671936
			],
			"type":"VEC3"
		},
		{
			"bufferView":1,
			"componentType":5126,
			"count":48,
			"type":"VEC3"
		},
		{
			"bufferView":2,
			"componentType":5123,
			"count":84,
			"type":"SCALAR"
		},
		{
			"bufferView":3,
			"componentType":5126,
			"count":60,
			"max":[
				0.11395464837551117,
				1.4383693933486938,
				0.5660589933395386
			],
			"min":[
				-0.11395464837551117,
				1.4022185802459717,
				0.5125958919525146
			],
			"type":"VEC3"
		},
		{
			"bufferView":4,
			"componentType":5126,
			"count":60,
			"type":"VEC3"
		},
		{
			"bufferView":5,
			"componentType":5123,
			"count":120,
			"type":"SCALAR"
		},
		{
			"bufferView":6,
			"componentType":5126,
			"count":26,
			"max":[
				0.5054059624671936,
				1.6204379796981812,
				0.6150208115577698
			],
			"min":[
				-0.5054061412811279,
				1.571075439453125,
				-0.5054059624671936
			],
			"type":"VEC3"
		},
		{
			"bufferView":7,
			"componentType":5126,
			"count":26,
			"type":"VEC3"
		},
		{
			"bufferView":8,
			"componentType":5123,
			"count":48,
			"type":"SCALAR"
		}
	],
	"bufferViews":[
		{
			"buffer":0,
			"byteLength":576,
			"byteOffset":0,
			"target":34962
		},
		{
			"buffer":0,
			"byteLength":576,
			"byteOffset":576,
			"target":34962
		},
		{
			"buffer":0,
			"byteLength":168,
			"byteOffset":1152,
			"target":34963
		},
		{
			"buffer":0,
			"byteLength":720,
			"byteOffset":1320,
			"target":34962
		},
		{
			"buffer":0,
			"byteLength":720,
			"byteOffset":2040,
			"target":34962
		},
		{
			"buffer":0,
			"byteLength":240,
			"byteOffset":2760,
			"target":34963
		},
		{
			"buffer":0,
			"byteLength":312,
			"byteOffset":3000,
			"target":34962
		},
		{
			"buffer":0,
			"byteLength":312,
			"byteOffset":3312,
			"target":34962
		},
		{
			"buffer":0,
			"byteLength":96,
			"byteOffset":3624,
			"target":34963
		}
	],
	"buffers":[
		{
			"byteLength":3720,
			"uri":"Kitchen_1Drawers-9d6b5629aac8548ed638f991eafd0871.bin"
		}
	]
}
