{
	"asset":{
		"generator":"Khronos glTF Blender I/O v4.4.55",
		"version":"2.0"
	},
	"scene":0,
	"scenes":[
		{
			"name":"Scene",
			"nodes":[
				0
			]
		}
	],
	"nodes":[
		{
			"mesh":0,
			"name":"Kitchen_2Drawers"
		}
	],
	"materials":[
		{
			"doubleSided":true,
			"name":"Kitchen",
			"pbrMetallicRoughness":{
				"baseColorFactor":[
					0.12968529760837555,
					0.16794617474079132,
					0.14458946883678436,
					1
				],
				"metallicFactor":0,
				"roughnessFactor":0.5
			}
		},
		{
			"doubleSided":true,
			"name":"White",
			"pbrMetallicRoughness":{
				"baseColorFactor":[
					0.44797539710998535,
					0.443290650844574,
					0.4294084906578064,
					1
				],
				"metallicFactor":0,
				"roughnessFactor":0.5
			}
		},
		{
			"doubleSided":true,
			"name":"KitchenTop",
			"pbrMetallicRoughness":{
				"baseColorFactor":[
					0.2738257348537445,
					0.2710132598876953,
					0.26267725229263306,
					1
				],
				"metallicFactor":0,
				"roughnessFactor":0.5
			}
		}
	],
	"meshes":[
		{
			"name":"Cube.078",
			"primitives":[
				{
					"attributes":{
						"POSITION":0,
						"NORMAL":1
					},
					"indices":2,
					"material":0
				},
				{
					"attributes":{
						"POSITION":3,
						"NORMAL":4
					},
					"indices":5,
					"material":1
				},
				{
					"attributes":{
						"POSITION":6,
						"NORMAL":7
					},
					"indices":8,
					"material":2
				}
			]
		}
	],
	"accessors":[
		{
			"bufferView":0,
			"componentType":5126,
			"count":80,
			"max":[
				0.5054061412811279,
				1.5751757621765137,
				0.6150208115577698
			],
			"min":[
				-0.5054056644439697,
				0,
				-0.5054059624671936
			],
			"type":"VEC3"
		},
		{
			"bufferView":1,
			"componentType":5126,
			"count":80,
			"type":"VEC3"
		},
		{
			"bufferView":2,
			"componentType":5123,
			"count":156,
			"type":"SCALAR"
		},
		{
			"bufferView":3,
			"componentType":5126,
			"count":120,
			"max":[
				0.11395483464002609,
				1.4401224851608276,
				0.5660589933395386
			],
			"min":[
				-0.11395438015460968,
				0.4131692051887512,
				0.5125958919525146
			],
			"type":"VEC3"
		},
		{
			"bufferView":4,
			"componentType":5126,
			"count":120,
			"type":"VEC3"
		},
		{
			"bufferView":5,
			"componentType":5123,
			"count":240,
			"type":"SCALAR"
		},
		{
			"bufferView":6,
			"componentType":5126,
			"count":26,
			"max":[
				0.5054061412811279,
				1.6245383024215698,
				0.6150208115577698
			],
			"min":[
				-0.505405604839325,
				1.5751757621765137,
				-0.5054059624671936
			],
			"type":"VEC3"
		},
		{
			"bufferView":7,
			"componentType":5126,
			"count":26,
			"type":"VEC3"
		},
		{
			"bufferView":8,
			"componentType":5123,
			"count":48,
			"type":"SCALAR"
		}
	],
	"bufferViews":[
		{
			"buffer":0,
			"byteLength":960,
			"byteOffset":0,
			"target":34962
		},
		{
			"buffer":0,
			"byteLength":960,
			"byteOffset":960,
			"target":34962
		},
		{
			"buffer":0,
			"byteLength":312,
			"byteOffset":1920,
			"target":34963
		},
		{
			"buffer":0,
			"byteLength":1440,
			"byteOffset":2232,
			"target":34962
		},
		{
			"buffer":0,
			"byteLength":1440,
			"byteOffset":3672,
			"target":34962
		},
		{
			"buffer":0,
			"byteLength":480,
			"byteOffset":5112,
			"target":34963
		},
		{
			"buffer":0,
			"byteLength":312,
			"byteOffset":5592,
			"target":34962
		},
		{
			"buffer":0,
			"byteLength":312,
			"byteOffset":5904,
			"target":34962
		},
		{
			"buffer":0,
			"byteLength":96,
			"byteOffset":6216,
			"target":34963
		}
	],
	"buffers":[
		{
			"byteLength":6312,
			"uri":"Kitchen_2Drawers-01d481f7eb6791539c5873a6359e9458.bin"
		}
	]
}
