{
	"asset":{
		"generator":"Khronos glTF Blender I/O v4.4.55",
		"version":"2.0"
	},
	"scene":0,
	"scenes":[
		{
			"name":"Scene",
			"nodes":[
				0
			]
		}
	],
	"nodes":[
		{
			"mesh":0,
			"name":"Kitchen_Oven"
		}
	],
	"materials":[
		{
			"doubleSided":true,
			"name":"Kitchen",
			"pbrMetallicRoughness":{
				"baseColorFactor":[
					0.12968529760837555,
					0.16794617474079132,
					0.14458946883678436,
					1
				],
				"metallicFactor":0,
				"roughnessFactor":0.5
			}
		},
		{
			"doubleSided":true,
			"name":"White",
			"pbrMetallicRoughness":{
				"baseColorFactor":[
					0.44797539710998535,
					0.443290650844574,
					0.4294084906578064,
					1
				],
				"metallicFactor":0,
				"roughnessFactor":0.5
			}
		},
		{
			"doubleSided":true,
			"name":"LightMetal",
			"pbrMetallicRoughness":{
				"baseColorFactor":[
					0.1733521670103073,
					0.1733521670103073,
					0.1733521670103073,
					1
				],
				"metallicFactor":0,
				"roughnessFactor":0.5
			}
		},
		{
			"doubleSided":true,
			"name":"DarkMetal",
			"pbrMetallicRoughness":{
				"baseColorFactor":[
					0.09083539247512817,
					0.09083539247512817,
					0.09083539247512817,
					1
				],
				"metallicFactor":0,
				"roughnessFactor":0.5
			}
		},
		{
			"doubleSided":true,
			"name":"Glass"
		},
		{
			"doubleSided":true,
			"name":"KitchenTop",
			"pbrMetallicRoughness":{
				"baseColorFactor":[
					0.2738257348537445,
					0.2710132598876953,
					0.26267725229263306,
					1
				],
				"metallicFactor":0,
				"roughnessFactor":0.5
			}
		}
	],
	"meshes":[
		{
			"name":"Cube.080",
			"primitives":[
				{
					"attributes":{
						"POSITION":0,
						"NORMAL":1
					},
					"indices":2,
					"material":0
				},
				{
					"attributes":{
						"POSITION":3,
						"NORMAL":4
					},
					"indices":5,
					"material":1
				},
				{
					"attributes":{
						"POSITION":6,
						"NORMAL":7
					},
					"indices":8,
					"material":2
				},
				{
					"attributes":{
						"POSITION":9,
						"NORMAL":10
					},
					"indices":11,
					"material":3
				},
				{
					"attributes":{
						"POSITION":12,
						"NORMAL":13
					},
					"indices":14,
					"material":4
				},
				{
					"attributes":{
						"POSITION":15,
						"NORMAL":16
					},
					"indices":17,
					"material":5
				}
			]
		}
	],
	"accessors":[
		{
			"bufferView":0,
			"componentType":5126,
			"count":96,
			"max":[
				0.5054061412811279,
				1.5678249597549438,
				0.6150208115577698
			],
			"min":[
				-0.505405604839325,
				2.5525584423924386e-10,
				-0.5054059624671936
			],
			"type":"VEC3"
		},
		{
			"bufferView":1,
			"componentType":5126,
			"count":96,
			"type":"VEC3"
		},
		{
			"bufferView":2,
			"componentType":5123,
			"count":168,
			"type":"SCALAR"
		},
		{
			"bufferView":3,
			"componentType":5126,
			"count":120,
			"max":[
				0.11395496875047684,
				1.4253519773483276,
				0.5660589933395386
			],
			"min":[
				-0.11395443975925446,
				0.19206933677196503,
				0.5125958919525146
			],
			"type":"VEC3"
		},
		{
			"bufferView":4,
			"componentType":5126,
			"count":120,
			"type":"VEC3"
		},
		{
			"bufferView":5,
			"componentType":5123,
			"count":240,
			"type":"SCALAR"
		},
		{
			"bufferView":6,
			"componentType":5126,
			"count":94,
			"max":[
				0.49450647830963135,
				1.2508100271224976,
				0.5162654519081116
			],
			"min":[
				-0.49450597167015076,
				0.819346010684967,
				-0.47482556104660034
			],
			"type":"VEC3"
		},
		{
			"bufferView":7,
			"componentType":5126,
			"count":94,
			"type":"VEC3"
		},
		{
			"bufferView":8,
			"componentType":5123,
			"count":192,
			"type":"SCALAR"
		},
		{
			"bufferView":9,
			"componentType":5126,
			"count":490,
			"max":[
				0.49450647830963135,
				1.2508100271224976,
				0.5471560955047607
			],
			"min":[
				-0.49450597167015076,
				0.3358685374259949,
				-0.47482556104660034
			],
			"type":"VEC3"
		},
		{
			"bufferView":10,
			"componentType":5126,
			"count":490,
			"type":"VEC3"
		},
		{
			"bufferView":11,
			"componentType":5123,
			"count":918,
			"type":"SCALAR"
		},
		{
			"bufferView":12,
			"componentType":5126,
			"count":4,
			"max":[
				0.3372337222099304,
				0.7563509345054626,
				0.4576132297515869
			],
			"min":[
				-0.33723321557044983,
				0.45643043518066406,
				0.4576132297515869
			],
			"type":"VEC3"
		},
		{
			"bufferView":13,
			"componentType":5126,
			"count":4,
			"type":"VEC3"
		},
		{
			"bufferView":14,
			"componentType":5123,
			"count":6,
			"type":"SCALAR"
		},
		{
			"bufferView":15,
			"componentType":5126,
			"count":26,
			"max":[
				0.5054061412811279,
				1.6171875,
				0.6150208115577698
			],
			"min":[
				-0.505405604839325,
				1.5678249597549438,
				-0.5054059624671936
			],
			"type":"VEC3"
		},
		{
			"bufferView":16,
			"componentType":5126,
			"count":26,
			"type":"VEC3"
		},
		{
			"bufferView":17,
			"componentType":5123,
			"count":48,
			"type":"SCALAR"
		}
	],
	"bufferViews":[
		{
			"buffer":0,
			"byteLength":1152,
			"byteOffset":0,
			"target":34962
		},
		{
			"buffer":0,
			"byteLength":1152,
			"byteOffset":1152,
			"target":34962
		},
		{
			"buffer":0,
			"byteLength":336,
			"byteOffset":2304,
			"target":34963
		},
		{
			"buffer":0,
			"byteLength":1440,
			"byteOffset":2640,
			"target":34962
		},
		{
			"buffer":0,
			"byteLength":1440,
			"byteOffset":4080,
			"target":34962
		},
		{
			"buffer":0,
			"byteLength":480,
			"byteOffset":5520,
			"target":34963
		},
		{
			"buffer":0,
			"byteLength":1128,
			"byteOffset":6000,
			"target":34962
		},
		{
			"buffer":0,
			"byteLength":1128,
			"byteOffset":7128,
			"target":34962
		},
		{
			"buffer":0,
			"byteLength":384,
			"byteOffset":8256,
			"target":34963
		},
		{
			"buffer":0,
			"byteLength":5880,
			"byteOffset":8640,
			"target":34962
		},
		{
			"buffer":0,
			"byteLength":5880,
			"byteOffset":14520,
			"target":34962
		},
		{
			"buffer":0,
			"byteLength":1836,
			"byteOffset":20400,
			"target":34963
		},
		{
			"buffer":0,
			"byteLength":48,
			"byteOffset":22236,
			"target":34962
		},
		{
			"buffer":0,
			"byteLength":48,
			"byteOffset":22284,
			"target":34962
		},
		{
			"buffer":0,
			"byteLength":12,
			"byteOffset":22332,
			"target":34963
		},
		{
			"buffer":0,
			"byteLength":312,
			"byteOffset":22344,
			"target":34962
		},
		{
			"buffer":0,
			"byteLength":312,
			"byteOffset":22656,
			"target":34962
		},
		{
			"buffer":0,
			"byteLength":96,
			"byteOffset":22968,
			"target":34963
		}
	],
	"buffers":[
		{
			"byteLength":23064,
			"uri":"Kitchen_Oven-b5cc2a47793b29d6d94ee010b0dd5485.bin"
		}
	]
}
