{
	"asset":{
		"generator":"Khronos glTF Blender I/O v4.4.55",
		"version":"2.0"
	},
	"scene":0,
	"scenes":[
		{
			"name":"Scene",
			"nodes":[
				0
			]
		}
	],
	"nodes":[
		{
			"mesh":0,
			"name":"Kitchen_Oven_Large"
		}
	],
	"materials":[
		{
			"doubleSided":true,
			"name":"Black",
			"pbrMetallicRoughness":{
				"baseColorFactor":[
					0.03521668538451195,
					0.03521668538451195,
					0.03521668538451195,
					1
				],
				"metallicFactor":0,
				"roughnessFactor":0.5
			}
		},
		{
			"doubleSided":true,
			"name":"White",
			"pbrMetallicRoughness":{
				"baseColorFactor":[
					0.44797539710998535,
					0.443290650844574,
					0.4294084906578064,
					1
				],
				"metallicFactor":0,
				"roughnessFactor":0.5
			}
		},
		{
			"doubleSided":true,
			"name":"LightMetal",
			"pbrMetallicRoughness":{
				"baseColorFactor":[
					0.1733521670103073,
					0.1733521670103073,
					0.1733521670103073,
					1
				],
				"metallicFactor":0,
				"roughnessFactor":0.5
			}
		},
		{
			"doubleSided":true,
			"name":"DarkMetal",
			"pbrMetallicRoughness":{
				"baseColorFactor":[
					0.09083539247512817,
					0.09083539247512817,
					0.09083539247512817,
					1
				],
				"metallicFactor":0,
				"roughnessFactor":0.5
			}
		},
		{
			"doubleSided":true,
			"name":"Glass"
		}
	],
	"meshes":[
		{
			"name":"Cylinder.019",
			"primitives":[
				{
					"attributes":{
						"POSITION":0,
						"NORMAL":1
					},
					"indices":2,
					"material":0
				},
				{
					"attributes":{
						"POSITION":3,
						"NORMAL":4
					},
					"indices":5,
					"material":1
				},
				{
					"attributes":{
						"POSITION":6,
						"NORMAL":7
					},
					"indices":8,
					"material":2
				},
				{
					"attributes":{
						"POSITION":9,
						"NORMAL":10
					},
					"indices":11,
					"material":3
				},
				{
					"attributes":{
						"POSITION":12,
						"NORMAL":13
					},
					"indices":14,
					"material":4
				}
			]
		}
	],
	"accessors":[
		{
			"bufferView":0,
			"componentType":5126,
			"count":372,
			"max":[
				0.5359734296798706,
				1.5926069021224976,
				0.5471561551094055
			],
			"min":[
				-0.5359734296798706,
				0.45358338952064514,
				-0.46911075711250305
			],
			"type":"VEC3"
		},
		{
			"bufferView":1,
			"componentType":5126,
			"count":372,
			"type":"VEC3"
		},
		{
			"bufferView":2,
			"componentType":5123,
			"count":1182,
			"type":"SCALAR"
		},
		{
			"bufferView":3,
			"componentType":5126,
			"count":32,
			"max":[
				0.4728124439716339,
				1.1669559478759766,
				0.47292467951774597
			],
			"min":[
				-0.4728124439716339,
				1.1051576137542725,
				0.45533812046051025
			],
			"type":"VEC3"
		},
		{
			"bufferView":4,
			"componentType":5126,
			"count":32,
			"type":"VEC3"
		},
		{
			"bufferView":5,
			"componentType":5123,
			"count":48,
			"type":"SCALAR"
		},
		{
			"bufferView":6,
			"componentType":5126,
			"count":148,
			"max":[
				0.5856096744537354,
				1.5640482902526855,
				0.5573346018791199
			],
			"min":[
				-0.5856096744537354,
				0,
				-0.5130286812782288
			],
			"type":"VEC3"
		},
		{
			"bufferView":7,
			"componentType":5126,
			"count":148,
			"type":"VEC3"
		},
		{
			"bufferView":8,
			"componentType":5123,
			"count":300,
			"type":"SCALAR"
		},
		{
			"bufferView":9,
			"componentType":5126,
			"count":22,
			"max":[
				0.5562106370925903,
				1.5319627523422241,
				0.47482556104660034
			],
			"min":[
				-0.5562106370925903,
				0.4119320213794708,
				-0.47482556104660034
			],
			"type":"VEC3"
		},
		{
			"bufferView":10,
			"componentType":5126,
			"count":22,
			"type":"VEC3"
		},
		{
			"bufferView":11,
			"componentType":5123,
			"count":48,
			"type":"SCALAR"
		},
		{
			"bufferView":12,
			"componentType":5126,
			"count":4,
			"max":[
				0.3783652186393738,
				1.037503719329834,
				0.475199818611145
			],
			"min":[
				-0.3783652186393738,
				0.5682873129844666,
				0.475199818611145
			],
			"type":"VEC3"
		},
		{
			"bufferView":13,
			"componentType":5126,
			"count":4,
			"type":"VEC3"
		},
		{
			"bufferView":14,
			"componentType":5123,
			"count":6,
			"type":"SCALAR"
		}
	],
	"bufferViews":[
		{
			"buffer":0,
			"byteLength":4464,
			"byteOffset":0,
			"target":34962
		},
		{
			"buffer":0,
			"byteLength":4464,
			"byteOffset":4464,
			"target":34962
		},
		{
			"buffer":0,
			"byteLength":2364,
			"byteOffset":8928,
			"target":34963
		},
		{
			"buffer":0,
			"byteLength":384,
			"byteOffset":11292,
			"target":34962
		},
		{
			"buffer":0,
			"byteLength":384,
			"byteOffset":11676,
			"target":34962
		},
		{
			"buffer":0,
			"byteLength":96,
			"byteOffset":12060,
			"target":34963
		},
		{
			"buffer":0,
			"byteLength":1776,
			"byteOffset":12156,
			"target":34962
		},
		{
			"buffer":0,
			"byteLength":1776,
			"byteOffset":13932,
			"target":34962
		},
		{
			"buffer":0,
			"byteLength":600,
			"byteOffset":15708,
			"target":34963
		},
		{
			"buffer":0,
			"byteLength":264,
			"byteOffset":16308,
			"target":34962
		},
		{
			"buffer":0,
			"byteLength":264,
			"byteOffset":16572,
			"target":34962
		},
		{
			"buffer":0,
			"byteLength":96,
			"byteOffset":16836,
			"target":34963
		},
		{
			"buffer":0,
			"byteLength":48,
			"byteOffset":16932,
			"target":34962
		},
		{
			"buffer":0,
			"byteLength":48,
			"byteOffset":16980,
			"target":34962
		},
		{
			"buffer":0,
			"byteLength":12,
			"byteOffset":17028,
			"target":34963
		}
	],
	"buffers":[
		{
			"byteLength":17040,
			"uri":"Kitchen_Oven_Large-f21f02878186202f3af01e8638d14f39.bin"
		}
	]
}
