{
	"asset":{
		"generator":"Khronos glTF Blender I/O v4.4.55",
		"version":"2.0"
	},
	"scene":0,
	"scenes":[
		{
			"name":"Scene",
			"nodes":[
				0
			]
		}
	],
	"nodes":[
		{
			"mesh":0,
			"name":"Kitchen_Sink"
		}
	],
	"materials":[
		{
			"doubleSided":true,
			"name":"Kitchen",
			"pbrMetallicRoughness":{
				"baseColorFactor":[
					0.12968529760837555,
					0.16794617474079132,
					0.14458946883678436,
					1
				],
				"metallicFactor":0,
				"roughnessFactor":0.5
			}
		},
		{
			"doubleSided":true,
			"name":"White",
			"pbrMetallicRoughness":{
				"baseColorFactor":[
					0.44797539710998535,
					0.443290650844574,
					0.4294084906578064,
					1
				],
				"metallicFactor":0,
				"roughnessFactor":0.5
			}
		},
		{
			"doubleSided":true,
			"name":"LightMetal",
			"pbrMetallicRoughness":{
				"baseColorFactor":[
					0.1733521670103073,
					0.1733521670103073,
					0.1733521670103073,
					1
				],
				"metallicFactor":0,
				"roughnessFactor":0.5
			}
		},
		{
			"doubleSided":true,
			"name":"KitchenTop",
			"pbrMetallicRoughness":{
				"baseColorFactor":[
					0.2738257348537445,
					0.2710132598876953,
					0.26267725229263306,
					1
				],
				"metallicFactor":0,
				"roughnessFactor":0.5
			}
		}
	],
	"meshes":[
		{
			"name":"Cube.067",
			"primitives":[
				{
					"attributes":{
						"POSITION":0,
						"NORMAL":1
					},
					"indices":2,
					"material":0
				},
				{
					"attributes":{
						"POSITION":3,
						"NORMAL":4
					},
					"indices":5,
					"material":1
				},
				{
					"attributes":{
						"POSITION":6,
						"NORMAL":7
					},
					"indices":8,
					"material":2
				},
				{
					"attributes":{
						"POSITION":9,
						"NORMAL":10
					},
					"indices":11,
					"material":3
				}
			]
		}
	],
	"accessors":[
		{
			"bufferView":0,
			"componentType":5126,
			"count":84,
			"max":[
				0.5054061412811279,
				1.6136313676834106,
				0.6150208115577698
			],
			"min":[
				-0.505405604839325,
				5.105116884784877e-10,
				-0.5054059624671936
			],
			"type":"VEC3"
		},
		{
			"bufferView":1,
			"componentType":5126,
			"count":84,
			"type":"VEC3"
		},
		{
			"bufferView":2,
			"componentType":5123,
			"count":138,
			"type":"SCALAR"
		},
		{
			"bufferView":3,
			"componentType":5126,
			"count":108,
			"max":[
				0.35769200325012207,
				1.6338410377502441,
				0.5660589933395386
			],
			"min":[
				-0.3576904237270355,
				1.215691328048706,
				-0.31466737389564514
			],
			"type":"VEC3"
		},
		{
			"bufferView":4,
			"componentType":5126,
			"count":108,
			"type":"VEC3"
		},
		{
			"bufferView":5,
			"componentType":5123,
			"count":204,
			"type":"SCALAR"
		},
		{
			"bufferView":6,
			"componentType":5126,
			"count":544,
			"max":[
				0.07146278023719788,
				1.9243956804275513,
				-0.19379188120365143
			],
			"min":[
				-0.07146156579256058,
				1.620847225189209,
				-0.4019118547439575
			],
			"type":"VEC3"
		},
		{
			"bufferView":7,
			"componentType":5126,
			"count":544,
			"type":"VEC3"
		},
		{
			"bufferView":8,
			"componentType":5123,
			"count":924,
			"type":"SCALAR"
		},
		{
			"bufferView":9,
			"componentType":5126,
			"count":30,
			"max":[
				0.5054061412811279,
				1.6136313676834106,
				0.6150208115577698
			],
			"min":[
				-0.505405604839325,
				1.5642688274383545,
				-0.5054059624671936
			],
			"type":"VEC3"
		},
		{
			"bufferView":10,
			"componentType":5126,
			"count":30,
			"type":"VEC3"
		},
		{
			"bufferView":11,
			"componentType":5123,
			"count":66,
			"type":"SCALAR"
		}
	],
	"bufferViews":[
		{
			"buffer":0,
			"byteLength":1008,
			"byteOffset":0,
			"target":34962
		},
		{
			"buffer":0,
			"byteLength":1008,
			"byteOffset":1008,
			"target":34962
		},
		{
			"buffer":0,
			"byteLength":276,
			"byteOffset":2016,
			"target":34963
		},
		{
			"buffer":0,
			"byteLength":1296,
			"byteOffset":2292,
			"target":34962
		},
		{
			"buffer":0,
			"byteLength":1296,
			"byteOffset":3588,
			"target":34962
		},
		{
			"buffer":0,
			"byteLength":408,
			"byteOffset":4884,
			"target":34963
		},
		{
			"buffer":0,
			"byteLength":6528,
			"byteOffset":5292,
			"target":34962
		},
		{
			"buffer":0,
			"byteLength":6528,
			"byteOffset":11820,
			"target":34962
		},
		{
			"buffer":0,
			"byteLength":1848,
			"byteOffset":18348,
			"target":34963
		},
		{
			"buffer":0,
			"byteLength":360,
			"byteOffset":20196,
			"target":34962
		},
		{
			"buffer":0,
			"byteLength":360,
			"byteOffset":20556,
			"target":34962
		},
		{
			"buffer":0,
			"byteLength":132,
			"byteOffset":20916,
			"target":34963
		}
	],
	"buffers":[
		{
			"byteLength":21048,
			"uri":"Kitchen_Sink-55110b706d3dfc4caedff91ab3d4c4b4.bin"
		}
	]
}
