{
	"asset":{
		"generator":"Khronos glTF Blender I/O v4.4.55",
		"version":"2.0"
	},
	"scene":0,
	"scenes":[
		{
			"name":"Scene",
			"nodes":[
				0
			]
		}
	],
	"nodes":[
		{
			"mesh":0,
			"name":"Kitchen_Fridge"
		}
	],
	"materials":[
		{
			"doubleSided":true,
			"name":"White",
			"pbrMetallicRoughness":{
				"baseColorFactor":[
					0.44797539710998535,
					0.443290650844574,
					0.4294084906578064,
					1
				],
				"metallicFactor":0,
				"roughnessFactor":0.5
			}
		},
		{
			"doubleSided":true,
			"name":"Black",
			"pbrMetallicRoughness":{
				"baseColorFactor":[
					0.03521668538451195,
					0.03521668538451195,
					0.03521668538451195,
					1
				],
				"metallicFactor":0,
				"roughnessFactor":0.5
			}
		}
	],
	"meshes":[
		{
			"name":"Cube.081",
			"primitives":[
				{
					"attributes":{
						"POSITION":0,
						"NORMAL":1
					},
					"indices":2,
					"material":0
				},
				{
					"attributes":{
						"POSITION":3,
						"NORMAL":4
					},
					"indices":5,
					"material":1
				}
			]
		}
	],
	"accessors":[
		{
			"bufferView":0,
			"componentType":5126,
			"count":488,
			"max":[
				0.6487962007522583,
				3.315549612045288,
				0.7175617218017578
			],
			"min":[
				-0.6487962007522583,
				0.007106217090040445,
				-0.5842981338500977
			],
			"type":"VEC3"
		},
		{
			"bufferView":1,
			"componentType":5126,
			"count":488,
			"type":"VEC3"
		},
		{
			"bufferView":2,
			"componentType":5123,
			"count":1140,
			"type":"SCALAR"
		},
		{
			"bufferView":3,
			"componentType":5126,
			"count":20,
			"max":[
				0.5798670053482056,
				3.230130910873413,
				-0.5320926308631897
			],
			"min":[
				-0.5798670053482056,
				0.1293824464082718,
				-0.532092809677124
			],
			"type":"VEC3"
		},
		{
			"bufferView":4,
			"componentType":5126,
			"count":20,
			"type":"VEC3"
		},
		{
			"bufferView":5,
			"componentType":5123,
			"count":72,
			"type":"SCALAR"
		}
	],
	"bufferViews":[
		{
			"buffer":0,
			"byteLength":5856,
			"byteOffset":0,
			"target":34962
		},
		{
			"buffer":0,
			"byteLength":5856,
			"byteOffset":5856,
			"target":34962
		},
		{
			"buffer":0,
			"byteLength":2280,
			"byteOffset":11712,
			"target":34963
		},
		{
			"buffer":0,
			"byteLength":240,
			"byteOffset":13992,
			"target":34962
		},
		{
			"buffer":0,
			"byteLength":240,
			"byteOffset":14232,
			"target":34962
		},
		{
			"buffer":0,
			"byteLength":144,
			"byteOffset":14472,
			"target":34963
		}
	],
	"buffers":[
		{
			"byteLength":14616,
			"uri":"Kitchen_Fridge-359072e36a24e522e0a19accca2f8ccb.bin"
		}
	]
}
