{
	"asset":{
		"generator":"Khronos glTF Blender I/O v4.4.55",
		"version":"2.0"
	},
	"scene":0,
	"scenes":[
		{
			"name":"Scene",
			"nodes":[
				0
			]
		}
	],
	"nodes":[
		{
			"mesh":0,
			"name":"Lamp2"
		}
	],
	"materials":[
		{
			"doubleSided":true,
			"name":"Metal"
		},
		{
			"doubleSided":true,
			"name":"Top"
		}
	],
	"meshes":[
		{
			"name":"Cylinder.002",
			"primitives":[
				{
					"attributes":{
						"POSITION":0,
						"NORMAL":1
					},
					"indices":2,
					"material":0
				},
				{
					"attributes":{
						"POSITION":3,
						"NORMAL":4
					},
					"indices":5,
					"material":1
				}
			]
		}
	],
	"accessors":[
		{
			"bufferView":0,
			"componentType":5126,
			"count":72,
			"max":[
				0.10589659214019775,
				0.9538925886154175,
				0.12377326190471649
			],
			"min":[
				-0.10616950690746307,
				-0.0006293654441833496,
				-0.12109950929880142
			],
			"type":"VEC3"
		},
		{
			"bufferView":1,
			"componentType":5126,
			"count":72,
			"type":"VEC3"
		},
		{
			"bufferView":2,
			"componentType":5123,
			"count":132,
			"type":"SCALAR"
		},
		{
			"bufferView":3,
			"componentType":5126,
			"count":96,
			"max":[
				0.11576388031244278,
				1.104600191116333,
				0.11465778201818466
			],
			"min":[
				-0.11555921286344528,
				0.7852160930633545,
				-0.1166653111577034
			],
			"type":"VEC3"
		},
		{
			"bufferView":4,
			"componentType":5126,
			"count":96,
			"type":"VEC3"
		},
		{
			"bufferView":5,
			"componentType":5123,
			"count":192,
			"type":"SCALAR"
		}
	],
	"bufferViews":[
		{
			"buffer":0,
			"byteLength":864,
			"byteOffset":0,
			"target":34962
		},
		{
			"buffer":0,
			"byteLength":864,
			"byteOffset":864,
			"target":34962
		},
		{
			"buffer":0,
			"byteLength":264,
			"byteOffset":1728,
			"target":34963
		},
		{
			"buffer":0,
			"byteLength":1152,
			"byteOffset":1992,
			"target":34962
		},
		{
			"buffer":0,
			"byteLength":1152,
			"byteOffset":3144,
			"target":34962
		},
		{
			"buffer":0,
			"byteLength":384,
			"byteOffset":4296,
			"target":34963
		}
	],
	"buffers":[
		{
			"byteLength":4680,
			"uri":"Lamp2-1d68a1be7d63f05eed36b208ca16a224.bin"
		}
	]
}
