{
	"asset":{
		"generator":"Khronos glTF Blender I/O v4.4.55",
		"version":"2.0"
	},
	"scene":0,
	"scenes":[
		{
			"name":"Scene",
			"nodes":[
				0
			]
		}
	],
	"nodes":[
		{
			"mesh":0,
			"name":"Light_Floor2"
		}
	],
	"materials":[
		{
			"doubleSided":true,
			"name":"White",
			"pbrMetallicRoughness":{
				"baseColorFactor":[
					0.44797539710998535,
					0.443290650844574,
					0.4294084906578064,
					1
				],
				"metallicFactor":0,
				"roughnessFactor":0.5
			}
		},
		{
			"doubleSided":true,
			"name":"LightMetal",
			"pbrMetallicRoughness":{
				"baseColorFactor":[
					0.1733521670103073,
					0.1733521670103073,
					0.1733521670103073,
					1
				],
				"metallicFactor":0,
				"roughnessFactor":0.5
			}
		}
	],
	"meshes":[
		{
			"name":"Cylinder.003",
			"primitives":[
				{
					"attributes":{
						"POSITION":0,
						"NORMAL":1
					},
					"indices":2,
					"material":0
				},
				{
					"attributes":{
						"POSITION":3,
						"NORMAL":4
					},
					"indices":5,
					"material":1
				}
			]
		}
	],
	"accessors":[
		{
			"bufferView":0,
			"componentType":5126,
			"count":80,
			"max":[
				0.15664413571357727,
				0.7510496973991394,
				0.16470420360565186
			],
			"min":[
				-0.15664413571357727,
				0.4312307834625244,
				-0.16470657289028168
			],
			"type":"VEC3"
		},
		{
			"bufferView":1,
			"componentType":5126,
			"count":80,
			"type":"VEC3"
		},
		{
			"bufferView":2,
			"componentType":5123,
			"count":240,
			"type":"SCALAR"
		},
		{
			"bufferView":3,
			"componentType":5126,
			"count":160,
			"max":[
				0.15390606224536896,
				0.7566992044448853,
				0.15390491485595703
			],
			"min":[
				-0.15390610694885254,
				0,
				-0.15390726923942566
			],
			"type":"VEC3"
		},
		{
			"bufferView":4,
			"componentType":5126,
			"count":160,
			"type":"VEC3"
		},
		{
			"bufferView":5,
			"componentType":5123,
			"count":588,
			"type":"SCALAR"
		}
	],
	"bufferViews":[
		{
			"buffer":0,
			"byteLength":960,
			"byteOffset":0,
			"target":34962
		},
		{
			"buffer":0,
			"byteLength":960,
			"byteOffset":960,
			"target":34962
		},
		{
			"buffer":0,
			"byteLength":480,
			"byteOffset":1920,
			"target":34963
		},
		{
			"buffer":0,
			"byteLength":1920,
			"byteOffset":2400,
			"target":34962
		},
		{
			"buffer":0,
			"byteLength":1920,
			"byteOffset":4320,
			"target":34962
		},
		{
			"buffer":0,
			"byteLength":1176,
			"byteOffset":6240,
			"target":34963
		}
	],
	"buffers":[
		{
			"byteLength":7416,
			"uri":"Light_Floor2-bcdca7dfcad8b86c354e5eb5a4c83bfa.bin"
		}
	]
}
