{
	"asset":{
		"generator":"Khronos glTF Blender I/O v4.4.55",
		"version":"2.0"
	},
	"extensionsUsed":[
		"KHR_materials_emissive_strength"
	],
	"scene":0,
	"scenes":[
		{
			"name":"Scene",
			"nodes":[
				0
			]
		}
	],
	"nodes":[
		{
			"mesh":0,
			"name":"Light_Small"
		}
	],
	"materials":[
		{
			"doubleSided":true,
			"name":"Grey",
			"pbrMetallicRoughness":{
				"baseColorFactor":[
					0.2597948908805847,
					0.25713229179382324,
					0.24924027919769287,
					1
				],
				"metallicFactor":0,
				"roughnessFactor":0.5
			}
		},
		{
			"doubleSided":true,
			"emissiveFactor":[
				1,
				0.8648663731038833,
				0.4208727177197292
			],
			"extensions":{
				"KHR_materials_emissive_strength":{
					"emissiveStrength":2.0000001788139343
				}
			},
			"name":"Light",
			"pbrMetallicRoughness":{
				"baseColorFactor":[
					0,
					0,
					0,
					1
				]
			}
		}
	],
	"meshes":[
		{
			"name":"Cylinder.055",
			"primitives":[
				{
					"attributes":{
						"POSITION":0,
						"NORMAL":1
					},
					"indices":2,
					"material":0
				},
				{
					"attributes":{
						"POSITION":3,
						"NORMAL":4
					},
					"indices":5,
					"material":1
				}
			]
		}
	],
	"accessors":[
		{
			"bufferView":0,
			"componentType":5126,
			"count":50,
			"max":[
				0.07759424299001694,
				-0.0034422234166413546,
				0.08158742636442184
			],
			"min":[
				-0.07759428024291992,
				-0.01668217033147812,
				-0.08158742636442184
			],
			"type":"VEC3"
		},
		{
			"bufferView":1,
			"componentType":5126,
			"count":50,
			"type":"VEC3"
		},
		{
			"bufferView":2,
			"componentType":5123,
			"count":144,
			"type":"SCALAR"
		},
		{
			"bufferView":3,
			"componentType":5126,
			"count":40,
			"max":[
				0.050531890243291855,
				-0.01668217033147812,
				0.053132373839616776
			],
			"min":[
				-0.05053190514445305,
				-0.10988043993711472,
				-0.053132373839616776
			],
			"type":"VEC3"
		},
		{
			"bufferView":4,
			"componentType":5126,
			"count":40,
			"type":"VEC3"
		},
		{
			"bufferView":5,
			"componentType":5123,
			"count":204,
			"type":"SCALAR"
		}
	],
	"bufferViews":[
		{
			"buffer":0,
			"byteLength":600,
			"byteOffset":0,
			"target":34962
		},
		{
			"buffer":0,
			"byteLength":600,
			"byteOffset":600,
			"target":34962
		},
		{
			"buffer":0,
			"byteLength":288,
			"byteOffset":1200,
			"target":34963
		},
		{
			"buffer":0,
			"byteLength":480,
			"byteOffset":1488,
			"target":34962
		},
		{
			"buffer":0,
			"byteLength":480,
			"byteOffset":1968,
			"target":34962
		},
		{
			"buffer":0,
			"byteLength":408,
			"byteOffset":2448,
			"target":34963
		}
	],
	"buffers":[
		{
			"byteLength":2856,
			"uri":"Light_Small-d77ba722167d4d7f84f254470448f8de.bin"
		}
	]
}
