{
	"asset":{
		"generator":"Khronos glTF Blender I/O v4.4.55",
		"version":"2.0"
	},
	"extensionsUsed":[
		"KHR_materials_emissive_strength"
	],
	"scene":0,
	"scenes":[
		{
			"name":"Scene",
			"nodes":[
				0
			]
		}
	],
	"nodes":[
		{
			"mesh":0,
			"name":"Light_Cube"
		}
	],
	"materials":[
		{
			"doubleSided":true,
			"name":"Grey",
			"pbrMetallicRoughness":{
				"baseColorFactor":[
					0.2597948908805847,
					0.25713229179382324,
					0.24924027919769287,
					1
				],
				"metallicFactor":0,
				"roughnessFactor":0.5
			}
		},
		{
			"doubleSided":true,
			"emissiveFactor":[
				1,
				0.8648663731038833,
				0.4208727177197292
			],
			"extensions":{
				"KHR_materials_emissive_strength":{
					"emissiveStrength":2.0000001788139343
				}
			},
			"name":"Light",
			"pbrMetallicRoughness":{
				"baseColorFactor":[
					0,
					0,
					0,
					1
				]
			}
		},
		{
			"doubleSided":true,
			"name":"LightMetal",
			"pbrMetallicRoughness":{
				"baseColorFactor":[
					0.1733521670103073,
					0.1733521670103073,
					0.1733521670103073,
					1
				],
				"metallicFactor":0,
				"roughnessFactor":0.5
			}
		},
		{
			"doubleSided":true,
			"name":"White",
			"pbrMetallicRoughness":{
				"baseColorFactor":[
					0.44797539710998535,
					0.443290650844574,
					0.4294084906578064,
					1
				],
				"metallicFactor":0,
				"roughnessFactor":0.5
			}
		}
	],
	"meshes":[
		{
			"name":"Cylinder.052",
			"primitives":[
				{
					"attributes":{
						"POSITION":0,
						"NORMAL":1
					},
					"indices":2,
					"material":0
				},
				{
					"attributes":{
						"POSITION":3,
						"NORMAL":4
					},
					"indices":5,
					"material":1
				},
				{
					"attributes":{
						"POSITION":6,
						"NORMAL":7
					},
					"indices":8,
					"material":2
				},
				{
					"attributes":{
						"POSITION":9,
						"NORMAL":10
					},
					"indices":11,
					"material":3
				}
			]
		}
	],
	"accessors":[
		{
			"bufferView":0,
			"componentType":5126,
			"count":88,
			"max":[
				0.1042756661772728,
				0.0015175341395661235,
				0.1096419245004654
			],
			"min":[
				-0.1042756661772728,
				-0.5231603980064392,
				-0.1096419245004654
			],
			"type":"VEC3"
		},
		{
			"bufferView":1,
			"componentType":5126,
			"count":88,
			"type":"VEC3"
		},
		{
			"bufferView":2,
			"componentType":5123,
			"count":234,
			"type":"SCALAR"
		},
		{
			"bufferView":3,
			"componentType":5126,
			"count":24,
			"max":[
				0.2659752368927002,
				-0.4858573377132416,
				0.2659752666950226
			],
			"min":[
				-0.2659752368927002,
				-1.017807960510254,
				-0.2659752666950226
			],
			"type":"VEC3"
		},
		{
			"bufferView":4,
			"componentType":5126,
			"count":24,
			"type":"VEC3"
		},
		{
			"bufferView":5,
			"componentType":5123,
			"count":36,
			"type":"SCALAR"
		},
		{
			"bufferView":6,
			"componentType":5126,
			"count":24,
			"max":[
				0.00579288462176919,
				-0.01123043429106474,
				0.005792886018753052
			],
			"min":[
				-0.005792887881398201,
				-0.5231603980064392,
				-0.005792886950075626
			],
			"type":"VEC3"
		},
		{
			"bufferView":7,
			"componentType":5126,
			"count":24,
			"type":"VEC3"
		},
		{
			"bufferView":8,
			"componentType":5123,
			"count":66,
			"type":"SCALAR"
		},
		{
			"bufferView":9,
			"componentType":5126,
			"count":552,
			"max":[
				0.2818787395954132,
				-0.4699544608592987,
				0.2818780839443207
			],
			"min":[
				-0.2818772792816162,
				-1.0337107181549072,
				-0.2818780839443207
			],
			"type":"VEC3"
		},
		{
			"bufferView":10,
			"componentType":5126,
			"count":552,
			"type":"VEC3"
		},
		{
			"bufferView":11,
			"componentType":5123,
			"count":768,
			"type":"SCALAR"
		}
	],
	"bufferViews":[
		{
			"buffer":0,
			"byteLength":1056,
			"byteOffset":0,
			"target":34962
		},
		{
			"buffer":0,
			"byteLength":1056,
			"byteOffset":1056,
			"target":34962
		},
		{
			"buffer":0,
			"byteLength":468,
			"byteOffset":2112,
			"target":34963
		},
		{
			"buffer":0,
			"byteLength":288,
			"byteOffset":2580,
			"target":34962
		},
		{
			"buffer":0,
			"byteLength":288,
			"byteOffset":2868,
			"target":34962
		},
		{
			"buffer":0,
			"byteLength":72,
			"byteOffset":3156,
			"target":34963
		},
		{
			"buffer":0,
			"byteLength":288,
			"byteOffset":3228,
			"target":34962
		},
		{
			"buffer":0,
			"byteLength":288,
			"byteOffset":3516,
			"target":34962
		},
		{
			"buffer":0,
			"byteLength":132,
			"byteOffset":3804,
			"target":34963
		},
		{
			"buffer":0,
			"byteLength":6624,
			"byteOffset":3936,
			"target":34962
		},
		{
			"buffer":0,
			"byteLength":6624,
			"byteOffset":10560,
			"target":34962
		},
		{
			"buffer":0,
			"byteLength":1536,
			"byteOffset":17184,
			"target":34963
		}
	],
	"buffers":[
		{
			"byteLength":18720,
			"uri":"Light_Cube-a955e92a704ebe3e72eedb81136c8727.bin"
		}
	]
}
