{
	"asset":{
		"generator":"Khronos glTF Blender I/O v4.4.55",
		"version":"2.0"
	},
	"scene":0,
	"scenes":[
		{
			"name":"Scene",
			"nodes":[
				0
			]
		}
	],
	"nodes":[
		{
			"mesh":0,
			"name":"Light_Desk"
		}
	],
	"materials":[
		{
			"doubleSided":true,
			"name":"Black",
			"pbrMetallicRoughness":{
				"baseColorFactor":[
					0.03521668538451195,
					0.03521668538451195,
					0.03521668538451195,
					1
				],
				"metallicFactor":0,
				"roughnessFactor":0.5
			}
		},
		{
			"doubleSided":true,
			"name":"LightMetal",
			"pbrMetallicRoughness":{
				"baseColorFactor":[
					0.1733521670103073,
					0.1733521670103073,
					0.1733521670103073,
					1
				],
				"metallicFactor":0,
				"roughnessFactor":0.5
			}
		},
		{
			"doubleSided":true,
			"name":"White",
			"pbrMetallicRoughness":{
				"baseColorFactor":[
					0.44797539710998535,
					0.443290650844574,
					0.4294084906578064,
					1
				],
				"metallicFactor":0,
				"roughnessFactor":0.5
			}
		}
	],
	"meshes":[
		{
			"name":"Cylinder.001",
			"primitives":[
				{
					"attributes":{
						"POSITION":0,
						"NORMAL":1
					},
					"indices":2,
					"material":0
				},
				{
					"attributes":{
						"POSITION":3,
						"NORMAL":4
					},
					"indices":5,
					"material":1
				},
				{
					"attributes":{
						"POSITION":6,
						"NORMAL":7
					},
					"indices":8,
					"material":2
				}
			]
		}
	],
	"accessors":[
		{
			"bufferView":0,
			"componentType":5126,
			"count":152,
			"max":[
				0.1257646679878235,
				0.5733581781387329,
				0.327409565448761
			],
			"min":[
				-0.1257646679878235,
				0.00015469072968699038,
				-0.1257646679878235
			],
			"type":"VEC3"
		},
		{
			"bufferView":1,
			"componentType":5126,
			"count":152,
			"type":"VEC3"
		},
		{
			"bufferView":2,
			"componentType":5123,
			"count":582,
			"type":"SCALAR"
		},
		{
			"bufferView":3,
			"componentType":5126,
			"count":112,
			"max":[
				0.04842491075396538,
				0.5557193160057068,
				0.1465798318386078
			],
			"min":[
				-0.04842478781938553,
				0.03325645998120308,
				-0.08958988636732101
			],
			"type":"VEC3"
		},
		{
			"bufferView":4,
			"componentType":5126,
			"count":112,
			"type":"VEC3"
		},
		{
			"bufferView":5,
			"componentType":5123,
			"count":420,
			"type":"SCALAR"
		},
		{
			"bufferView":6,
			"componentType":5126,
			"count":24,
			"max":[
				0.08487144857645035,
				0.5061472058296204,
				0.31949111819267273
			],
			"min":[
				-0.0848713219165802,
				0.32115617394447327,
				0.14587125182151794
			],
			"type":"VEC3"
		},
		{
			"bufferView":7,
			"componentType":5126,
			"count":24,
			"type":"VEC3"
		},
		{
			"bufferView":8,
			"componentType":5123,
			"count":66,
			"type":"SCALAR"
		}
	],
	"bufferViews":[
		{
			"buffer":0,
			"byteLength":1824,
			"byteOffset":0,
			"target":34962
		},
		{
			"buffer":0,
			"byteLength":1824,
			"byteOffset":1824,
			"target":34962
		},
		{
			"buffer":0,
			"byteLength":1164,
			"byteOffset":3648,
			"target":34963
		},
		{
			"buffer":0,
			"byteLength":1344,
			"byteOffset":4812,
			"target":34962
		},
		{
			"buffer":0,
			"byteLength":1344,
			"byteOffset":6156,
			"target":34962
		},
		{
			"buffer":0,
			"byteLength":840,
			"byteOffset":7500,
			"target":34963
		},
		{
			"buffer":0,
			"byteLength":288,
			"byteOffset":8340,
			"target":34962
		},
		{
			"buffer":0,
			"byteLength":288,
			"byteOffset":8628,
			"target":34962
		},
		{
			"buffer":0,
			"byteLength":132,
			"byteOffset":8916,
			"target":34963
		}
	],
	"buffers":[
		{
			"byteLength":9048,
			"uri":"Light_Desk-c9ec7153638f82ddceb0c24ef125b0e0.bin"
		}
	]
}
