{
	"asset":{
		"generator":"Khronos glTF Blender I/O v4.4.55",
		"version":"2.0"
	},
	"extensionsUsed":[
		"KHR_materials_emissive_strength"
	],
	"scene":0,
	"scenes":[
		{
			"name":"Scene",
			"nodes":[
				0
			]
		}
	],
	"nodes":[
		{
			"mesh":0,
			"name":"Light_Icosahedron"
		}
	],
	"materials":[
		{
			"doubleSided":true,
			"name":"Grey",
			"pbrMetallicRoughness":{
				"baseColorFactor":[
					0.2597948908805847,
					0.25713229179382324,
					0.24924027919769287,
					1
				],
				"metallicFactor":0,
				"roughnessFactor":0.5
			}
		},
		{
			"doubleSided":true,
			"emissiveFactor":[
				1,
				0.8648663731038833,
				0.4208727177197292
			],
			"extensions":{
				"KHR_materials_emissive_strength":{
					"emissiveStrength":2.0000001788139343
				}
			},
			"name":"Light",
			"pbrMetallicRoughness":{
				"baseColorFactor":[
					0,
					0,
					0,
					1
				]
			}
		},
		{
			"doubleSided":true,
			"name":"LightMetal",
			"pbrMetallicRoughness":{
				"baseColorFactor":[
					0.1733521670103073,
					0.1733521670103073,
					0.1733521670103073,
					1
				],
				"metallicFactor":0,
				"roughnessFactor":0.5
			}
		},
		{
			"doubleSided":true,
			"name":"White",
			"pbrMetallicRoughness":{
				"baseColorFactor":[
					0.44797539710998535,
					0.443290650844574,
					0.4294084906578064,
					1
				],
				"metallicFactor":0,
				"roughnessFactor":0.5
			}
		}
	],
	"meshes":[
		{
			"name":"Cylinder.051",
			"primitives":[
				{
					"attributes":{
						"POSITION":0,
						"NORMAL":1
					},
					"indices":2,
					"material":0
				},
				{
					"attributes":{
						"POSITION":3,
						"NORMAL":4
					},
					"indices":5,
					"material":1
				},
				{
					"attributes":{
						"POSITION":6,
						"NORMAL":7
					},
					"indices":8,
					"material":2
				},
				{
					"attributes":{
						"POSITION":9,
						"NORMAL":10
					},
					"indices":11,
					"material":3
				}
			]
		}
	],
	"accessors":[
		{
			"bufferView":0,
			"componentType":5126,
			"count":96,
			"max":[
				0.1042756661772728,
				0.0015175341395661235,
				0.1096419245004654
			],
			"min":[
				-0.1042756661772728,
				-0.609626054763794,
				-0.1096419245004654
			],
			"type":"VEC3"
		},
		{
			"bufferView":1,
			"componentType":5126,
			"count":96,
			"type":"VEC3"
		},
		{
			"bufferView":2,
			"componentType":5123,
			"count":336,
			"type":"SCALAR"
		},
		{
			"bufferView":3,
			"componentType":5126,
			"count":32,
			"max":[
				0.043090954422950745,
				-0.609626054763794,
				0.04309095814824104
			],
			"min":[
				-0.043090954422950745,
				-0.7125665545463562,
				-0.04309095814824104
			],
			"type":"VEC3"
		},
		{
			"bufferView":4,
			"componentType":5126,
			"count":32,
			"type":"VEC3"
		},
		{
			"bufferView":5,
			"componentType":5123,
			"count":162,
			"type":"SCALAR"
		},
		{
			"bufferView":6,
			"componentType":5126,
			"count":24,
			"max":[
				0.00579288462176919,
				-0.01123043429106474,
				0.005792886018753052
			],
			"min":[
				-0.005792887881398201,
				-0.5231603980064392,
				-0.005792886950075626
			],
			"type":"VEC3"
		},
		{
			"bufferView":7,
			"componentType":5126,
			"count":24,
			"type":"VEC3"
		},
		{
			"bufferView":8,
			"componentType":5123,
			"count":66,
			"type":"SCALAR"
		},
		{
			"bufferView":9,
			"componentType":5126,
			"count":1920,
			"max":[
				0.2510753870010376,
				-0.3239594101905823,
				0.23964811861515045
			],
			"min":[
				-0.2510753870010376,
				-0.8782763481140137,
				-0.23964811861515045
			],
			"type":"VEC3"
		},
		{
			"bufferView":10,
			"componentType":5126,
			"count":1920,
			"type":"VEC3"
		},
		{
			"bufferView":11,
			"componentType":5123,
			"count":3096,
			"type":"SCALAR"
		}
	],
	"bufferViews":[
		{
			"buffer":0,
			"byteLength":1152,
			"byteOffset":0,
			"target":34962
		},
		{
			"buffer":0,
			"byteLength":1152,
			"byteOffset":1152,
			"target":34962
		},
		{
			"buffer":0,
			"byteLength":672,
			"byteOffset":2304,
			"target":34963
		},
		{
			"buffer":0,
			"byteLength":384,
			"byteOffset":2976,
			"target":34962
		},
		{
			"buffer":0,
			"byteLength":384,
			"byteOffset":3360,
			"target":34962
		},
		{
			"buffer":0,
			"byteLength":324,
			"byteOffset":3744,
			"target":34963
		},
		{
			"buffer":0,
			"byteLength":288,
			"byteOffset":4068,
			"target":34962
		},
		{
			"buffer":0,
			"byteLength":288,
			"byteOffset":4356,
			"target":34962
		},
		{
			"buffer":0,
			"byteLength":132,
			"byteOffset":4644,
			"target":34963
		},
		{
			"buffer":0,
			"byteLength":23040,
			"byteOffset":4776,
			"target":34962
		},
		{
			"buffer":0,
			"byteLength":23040,
			"byteOffset":27816,
			"target":34962
		},
		{
			"buffer":0,
			"byteLength":6192,
			"byteOffset":50856,
			"target":34963
		}
	],
	"buffers":[
		{
			"byteLength":57048,
			"uri":"Light_Icosahedron-6fde82c04799ff18d6674c6aecb31f57.bin"
		}
	]
}
