{
	"asset":{
		"generator":"Khronos glTF Blender I/O v4.4.55",
		"version":"2.0"
	},
	"extensionsUsed":[
		"KHR_materials_emissive_strength"
	],
	"scene":0,
	"scenes":[
		{
			"name":"Scene",
			"nodes":[
				0
			]
		}
	],
	"nodes":[
		{
			"mesh":0,
			"name":"Light_Ceiling1"
		}
	],
	"materials":[
		{
			"doubleSided":true,
			"name":"Grey",
			"pbrMetallicRoughness":{
				"baseColorFactor":[
					0.2597948908805847,
					0.25713229179382324,
					0.24924027919769287,
					1
				],
				"metallicFactor":0,
				"roughnessFactor":0.5
			}
		},
		{
			"doubleSided":true,
			"emissiveFactor":[
				1,
				0.8648663731038833,
				0.4208727177197292
			],
			"extensions":{
				"KHR_materials_emissive_strength":{
					"emissiveStrength":2.0000001788139343
				}
			},
			"name":"Light",
			"pbrMetallicRoughness":{
				"baseColorFactor":[
					0,
					0,
					0,
					1
				]
			}
		},
		{
			"doubleSided":true,
			"name":"LightMetal",
			"pbrMetallicRoughness":{
				"baseColorFactor":[
					0.1733521670103073,
					0.1733521670103073,
					0.1733521670103073,
					1
				],
				"metallicFactor":0,
				"roughnessFactor":0.5
			}
		}
	],
	"meshes":[
		{
			"name":"Cylinder.057",
			"primitives":[
				{
					"attributes":{
						"POSITION":0,
						"NORMAL":1
					},
					"indices":2,
					"material":0
				},
				{
					"attributes":{
						"POSITION":3,
						"NORMAL":4
					},
					"indices":5,
					"material":1
				},
				{
					"attributes":{
						"POSITION":6,
						"NORMAL":7
					},
					"indices":8,
					"material":2
				}
			]
		}
	],
	"accessors":[
		{
			"bufferView":0,
			"componentType":5126,
			"count":129,
			"max":[
				0.22025537490844727,
				-0.0010976650519296527,
				0.21350668370723724
			],
			"min":[
				-0.22025537490844727,
				-0.823136031627655,
				-0.22252026200294495
			],
			"type":"VEC3"
		},
		{
			"bufferView":1,
			"componentType":5126,
			"count":129,
			"type":"VEC3"
		},
		{
			"bufferView":2,
			"componentType":5123,
			"count":498,
			"type":"SCALAR"
		},
		{
			"bufferView":3,
			"componentType":5126,
			"count":44,
			"max":[
				0.03750406205654144,
				-0.6707485914230347,
				0.0363549068570137
			],
			"min":[
				-0.03750404343008995,
				-0.7967953085899353,
				-0.03788972645998001
			],
			"type":"VEC3"
		},
		{
			"bufferView":4,
			"componentType":5126,
			"count":44,
			"type":"VEC3"
		},
		{
			"bufferView":5,
			"componentType":5123,
			"count":225,
			"type":"SCALAR"
		},
		{
			"bufferView":6,
			"componentType":5126,
			"count":32,
			"max":[
				0.011426898650825024,
				-0.022152867168188095,
				0.011426901444792747
			],
			"min":[
				-0.011426905170083046,
				-0.6756567358970642,
				-0.011426902376115322
			],
			"type":"VEC3"
		},
		{
			"bufferView":7,
			"componentType":5126,
			"count":32,
			"type":"VEC3"
		},
		{
			"bufferView":8,
			"componentType":5123,
			"count":84,
			"type":"SCALAR"
		}
	],
	"bufferViews":[
		{
			"buffer":0,
			"byteLength":1548,
			"byteOffset":0,
			"target":34962
		},
		{
			"buffer":0,
			"byteLength":1548,
			"byteOffset":1548,
			"target":34962
		},
		{
			"buffer":0,
			"byteLength":996,
			"byteOffset":3096,
			"target":34963
		},
		{
			"buffer":0,
			"byteLength":528,
			"byteOffset":4092,
			"target":34962
		},
		{
			"buffer":0,
			"byteLength":528,
			"byteOffset":4620,
			"target":34962
		},
		{
			"buffer":0,
			"byteLength":450,
			"byteOffset":5148,
			"target":34963
		},
		{
			"buffer":0,
			"byteLength":384,
			"byteOffset":5600,
			"target":34962
		},
		{
			"buffer":0,
			"byteLength":384,
			"byteOffset":5984,
			"target":34962
		},
		{
			"buffer":0,
			"byteLength":168,
			"byteOffset":6368,
			"target":34963
		}
	],
	"buffers":[
		{
			"byteLength":6536,
			"uri":"Light_Ceiling1-c6fe471ab4a85a901468a99bba7463be.bin"
		}
	]
}
