{
	"asset":{
		"generator":"Khronos glTF Blender I/O v4.4.55",
		"version":"2.0"
	},
	"extensionsUsed":[
		"KHR_materials_emissive_strength"
	],
	"scene":0,
	"scenes":[
		{
			"name":"Scene",
			"nodes":[
				0
			]
		}
	],
	"nodes":[
		{
			"mesh":0,
			"name":"Light_CeilingSingle"
		}
	],
	"materials":[
		{
			"doubleSided":true,
			"name":"Grey",
			"pbrMetallicRoughness":{
				"baseColorFactor":[
					0.2597948908805847,
					0.25713229179382324,
					0.24924027919769287,
					1
				],
				"metallicFactor":0,
				"roughnessFactor":0.5
			}
		},
		{
			"doubleSided":true,
			"emissiveFactor":[
				1,
				0.8648663731038833,
				0.4208727177197292
			],
			"extensions":{
				"KHR_materials_emissive_strength":{
					"emissiveStrength":2.0000001788139343
				}
			},
			"name":"Light",
			"pbrMetallicRoughness":{
				"baseColorFactor":[
					0,
					0,
					0,
					1
				]
			}
		},
		{
			"doubleSided":true,
			"name":"LightMetal",
			"pbrMetallicRoughness":{
				"baseColorFactor":[
					0.1733521670103073,
					0.1733521670103073,
					0.1733521670103073,
					1
				],
				"metallicFactor":0,
				"roughnessFactor":0.5
			}
		}
	],
	"meshes":[
		{
			"name":"Cylinder.040",
			"primitives":[
				{
					"attributes":{
						"POSITION":0,
						"NORMAL":1
					},
					"indices":2,
					"material":0
				},
				{
					"attributes":{
						"POSITION":3,
						"NORMAL":4
					},
					"indices":5,
					"material":1
				},
				{
					"attributes":{
						"POSITION":6,
						"NORMAL":7
					},
					"indices":8,
					"material":2
				}
			]
		}
	],
	"accessors":[
		{
			"bufferView":0,
			"componentType":5126,
			"count":40,
			"max":[
				0.13211646676063538,
				0.001922703580930829,
				0.13891546428203583
			],
			"min":[
				-0.13211645185947418,
				-0.014759465120732784,
				-0.13891546428203583
			],
			"type":"VEC3"
		},
		{
			"bufferView":1,
			"componentType":5126,
			"count":40,
			"type":"VEC3"
		},
		{
			"bufferView":2,
			"componentType":5123,
			"count":108,
			"type":"SCALAR"
		},
		{
			"bufferView":3,
			"componentType":5126,
			"count":40,
			"max":[
				0.05459590256214142,
				-0.3913577198982239,
				0.05459590628743172
			],
			"min":[
				-0.05459590256214142,
				-0.4764605462551117,
				-0.05459590628743172
			],
			"type":"VEC3"
		},
		{
			"bufferView":4,
			"componentType":5126,
			"count":40,
			"type":"VEC3"
		},
		{
			"bufferView":5,
			"componentType":5123,
			"count":180,
			"type":"SCALAR"
		},
		{
			"bufferView":6,
			"componentType":5126,
			"count":136,
			"max":[
				0.10407327115535736,
				-0.01422887109220028,
				0.10407326370477676
			],
			"min":[
				-0.10407323390245438,
				-0.44919919967651367,
				-0.10407326370477676
			],
			"type":"VEC3"
		},
		{
			"bufferView":7,
			"componentType":5126,
			"count":136,
			"type":"VEC3"
		},
		{
			"bufferView":8,
			"componentType":5123,
			"count":408,
			"type":"SCALAR"
		}
	],
	"bufferViews":[
		{
			"buffer":0,
			"byteLength":480,
			"byteOffset":0,
			"target":34962
		},
		{
			"buffer":0,
			"byteLength":480,
			"byteOffset":480,
			"target":34962
		},
		{
			"buffer":0,
			"byteLength":216,
			"byteOffset":960,
			"target":34963
		},
		{
			"buffer":0,
			"byteLength":480,
			"byteOffset":1176,
			"target":34962
		},
		{
			"buffer":0,
			"byteLength":480,
			"byteOffset":1656,
			"target":34962
		},
		{
			"buffer":0,
			"byteLength":360,
			"byteOffset":2136,
			"target":34963
		},
		{
			"buffer":0,
			"byteLength":1632,
			"byteOffset":2496,
			"target":34962
		},
		{
			"buffer":0,
			"byteLength":1632,
			"byteOffset":4128,
			"target":34962
		},
		{
			"buffer":0,
			"byteLength":816,
			"byteOffset":5760,
			"target":34963
		}
	],
	"buffers":[
		{
			"byteLength":6576,
			"uri":"Light_CeilingSingle-267081f2ebd9439b794f0023e6eab8a5.bin"
		}
	]
}
