{
	"asset":{
		"generator":"Khronos glTF Blender I/O v4.4.55",
		"version":"2.0"
	},
	"extensionsUsed":[
		"KHR_materials_emissive_strength"
	],
	"scene":0,
	"scenes":[
		{
			"name":"Scene",
			"nodes":[
				0
			]
		}
	],
	"nodes":[
		{
			"mesh":0,
			"name":"Light_Ceiling2"
		}
	],
	"materials":[
		{
			"doubleSided":true,
			"name":"Grey",
			"pbrMetallicRoughness":{
				"baseColorFactor":[
					0.2597948908805847,
					0.25713229179382324,
					0.24924027919769287,
					1
				],
				"metallicFactor":0,
				"roughnessFactor":0.5
			}
		},
		{
			"doubleSided":true,
			"emissiveFactor":[
				1,
				0.8648663731038833,
				0.4208727177197292
			],
			"extensions":{
				"KHR_materials_emissive_strength":{
					"emissiveStrength":2.0000001788139343
				}
			},
			"name":"Light",
			"pbrMetallicRoughness":{
				"baseColorFactor":[
					0,
					0,
					0,
					1
				]
			}
		},
		{
			"doubleSided":true,
			"name":"LightMetal",
			"pbrMetallicRoughness":{
				"baseColorFactor":[
					0.1733521670103073,
					0.1733521670103073,
					0.1733521670103073,
					1
				],
				"metallicFactor":0,
				"roughnessFactor":0.5
			}
		}
	],
	"meshes":[
		{
			"name":"Cylinder.056",
			"primitives":[
				{
					"attributes":{
						"POSITION":0,
						"NORMAL":1
					},
					"indices":2,
					"material":0
				},
				{
					"attributes":{
						"POSITION":3,
						"NORMAL":4
					},
					"indices":5,
					"material":1
				},
				{
					"attributes":{
						"POSITION":6,
						"NORMAL":7
					},
					"indices":8,
					"material":2
				}
			]
		}
	],
	"accessors":[
		{
			"bufferView":0,
			"componentType":5126,
			"count":85,
			"max":[
				0.17456090450286865,
				-0.0010976650519296527,
				0.16921229660511017
			],
			"min":[
				-0.17456090450286865,
				-0.7431517243385315,
				-0.17635594308376312
			],
			"type":"VEC3"
		},
		{
			"bufferView":1,
			"componentType":5126,
			"count":85,
			"type":"VEC3"
		},
		{
			"bufferView":2,
			"componentType":5123,
			"count":273,
			"type":"SCALAR"
		},
		{
			"bufferView":3,
			"componentType":5126,
			"count":45,
			"max":[
				0.18040263652801514,
				-0.7431517243385315,
				0.17487499117851257
			],
			"min":[
				-0.18040259182453156,
				-1.0132147073745728,
				-0.18225771188735962
			],
			"type":"VEC3"
		},
		{
			"bufferView":4,
			"componentType":5126,
			"count":45,
			"type":"VEC3"
		},
		{
			"bufferView":5,
			"componentType":5123,
			"count":231,
			"type":"SCALAR"
		},
		{
			"bufferView":6,
			"componentType":5126,
			"count":32,
			"max":[
				0.011426898650825024,
				-0.022152867168188095,
				0.011426901444792747
			],
			"min":[
				-0.011426905170083046,
				-0.6756567358970642,
				-0.011426902376115322
			],
			"type":"VEC3"
		},
		{
			"bufferView":7,
			"componentType":5126,
			"count":32,
			"type":"VEC3"
		},
		{
			"bufferView":8,
			"componentType":5123,
			"count":84,
			"type":"SCALAR"
		}
	],
	"bufferViews":[
		{
			"buffer":0,
			"byteLength":1020,
			"byteOffset":0,
			"target":34962
		},
		{
			"buffer":0,
			"byteLength":1020,
			"byteOffset":1020,
			"target":34962
		},
		{
			"buffer":0,
			"byteLength":546,
			"byteOffset":2040,
			"target":34963
		},
		{
			"buffer":0,
			"byteLength":540,
			"byteOffset":2588,
			"target":34962
		},
		{
			"buffer":0,
			"byteLength":540,
			"byteOffset":3128,
			"target":34962
		},
		{
			"buffer":0,
			"byteLength":462,
			"byteOffset":3668,
			"target":34963
		},
		{
			"buffer":0,
			"byteLength":384,
			"byteOffset":4132,
			"target":34962
		},
		{
			"buffer":0,
			"byteLength":384,
			"byteOffset":4516,
			"target":34962
		},
		{
			"buffer":0,
			"byteLength":168,
			"byteOffset":4900,
			"target":34963
		}
	],
	"buffers":[
		{
			"byteLength":5068,
			"uri":"Light_Ceiling2-7b26aafdd8a4c37924f9c023e855a508.bin"
		}
	]
}
