{
	"asset":{
		"generator":"Khronos glTF Blender I/O v4.4.55",
		"version":"2.0"
	},
	"extensionsUsed":[
		"KHR_materials_emissive_strength"
	],
	"scene":0,
	"scenes":[
		{
			"name":"Scene",
			"nodes":[
				0
			]
		}
	],
	"nodes":[
		{
			"mesh":0,
			"name":"Light_Icosahedron2"
		}
	],
	"materials":[
		{
			"doubleSided":true,
			"name":"Grey",
			"pbrMetallicRoughness":{
				"baseColorFactor":[
					0.2597948908805847,
					0.25713229179382324,
					0.24924027919769287,
					1
				],
				"metallicFactor":0,
				"roughnessFactor":0.5
			}
		},
		{
			"doubleSided":true,
			"emissiveFactor":[
				1,
				0.8648663731038833,
				0.4208727177197292
			],
			"extensions":{
				"KHR_materials_emissive_strength":{
					"emissiveStrength":2.0000001788139343
				}
			},
			"name":"Light",
			"pbrMetallicRoughness":{
				"baseColorFactor":[
					0,
					0,
					0,
					1
				]
			}
		},
		{
			"doubleSided":true,
			"name":"LightMetal",
			"pbrMetallicRoughness":{
				"baseColorFactor":[
					0.1733521670103073,
					0.1733521670103073,
					0.1733521670103073,
					1
				],
				"metallicFactor":0,
				"roughnessFactor":0.5
			}
		},
		{
			"doubleSided":true,
			"name":"White",
			"pbrMetallicRoughness":{
				"baseColorFactor":[
					0.44797539710998535,
					0.443290650844574,
					0.4294084906578064,
					1
				],
				"metallicFactor":0,
				"roughnessFactor":0.5
			}
		}
	],
	"meshes":[
		{
			"name":"Cylinder.053",
			"primitives":[
				{
					"attributes":{
						"POSITION":0,
						"NORMAL":1
					},
					"indices":2,
					"material":0
				},
				{
					"attributes":{
						"POSITION":3,
						"NORMAL":4
					},
					"indices":5,
					"material":1
				},
				{
					"attributes":{
						"POSITION":6,
						"NORMAL":7
					},
					"indices":8,
					"material":2
				},
				{
					"attributes":{
						"POSITION":9,
						"NORMAL":10
					},
					"indices":11,
					"material":3
				}
			]
		}
	],
	"accessors":[
		{
			"bufferView":0,
			"componentType":5126,
			"count":216,
			"max":[
				0.6744740009307861,
				1.0999015387369582e-07,
				0.10964275896549225
			],
			"min":[
				-0.6744769215583801,
				-0.6111434698104858,
				-0.10964109003543854
			],
			"type":"VEC3"
		},
		{
			"bufferView":1,
			"componentType":5126,
			"count":216,
			"type":"VEC3"
		},
		{
			"bufferView":2,
			"componentType":5123,
			"count":816,
			"type":"SCALAR"
		},
		{
			"bufferView":3,
			"componentType":5126,
			"count":96,
			"max":[
				0.5969000458717346,
				-0.6111434698104858,
				0.0430917926132679
			],
			"min":[
				-0.6132922172546387,
				-0.7140839695930481,
				-0.04309011995792389
			],
			"type":"VEC3"
		},
		{
			"bufferView":4,
			"componentType":5126,
			"count":96,
			"type":"VEC3"
		},
		{
			"bufferView":5,
			"componentType":5123,
			"count":486,
			"type":"SCALAR"
		},
		{
			"bufferView":6,
			"componentType":5126,
			"count":72,
			"max":[
				0.5596019625663757,
				-0.01274785865098238,
				0.0057937223464250565
			],
			"min":[
				-0.5759941339492798,
				-0.5246778130531311,
				-0.005792050156742334
			],
			"type":"VEC3"
		},
		{
			"bufferView":7,
			"componentType":5126,
			"count":72,
			"type":"VEC3"
		},
		{
			"bufferView":8,
			"componentType":5123,
			"count":198,
			"type":"SCALAR"
		},
		{
			"bufferView":9,
			"componentType":5126,
			"count":5760,
			"max":[
				0.80488520860672,
				-0.32547682523727417,
				0.25107648968696594
			],
			"min":[
				-0.8212766647338867,
				-0.8797937631607056,
				-0.25107431411743164
			],
			"type":"VEC3"
		},
		{
			"bufferView":10,
			"componentType":5126,
			"count":5760,
			"type":"VEC3"
		},
		{
			"bufferView":11,
			"componentType":5123,
			"count":9288,
			"type":"SCALAR"
		}
	],
	"bufferViews":[
		{
			"buffer":0,
			"byteLength":2592,
			"byteOffset":0,
			"target":34962
		},
		{
			"buffer":0,
			"byteLength":2592,
			"byteOffset":2592,
			"target":34962
		},
		{
			"buffer":0,
			"byteLength":1632,
			"byteOffset":5184,
			"target":34963
		},
		{
			"buffer":0,
			"byteLength":1152,
			"byteOffset":6816,
			"target":34962
		},
		{
			"buffer":0,
			"byteLength":1152,
			"byteOffset":7968,
			"target":34962
		},
		{
			"buffer":0,
			"byteLength":972,
			"byteOffset":9120,
			"target":34963
		},
		{
			"buffer":0,
			"byteLength":864,
			"byteOffset":10092,
			"target":34962
		},
		{
			"buffer":0,
			"byteLength":864,
			"byteOffset":10956,
			"target":34962
		},
		{
			"buffer":0,
			"byteLength":396,
			"byteOffset":11820,
			"target":34963
		},
		{
			"buffer":0,
			"byteLength":69120,
			"byteOffset":12216,
			"target":34962
		},
		{
			"buffer":0,
			"byteLength":69120,
			"byteOffset":81336,
			"target":34962
		},
		{
			"buffer":0,
			"byteLength":18576,
			"byteOffset":150456,
			"target":34963
		}
	],
	"buffers":[
		{
			"byteLength":169032,
			"uri":"Light_Icosahedron2-f2daeab34db058dcc108321dd677ecf6.bin"
		}
	]
}
