{
	"asset":{
		"generator":"Khronos glTF Blender I/O v4.4.55",
		"version":"2.0"
	},
	"extensionsUsed":[
		"KHR_materials_emissive_strength"
	],
	"scene":0,
	"scenes":[
		{
			"name":"Scene",
			"nodes":[
				0
			]
		}
	],
	"nodes":[
		{
			"mesh":0,
			"name":"Light_Floor1"
		}
	],
	"materials":[
		{
			"doubleSided":true,
			"name":"Grey",
			"pbrMetallicRoughness":{
				"baseColorFactor":[
					0.2597948908805847,
					0.25713229179382324,
					0.24924027919769287,
					1
				],
				"metallicFactor":0,
				"roughnessFactor":0.5
			}
		},
		{
			"doubleSided":true,
			"emissiveFactor":[
				1,
				0.8648663731038833,
				0.4208727177197292
			],
			"extensions":{
				"KHR_materials_emissive_strength":{
					"emissiveStrength":2.0000001788139343
				}
			},
			"name":"Light",
			"pbrMetallicRoughness":{
				"baseColorFactor":[
					0,
					0,
					0,
					1
				]
			}
		},
		{
			"doubleSided":true,
			"name":"LightMetal",
			"pbrMetallicRoughness":{
				"baseColorFactor":[
					0.1733521670103073,
					0.1733521670103073,
					0.1733521670103073,
					1
				],
				"metallicFactor":0,
				"roughnessFactor":0.5
			}
		}
	],
	"meshes":[
		{
			"name":"Cylinder.054",
			"primitives":[
				{
					"attributes":{
						"POSITION":0,
						"NORMAL":1
					},
					"indices":2,
					"material":0
				},
				{
					"attributes":{
						"POSITION":3,
						"NORMAL":4
					},
					"indices":5,
					"material":1
				},
				{
					"attributes":{
						"POSITION":6,
						"NORMAL":7
					},
					"indices":8,
					"material":2
				}
			]
		}
	],
	"accessors":[
		{
			"bufferView":0,
			"componentType":5126,
			"count":40,
			"max":[
				0.14044633507728577,
				0.03217555582523346,
				0.14767400920391083
			],
			"min":[
				-0.14044632017612457,
				0.014441468752920628,
				-0.14767399430274963
			],
			"type":"VEC3"
		},
		{
			"bufferView":1,
			"componentType":5126,
			"count":40,
			"type":"VEC3"
		},
		{
			"bufferView":2,
			"componentType":5123,
			"count":108,
			"type":"SCALAR"
		},
		{
			"bufferView":3,
			"componentType":5126,
			"count":40,
			"max":[
				0.07232553511857986,
				1.6177042722702026,
				0.07232551276683807
			],
			"min":[
				-0.07232517749071121,
				1.5049653053283691,
				-0.0723252072930336
			],
			"type":"VEC3"
		},
		{
			"bufferView":4,
			"componentType":5126,
			"count":40,
			"type":"VEC3"
		},
		{
			"bufferView":5,
			"componentType":5123,
			"count":180,
			"type":"SCALAR"
		},
		{
			"bufferView":6,
			"componentType":5126,
			"count":128,
			"max":[
				0.13787011802196503,
				1.581590175628662,
				0.13787011802196503
			],
			"min":[
				-0.13786976039409637,
				0.018849540501832962,
				-0.13786979019641876
			],
			"type":"VEC3"
		},
		{
			"bufferView":7,
			"componentType":5126,
			"count":128,
			"type":"VEC3"
		},
		{
			"bufferView":8,
			"componentType":5123,
			"count":390,
			"type":"SCALAR"
		}
	],
	"bufferViews":[
		{
			"buffer":0,
			"byteLength":480,
			"byteOffset":0,
			"target":34962
		},
		{
			"buffer":0,
			"byteLength":480,
			"byteOffset":480,
			"target":34962
		},
		{
			"buffer":0,
			"byteLength":216,
			"byteOffset":960,
			"target":34963
		},
		{
			"buffer":0,
			"byteLength":480,
			"byteOffset":1176,
			"target":34962
		},
		{
			"buffer":0,
			"byteLength":480,
			"byteOffset":1656,
			"target":34962
		},
		{
			"buffer":0,
			"byteLength":360,
			"byteOffset":2136,
			"target":34963
		},
		{
			"buffer":0,
			"byteLength":1536,
			"byteOffset":2496,
			"target":34962
		},
		{
			"buffer":0,
			"byteLength":1536,
			"byteOffset":4032,
			"target":34962
		},
		{
			"buffer":0,
			"byteLength":780,
			"byteOffset":5568,
			"target":34963
		}
	],
	"buffers":[
		{
			"byteLength":6348,
			"uri":"Light_Floor1-2613d9b1a1e83a4c7c13e0a829aafc2b.bin"
		}
	]
}
