{
	"asset":{
		"generator":"Khronos glTF Blender I/O v4.4.55",
		"version":"2.0"
	},
	"scene":0,
	"scenes":[
		{
			"name":"Scene",
			"nodes":[
				0
			]
		}
	],
	"nodes":[
		{
			"mesh":0,
			"name":"NightStand_3"
		}
	],
	"materials":[
		{
			"doubleSided":true,
			"name":"Wood",
			"pbrMetallicRoughness":{
				"baseColorFactor":[
					0.11443537473678589,
					0.08865559101104736,
					0.05612849444150925,
					1
				],
				"metallicFactor":0,
				"roughnessFactor":0.5
			}
		},
		{
			"doubleSided":true,
			"name":"Metal",
			"pbrMetallicRoughness":{
				"baseColorFactor":[
					0.14730893075466156,
					0.11338981986045837,
					0.09997832775115967,
					1
				],
				"metallicFactor":0,
				"roughnessFactor":0.5
			}
		}
	],
	"meshes":[
		{
			"name":"Cube.006",
			"primitives":[
				{
					"attributes":{
						"POSITION":0,
						"NORMAL":1
					},
					"indices":2,
					"material":0
				},
				{
					"attributes":{
						"POSITION":3,
						"NORMAL":4
					},
					"indices":5,
					"material":1
				}
			]
		}
	],
	"accessors":[
		{
			"bufferView":0,
			"componentType":5126,
			"count":192,
			"max":[
				0.47611483931541443,
				0.8287132978439331,
				0.47611483931541443
			],
			"min":[
				-0.47611483931541443,
				0.0016610026359558105,
				-0.47611483931541443
			],
			"type":"VEC3"
		},
		{
			"bufferView":1,
			"componentType":5126,
			"count":192,
			"type":"VEC3"
		},
		{
			"bufferView":2,
			"componentType":5123,
			"count":360,
			"type":"SCALAR"
		},
		{
			"bufferView":3,
			"componentType":5126,
			"count":224,
			"max":[
				0.04383908957242966,
				0.6478571891784668,
				0.4614703059196472
			],
			"min":[
				-0.04383908957242966,
				0.23447847366333008,
				0.37826183438301086
			],
			"type":"VEC3"
		},
		{
			"bufferView":4,
			"componentType":5126,
			"count":224,
			"type":"VEC3"
		},
		{
			"bufferView":5,
			"componentType":5123,
			"count":456,
			"type":"SCALAR"
		}
	],
	"bufferViews":[
		{
			"buffer":0,
			"byteLength":2304,
			"byteOffset":0,
			"target":34962
		},
		{
			"buffer":0,
			"byteLength":2304,
			"byteOffset":2304,
			"target":34962
		},
		{
			"buffer":0,
			"byteLength":720,
			"byteOffset":4608,
			"target":34963
		},
		{
			"buffer":0,
			"byteLength":2688,
			"byteOffset":5328,
			"target":34962
		},
		{
			"buffer":0,
			"byteLength":2688,
			"byteOffset":8016,
			"target":34962
		},
		{
			"buffer":0,
			"byteLength":912,
			"byteOffset":10704,
			"target":34963
		}
	],
	"buffers":[
		{
			"byteLength":11616,
			"uri":"NightStand_3-7fd07930c51d3b1b37bf0dbfafdf40a8.bin"
		}
	]
}
