{
	"asset":{
		"generator":"Khronos glTF Blender I/O v4.4.55",
		"version":"2.0"
	},
	"extensionsUsed":[
		"KHR_materials_emissive_strength",
		"KHR_lights_punctual"
	],
	"extensionsRequired":[
		"KHR_lights_punctual"
	],
	"extensions":{
		"KHR_lights_punctual":{
			"lights":[
				{
					"color":[
						1,
						1,
						1
					],
					"intensity":54351.41306588226,
					"type":"point",
					"name":"Light"
				}
			]
		}
	},
	"scene":0,
	"scenes":[
		{
			"name":"Scene",
			"nodes":[
				0,
				1,
				2,
				3,
				4,
				5,
				6,
				7,
				8,
				9
			]
		}
	],
	"nodes":[
		{
			"mesh":0,
			"name":"Cube"
		},
		{
			"extensions":{
				"KHR_lights_punctual":{
					"light":0
				}
			},
			"name":"Light",
			"rotation":[
				-0.28416627645492554,
				0.7269423007965088,
				0.34203392267227173,
				0.5232754945755005
			],
			"translation":[
				4.076245307922363,
				5.903861999511719,
				-1.0054539442062378
			]
		},
		{
			"camera":0,
			"name":"Camera",
			"rotation":[
				-0.20997299253940582,
				0.3857799470424652,
				0.09062844514846802,
				0.8937962055206299
			],
			"translation":[
				7.358891487121582,
				4.958309173583984,
				6.925790786743164
			]
		},
		{
			"mesh":1,
			"name":"Cylinder",
			"translation":[
				1.0768473148345947,
				-1.0275403261184692,
				0.8364353775978088
			]
		},
		{
			"name":"Empty",
			"translation":[
				-0.09785044193267822,
				-0.9769039154052734,
				0.6039351224899292
			]
		},
		{
			"mesh":2,
			"name":"Cylinder.001",
			"rotation":[
				0.7071068286895752,
				0,
				0,
				0.7071068286895752
			],
			"scale":[
				0.7979154586791992,
				0.7979154586791992,
				0.7979154586791992
			],
			"translation":[
				1.1021685600280762,
				0.12027879059314728,
				0.9984942674636841
			]
		},
		{
			"mesh":3,
			"name":"Cylinder.002",
			"rotation":[
				0.7071068286895752,
				0,
				0,
				0.7071068286895752
			],
			"scale":[
				0.7979154586791992,
				0.7979154586791992,
				0.7979154586791992
			],
			"translation":[
				1.1059701442718506,
				0.5916793346405029,
				0.9984943270683289
			]
		},
		{
			"mesh":4,
			"name":"Cube.001",
			"scale":[
				0.24669526517391205,
				0.3465183973312378,
				0.027952108532190323
			],
			"translation":[
				1.1132290363311768,
				-0.5048673152923584,
				0.9999772310256958
			]
		},
		{
			"mesh":5,
			"name":"Cube.002",
			"scale":[
				1.0276859998703003,
				1.0276859998703003,
				1.0276859998703003
			],
			"translation":[
				0,
				0,
				-0.024515938013792038
			]
		},
		{
			"mesh":6,
			"name":"Cube.003"
		}
	],
	"cameras":[
		{
			"name":"Camera",
			"perspective":{
				"aspectRatio":1.7777777777777777,
				"yfov":0.39959652046304894,
				"zfar":100,
				"znear":0.10000000149011612
			},
			"type":"perspective"
		}
	],
	"materials":[
		{
			"doubleSided":true,
			"name":"screen.001",
			"pbrMetallicRoughness":{
				"baseColorTexture":{
					"index":0
				},
				"metallicFactor":0,
				"roughnessFactor":0.8722504377365112
			}
		},
		{
			"doubleSided":true,
			"emissiveFactor":[
				1,
				1,
				1
			],
			"emissiveTexture":{
				"index":1
			},
			"extensions":{
				"KHR_materials_emissive_strength":{
					"emissiveStrength":2.999999761581421
				}
			},
			"name":"screen",
			"pbrMetallicRoughness":{
				"baseColorTexture":{
					"index":2
				},
				"metallicFactor":0,
				"roughnessFactor":0.8722504377365112
			}
		}
	],
	"meshes":[
		{
			"name":"Cube",
			"primitives":[
				{
					"attributes":{
						"POSITION":0,
						"NORMAL":1,
						"TEXCOORD_0":2,
						"TANGENT":3
					},
					"indices":4,
					"material":0
				}
			]
		},
		{
			"name":"Cylinder",
			"primitives":[
				{
					"attributes":{
						"POSITION":5,
						"NORMAL":6,
						"TEXCOORD_0":7,
						"TANGENT":8
					},
					"indices":9,
					"material":0
				}
			]
		},
		{
			"name":"Cylinder.003",
			"primitives":[
				{
					"attributes":{
						"POSITION":10,
						"NORMAL":11,
						"TEXCOORD_0":12,
						"TANGENT":13
					},
					"indices":14,
					"material":0
				}
			]
		},
		{
			"name":"Cylinder.003",
			"primitives":[
				{
					"attributes":{
						"POSITION":15,
						"NORMAL":16,
						"TEXCOORD_0":17,
						"TANGENT":18
					},
					"indices":14,
					"material":0
				}
			]
		},
		{
			"name":"Cube.001",
			"primitives":[
				{
					"attributes":{
						"POSITION":19,
						"NORMAL":20,
						"TEXCOORD_0":21
					},
					"indices":22,
					"material":0
				}
			]
		},
		{
			"name":"Cube.002",
			"primitives":[
				{
					"attributes":{
						"POSITION":23,
						"NORMAL":24,
						"TEXCOORD_0":25,
						"TANGENT":26
					},
					"indices":27,
					"material":1
				}
			]
		},
		{
			"name":"Cube.003",
			"primitives":[
				{
					"attributes":{
						"POSITION":28,
						"NORMAL":29,
						"TEXCOORD_0":30,
						"TANGENT":31
					},
					"indices":32,
					"material":0
				}
			]
		}
	],
	"textures":[
		{
			"sampler":0,
			"source":0
		},
		{
			"sampler":0,
			"source":0
		},
		{
			"sampler":0,
			"source":0
		}
	],
	"images":[
		{
			"mimeType":"image/png",
			"name":"tv texture.psd",
			"uri":"../../resources/old%20tv%20Game%20asset%20-%20simple/tv%20texture.psd"
		}
	],
	"accessors":[
		{
			"bufferView":0,
			"componentType":5126,
			"count":4108,
			"max":[
				1.5026055574417114,
				1.0413275957107544,
				1.0000001192092896
			],
			"min":[
				-1.6649452447891235,
				-1.0413275957107544,
				-0.8037221431732178
			],
			"type":"VEC3"
		},
		{
			"bufferView":1,
			"componentType":5126,
			"count":4108,
			"type":"VEC3"
		},
		{
			"bufferView":2,
			"componentType":5126,
			"count":4108,
			"type":"VEC2"
		},
		{
			"bufferView":3,
			"componentType":5126,
			"count":4108,
			"type":"VEC4"
		},
		{
			"bufferView":4,
			"componentType":5123,
			"count":17952,
			"type":"SCALAR"
		},
		{
			"bufferView":5,
			"componentType":5126,
			"count":1464,
			"max":[
				0.09206341952085495,
				0.058575231581926346,
				0.09166935831308365
			],
			"min":[
				-2.4414591789245605,
				-0.0678744837641716,
				-0.5566699504852295
			],
			"type":"VEC3"
		},
		{
			"bufferView":6,
			"componentType":5126,
			"count":1464,
			"type":"VEC3"
		},
		{
			"bufferView":7,
			"componentType":5126,
			"count":1464,
			"type":"VEC2"
		},
		{
			"bufferView":8,
			"componentType":5126,
			"count":1464,
			"type":"VEC4"
		},
		{
			"bufferView":9,
			"componentType":5123,
			"count":6720,
			"type":"SCALAR"
		},
		{
			"bufferView":10,
			"componentType":5126,
			"count":177,
			"max":[
				0.2521747052669525,
				0.07672607898712158,
				0.2521747052669525
			],
			"min":[
				-0.2521747052669525,
				-0.06977207213640213,
				-0.2521746754646301
			],
			"type":"VEC3"
		},
		{
			"bufferView":11,
			"componentType":5126,
			"count":177,
			"type":"VEC3"
		},
		{
			"bufferView":12,
			"componentType":5126,
			"count":177,
			"type":"VEC2"
		},
		{
			"bufferView":13,
			"componentType":5126,
			"count":177,
			"type":"VEC4"
		},
		{
			"bufferView":14,
			"componentType":5123,
			"count":672,
			"type":"SCALAR"
		},
		{
			"bufferView":15,
			"componentType":5126,
			"count":177,
			"max":[
				0.2521747052669525,
				0.07672607898712158,
				0.2521747052669525
			],
			"min":[
				-0.2521747052669525,
				-0.06977207213640213,
				-0.2521746754646301
			],
			"type":"VEC3"
		},
		{
			"bufferView":16,
			"componentType":5126,
			"count":177,
			"type":"VEC3"
		},
		{
			"bufferView":17,
			"componentType":5126,
			"count":177,
			"type":"VEC2"
		},
		{
			"bufferView":18,
			"componentType":5126,
			"count":177,
			"type":"VEC4"
		},
		{
			"bufferView":19,
			"componentType":5126,
			"count":72,
			"max":[
				1,
				1,
				1.2615833282470703
			],
			"min":[
				-1,
				-1,
				-0.7384166121482849
			],
			"type":"VEC3"
		},
		{
			"bufferView":20,
			"componentType":5126,
			"count":72,
			"type":"VEC3"
		},
		{
			"bufferView":21,
			"componentType":5126,
			"count":72,
			"type":"VEC2"
		},
		{
			"bufferView":22,
			"componentType":5123,
			"count":132,
			"type":"SCALAR"
		},
		{
			"bufferView":23,
			"componentType":5126,
			"count":681,
			"max":[
				0.6139292120933533,
				0.8035793304443359,
				1.1876559257507324
			],
			"min":[
				-1.406238079071045,
				-0.8026305437088013,
				0.9455009698867798
			],
			"type":"VEC3"
		},
		{
			"bufferView":24,
			"componentType":5126,
			"count":681,
			"type":"VEC3"
		},
		{
			"bufferView":25,
			"componentType":5126,
			"count":681,
			"type":"VEC2"
		},
		{
			"bufferView":26,
			"componentType":5126,
			"count":681,
			"type":"VEC4"
		},
		{
			"bufferView":27,
			"componentType":5123,
			"count":2640,
			"type":"SCALAR"
		},
		{
			"bufferView":28,
			"componentType":5126,
			"count":1177,
			"max":[
				0.7321876883506775,
				0.9362350106239319,
				1.0753920078277588
			],
			"min":[
				-1.5292365550994873,
				-0.9358211755752563,
				1.0014638900756836
			],
			"type":"VEC3"
		},
		{
			"bufferView":29,
			"componentType":5126,
			"count":1177,
			"type":"VEC3"
		},
		{
			"bufferView":30,
			"componentType":5126,
			"count":1177,
			"type":"VEC2"
		},
		{
			"bufferView":31,
			"componentType":5126,
			"count":1177,
			"type":"VEC4"
		},
		{
			"bufferView":32,
			"componentType":5123,
			"count":6144,
			"type":"SCALAR"
		}
	],
	"bufferViews":[
		{
			"buffer":0,
			"byteLength":49296,
			"byteOffset":0,
			"target":34962
		},
		{
			"buffer":0,
			"byteLength":49296,
			"byteOffset":49296,
			"target":34962
		},
		{
			"buffer":0,
			"byteLength":32864,
			"byteOffset":98592,
			"target":34962
		},
		{
			"buffer":0,
			"byteLength":65728,
			"byteOffset":131456,
			"target":34962
		},
		{
			"buffer":0,
			"byteLength":35904,
			"byteOffset":197184,
			"target":34963
		},
		{
			"buffer":0,
			"byteLength":17568,
			"byteOffset":233088,
			"target":34962
		},
		{
			"buffer":0,
			"byteLength":17568,
			"byteOffset":250656,
			"target":34962
		},
		{
			"buffer":0,
			"byteLength":11712,
			"byteOffset":268224,
			"target":34962
		},
		{
			"buffer":0,
			"byteLength":23424,
			"byteOffset":279936,
			"target":34962
		},
		{
			"buffer":0,
			"byteLength":13440,
			"byteOffset":303360,
			"target":34963
		},
		{
			"buffer":0,
			"byteLength":2124,
			"byteOffset":316800,
			"target":34962
		},
		{
			"buffer":0,
			"byteLength":2124,
			"byteOffset":318924,
			"target":34962
		},
		{
			"buffer":0,
			"byteLength":1416,
			"byteOffset":321048,
			"target":34962
		},
		{
			"buffer":0,
			"byteLength":2832,
			"byteOffset":322464,
			"target":34962
		},
		{
			"buffer":0,
			"byteLength":1344,
			"byteOffset":325296,
			"target":34963
		},
		{
			"buffer":0,
			"byteLength":2124,
			"byteOffset":326640,
			"target":34962
		},
		{
			"buffer":0,
			"byteLength":2124,
			"byteOffset":328764,
			"target":34962
		},
		{
			"buffer":0,
			"byteLength":1416,
			"byteOffset":330888,
			"target":34962
		},
		{
			"buffer":0,
			"byteLength":2832,
			"byteOffset":332304,
			"target":34962
		},
		{
			"buffer":0,
			"byteLength":864,
			"byteOffset":335136,
			"target":34962
		},
		{
			"buffer":0,
			"byteLength":864,
			"byteOffset":336000,
			"target":34962
		},
		{
			"buffer":0,
			"byteLength":576,
			"byteOffset":336864,
			"target":34962
		},
		{
			"buffer":0,
			"byteLength":264,
			"byteOffset":337440,
			"target":34963
		},
		{
			"buffer":0,
			"byteLength":8172,
			"byteOffset":337704,
			"target":34962
		},
		{
			"buffer":0,
			"byteLength":8172,
			"byteOffset":345876,
			"target":34962
		},
		{
			"buffer":0,
			"byteLength":5448,
			"byteOffset":354048,
			"target":34962
		},
		{
			"buffer":0,
			"byteLength":10896,
			"byteOffset":359496,
			"target":34962
		},
		{
			"buffer":0,
			"byteLength":5280,
			"byteOffset":370392,
			"target":34963
		},
		{
			"buffer":0,
			"byteLength":14124,
			"byteOffset":375672,
			"target":34962
		},
		{
			"buffer":0,
			"byteLength":14124,
			"byteOffset":389796,
			"target":34962
		},
		{
			"buffer":0,
			"byteLength":9416,
			"byteOffset":403920,
			"target":34962
		},
		{
			"buffer":0,
			"byteLength":18832,
			"byteOffset":413336,
			"target":34962
		},
		{
			"buffer":0,
			"byteLength":12288,
			"byteOffset":432168,
			"target":34963
		}
	],
	"samplers":[
		{
			"magFilter":9729,
			"minFilter":9987
		}
	],
	"buffers":[
		{
			"byteLength":444456,
			"uri":"old%20tv-1fe79aeb070b5d3f0dd2cc9639d5c4bd.bin"
		}
	]
}
