{
	"asset":{
		"generator":"Khronos glTF Blender I/O v4.4.55",
		"version":"2.0"
	},
	"scene":0,
	"scenes":[
		{
			"name":"Scene",
			"nodes":[
				0
			]
		}
	],
	"nodes":[
		{
			"mesh":0,
			"name":"Plant"
		}
	],
	"materials":[
		{
			"doubleSided":true,
			"name":"DarkBrown.002"
		},
		{
			"doubleSided":true,
			"name":"Green"
		}
	],
	"meshes":[
		{
			"name":"Cylinder",
			"primitives":[
				{
					"attributes":{
						"POSITION":0,
						"NORMAL":1
					},
					"indices":2,
					"material":0
				},
				{
					"attributes":{
						"POSITION":3,
						"NORMAL":4
					},
					"indices":5,
					"material":1
				}
			]
		}
	],
	"accessors":[
		{
			"bufferView":0,
			"componentType":5126,
			"count":104,
			"max":[
				0.07346329092979431,
				0.13642558455467224,
				0.07346329092979431
			],
			"min":[
				-0.07346329092979431,
				0.019834354519844055,
				-0.07346329092979431
			],
			"type":"VEC3"
		},
		{
			"bufferView":1,
			"componentType":5126,
			"count":104,
			"type":"VEC3"
		},
		{
			"bufferView":2,
			"componentType":5123,
			"count":210,
			"type":"SCALAR"
		},
		{
			"bufferView":3,
			"componentType":5126,
			"count":402,
			"max":[
				0.025711247697472572,
				0.3226217031478882,
				0.14143024384975433
			],
			"min":[
				-0.026659591123461723,
				0.125084787607193,
				-0.2059764415025711
			],
			"type":"VEC3"
		},
		{
			"bufferView":4,
			"componentType":5126,
			"count":402,
			"type":"VEC3"
		},
		{
			"bufferView":5,
			"componentType":5123,
			"count":582,
			"type":"SCALAR"
		}
	],
	"bufferViews":[
		{
			"buffer":0,
			"byteLength":1248,
			"byteOffset":0,
			"target":34962
		},
		{
			"buffer":0,
			"byteLength":1248,
			"byteOffset":1248,
			"target":34962
		},
		{
			"buffer":0,
			"byteLength":420,
			"byteOffset":2496,
			"target":34963
		},
		{
			"buffer":0,
			"byteLength":4824,
			"byteOffset":2916,
			"target":34962
		},
		{
			"buffer":0,
			"byteLength":4824,
			"byteOffset":7740,
			"target":34962
		},
		{
			"buffer":0,
			"byteLength":1164,
			"byteOffset":12564,
			"target":34963
		}
	],
	"buffers":[
		{
			"byteLength":13728,
			"uri":"Plant-1b37df1b47e56171fedf0ea962d0d1ce.bin"
		}
	]
}
