{
	"asset":{
		"generator":"Khronos glTF Blender I/O v4.4.55",
		"version":"2.0"
	},
	"extensionsUsed":[
		"KHR_lights_punctual"
	],
	"extensionsRequired":[
		"KHR_lights_punctual"
	],
	"extensions":{
		"KHR_lights_punctual":{
			"lights":[
				{
					"color":[
						1,
						1,
						1
					],
					"intensity":1378.8659536404277,
					"spot":{
						"innerConeAngle":0.556323685321221,
						"outerConeAngle":0.6544984579086304
					},
					"type":"spot",
					"name":"Spot.001"
				},
				{
					"color":[
						1,
						1,
						1
					],
					"intensity":341.5,
					"type":"directional",
					"name":"Lamp.001"
				},
				{
					"color":[
						1,
						1,
						1
					],
					"intensity":425.6133165359497,
					"type":"directional",
					"name":"Lamp"
				},
				{
					"color":[
						1,
						1,
						1
					],
					"intensity":4056.275249280705,
					"spot":{
						"innerConeAngle":0.556323685321221,
						"outerConeAngle":0.6544984579086304
					},
					"type":"spot",
					"name":"Spot"
				}
			]
		}
	},
	"scene":0,
	"scenes":[
		{
			"name":"Scene",
			"nodes":[
				0,
				1,
				2,
				3,
				4,
				5,
				6
			]
		}
	],
	"nodes":[
		{
			"mesh":0,
			"name":"sedia1b"
		},
		{
			"extensions":{
				"KHR_lights_punctual":{
					"light":0
				}
			},
			"name":"Lamp.003",
			"rotation":[
				-0.6679787039756775,
				0.33824676275253296,
				0.6515815258026123,
				0.12179981172084808
			],
			"translation":[
				-67.56294250488281,
				18.98626708984375,
				-36.656368255615234
			]
		},
		{
			"extensions":{
				"KHR_lights_punctual":{
					"light":1
				}
			},
			"name":"Lamp.002",
			"rotation":[
				0,
				-0.7071066498756409,
				0.70710688829422,
				6.181723222198343e-08
			],
			"translation":[
				15.773674964904785,
				-79.08038330078125,
				-9.384390830993652
			]
		},
		{
			"extensions":{
				"KHR_lights_punctual":{
					"light":2
				}
			},
			"name":"Lamp.001",
			"rotation":[
				-0.7071068286895752,
				0,
				0,
				0.7071068286895752
			],
			"translation":[
				15.773674964904785,
				65.37394714355469,
				-9.384390830993652
			]
		},
		{
			"name":"Empty"
		},
		{
			"camera":0,
			"name":"Camera",
			"rotation":[
				-0.17766420543193817,
				-0.22697551548480988,
				-0.042153626680374146,
				0.9566299319267273
			],
			"translation":[
				-2.436703681945801,
				2.086665630340576,
				4.845894813537598
			]
		},
		{
			"extensions":{
				"KHR_lights_punctual":{
					"light":3
				}
			},
			"name":"Lamp",
			"rotation":[
				0.13206301629543304,
				-0.3423512876033783,
				-0.9237496256828308,
				0.10973449051380157
			],
			"translation":[
				-10.819282531738281,
				18.98626136779785,
				44.80732727050781
			]
		}
	],
	"cameras":[
		{
			"name":"Camera",
			"perspective":{
				"aspectRatio":1.3333333333333333,
				"yfov":0.4738002820366251,
				"zfar":349.9500427246094,
				"znear":0.10000000149011612
			},
			"type":"perspective"
		}
	],
	"materials":[
		{
			"doubleSided":true,
			"name":"sedia1b",
			"pbrMetallicRoughness":{
				"baseColorFactor":[
					0.800000011920929,
					0.800000011920929,
					0.800000011920929,
					1
				],
				"metallicFactor":0,
				"roughnessFactor":0.5
			}
		}
	],
	"meshes":[
		{
			"name":"Cube.002",
			"primitives":[
				{
					"attributes":{
						"POSITION":0,
						"NORMAL":1,
						"TEXCOORD_0":2,
						"TANGENT":3
					},
					"indices":4,
					"material":0
				}
			]
		}
	],
	"accessors":[
		{
			"bufferView":0,
			"componentType":5126,
			"count":229,
			"max":[
				0.2504112124443054,
				0.5703908205032349,
				0.2075301557779312
			],
			"min":[
				-0.25041115283966064,
				-0.5703908801078796,
				-0.23500096797943115
			],
			"type":"VEC3"
		},
		{
			"bufferView":1,
			"componentType":5126,
			"count":229,
			"type":"VEC3"
		},
		{
			"bufferView":2,
			"componentType":5126,
			"count":229,
			"type":"VEC2"
		},
		{
			"bufferView":3,
			"componentType":5126,
			"count":229,
			"type":"VEC4"
		},
		{
			"bufferView":4,
			"componentType":5123,
			"count":339,
			"type":"SCALAR"
		}
	],
	"bufferViews":[
		{
			"buffer":0,
			"byteLength":2748,
			"byteOffset":0,
			"target":34962
		},
		{
			"buffer":0,
			"byteLength":2748,
			"byteOffset":2748,
			"target":34962
		},
		{
			"buffer":0,
			"byteLength":1832,
			"byteOffset":5496,
			"target":34962
		},
		{
			"buffer":0,
			"byteLength":3664,
			"byteOffset":7328,
			"target":34962
		},
		{
			"buffer":0,
			"byteLength":678,
			"byteOffset":10992,
			"target":34963
		}
	],
	"buffers":[
		{
			"byteLength":11672,
			"uri":"sedia1b-d85bda1b9159473737efe2273a8c8133.bin"
		}
	]
}
