{
	"asset":{
		"generator":"Khronos glTF Blender I/O v4.4.55",
		"version":"2.0"
	},
	"scene":0,
	"scenes":[
		{
			"name":"Scene",
			"nodes":[
				0
			]
		}
	],
	"nodes":[
		{
			"mesh":0,
			"name":"Shelf_2"
		}
	],
	"materials":[
		{
			"doubleSided":true,
			"name":"White",
			"pbrMetallicRoughness":{
				"baseColorFactor":[
					0.44797539710998535,
					0.443290650844574,
					0.4294084906578064,
					1
				],
				"metallicFactor":0,
				"roughnessFactor":0.5
			}
		}
	],
	"meshes":[
		{
			"name":"Cube.093",
			"primitives":[
				{
					"attributes":{
						"POSITION":0,
						"NORMAL":1
					},
					"indices":2,
					"material":0
				}
			]
		}
	],
	"accessors":[
		{
			"bufferView":0,
			"componentType":5126,
			"count":240,
			"max":[
				0.5595732927322388,
				4.438079357147217,
				0.3779994547367096
			],
			"min":[
				-0.559575080871582,
				0,
				-0.3779994547367096
			],
			"type":"VEC3"
		},
		{
			"bufferView":1,
			"componentType":5126,
			"count":240,
			"type":"VEC3"
		},
		{
			"bufferView":2,
			"componentType":5123,
			"count":360,
			"type":"SCALAR"
		}
	],
	"bufferViews":[
		{
			"buffer":0,
			"byteLength":2880,
			"byteOffset":0,
			"target":34962
		},
		{
			"buffer":0,
			"byteLength":2880,
			"byteOffset":2880,
			"target":34962
		},
		{
			"buffer":0,
			"byteLength":720,
			"byteOffset":5760,
			"target":34963
		}
	],
	"buffers":[
		{
			"byteLength":6480,
			"uri":"Shelf_2-d40d328455e16e69e8a2a8846e2666e2.bin"
		}
	]
}
