{
	"asset":{
		"generator":"Khronos glTF Blender I/O v4.4.55",
		"version":"2.0"
	},
	"scene":0,
	"scenes":[
		{
			"name":"Scene",
			"nodes":[
				0
			]
		}
	],
	"nodes":[
		{
			"mesh":0,
			"name":"SofaLong"
		}
	],
	"materials":[
		{
			"doubleSided":true,
			"name":"Sofa.004"
		}
	],
	"meshes":[
		{
			"name":"Cube.007",
			"primitives":[
				{
					"attributes":{
						"POSITION":0,
						"NORMAL":1
					},
					"indices":2,
					"material":0
				}
			]
		}
	],
	"accessors":[
		{
			"bufferView":0,
			"componentType":5126,
			"count":718,
			"max":[
				0.8941688537597656,
				0.6169989109039307,
				0.6650844216346741
			],
			"min":[
				-0.47094982862472534,
				-0.010585933923721313,
				-0.6987596750259399
			],
			"type":"VEC3"
		},
		{
			"bufferView":1,
			"componentType":5126,
			"count":718,
			"type":"VEC3"
		},
		{
			"bufferView":2,
			"componentType":5123,
			"count":1224,
			"type":"SCALAR"
		}
	],
	"bufferViews":[
		{
			"buffer":0,
			"byteLength":8616,
			"byteOffset":0,
			"target":34962
		},
		{
			"buffer":0,
			"byteLength":8616,
			"byteOffset":8616,
			"target":34962
		},
		{
			"buffer":0,
			"byteLength":2448,
			"byteOffset":17232,
			"target":34963
		}
	],
	"buffers":[
		{
			"byteLength":19680,
			"uri":"SofaLong-3f4596df76315536311fb7119fc0937c.bin"
		}
	]
}
