{
	"asset":{
		"generator":"Khronos glTF Blender I/O v4.4.55",
		"version":"2.0"
	},
	"scene":0,
	"scenes":[
		{
			"name":"Scene",
			"nodes":[
				0
			]
		}
	],
	"nodes":[
		{
			"mesh":0,
			"name":"Stool"
		}
	],
	"materials":[
		{
			"doubleSided":true,
			"name":"Wood",
			"pbrMetallicRoughness":{
				"baseColorFactor":[
					0.11443537473678589,
					0.08865559101104736,
					0.05612849444150925,
					1
				],
				"metallicFactor":0,
				"roughnessFactor":0.5
			}
		},
		{
			"doubleSided":true,
			"name":"Cushin",
			"pbrMetallicRoughness":{
				"baseColorFactor":[
					0.30319470167160034,
					0.26339706778526306,
					0.23997287452220917,
					1
				],
				"metallicFactor":0,
				"roughnessFactor":0.5
			}
		}
	],
	"meshes":[
		{
			"name":"Cylinder.028",
			"primitives":[
				{
					"attributes":{
						"POSITION":0,
						"NORMAL":1
					},
					"indices":2,
					"material":0
				},
				{
					"attributes":{
						"POSITION":3,
						"NORMAL":4
					},
					"indices":5,
					"material":1
				}
			]
		}
	],
	"accessors":[
		{
			"bufferView":0,
			"componentType":5126,
			"count":484,
			"max":[
				0.3377147614955902,
				1.3072381019592285,
				0.3550492823123932
			],
			"min":[
				-0.3376290500164032,
				-0.008878416381776333,
				-0.3550492823123932
			],
			"type":"VEC3"
		},
		{
			"bufferView":1,
			"componentType":5126,
			"count":484,
			"type":"VEC3"
		},
		{
			"bufferView":2,
			"componentType":5123,
			"count":1356,
			"type":"SCALAR"
		},
		{
			"bufferView":3,
			"componentType":5126,
			"count":30,
			"max":[
				0.29471132159233093,
				1.3634238243103027,
				0.30983278155326843
			],
			"min":[
				-0.2946256399154663,
				1.3072381019592285,
				-0.30983278155326843
			],
			"type":"VEC3"
		},
		{
			"bufferView":4,
			"componentType":5126,
			"count":30,
			"type":"VEC3"
		},
		{
			"bufferView":5,
			"componentType":5123,
			"count":144,
			"type":"SCALAR"
		}
	],
	"bufferViews":[
		{
			"buffer":0,
			"byteLength":5808,
			"byteOffset":0,
			"target":34962
		},
		{
			"buffer":0,
			"byteLength":5808,
			"byteOffset":5808,
			"target":34962
		},
		{
			"buffer":0,
			"byteLength":2712,
			"byteOffset":11616,
			"target":34963
		},
		{
			"buffer":0,
			"byteLength":360,
			"byteOffset":14328,
			"target":34962
		},
		{
			"buffer":0,
			"byteLength":360,
			"byteOffset":14688,
			"target":34962
		},
		{
			"buffer":0,
			"byteLength":288,
			"byteOffset":15048,
			"target":34963
		}
	],
	"buffers":[
		{
			"byteLength":15336,
			"uri":"Stool-2541e31904f213da4b727354e77e6c78.bin"
		}
	]
}
