{
	"asset":{
		"generator":"Khronos glTF Blender I/O v4.4.55",
		"version":"2.0"
	},
	"scene":0,
	"scenes":[
		{
			"name":"Scene",
			"nodes":[
				0
			]
		}
	],
	"nodes":[
		{
			"mesh":0,
			"name":"Stool"
		}
	],
	"materials":[
		{
			"doubleSided":true,
			"name":"DarkWood.008"
		},
		{
			"doubleSided":true,
			"name":"Wood.010"
		}
	],
	"meshes":[
		{
			"name":"Cube.015",
			"primitives":[
				{
					"attributes":{
						"POSITION":0,
						"NORMAL":1
					},
					"indices":2,
					"material":0
				},
				{
					"attributes":{
						"POSITION":3,
						"NORMAL":4
					},
					"indices":5,
					"material":1
				}
			]
		}
	],
	"accessors":[
		{
			"bufferView":0,
			"componentType":5126,
			"count":292,
			"max":[
				0.18314522504806519,
				0.4770568609237671,
				0.180511936545372
			],
			"min":[
				-0.18314522504806519,
				-0.012707743793725967,
				-0.180511936545372
			],
			"type":"VEC3"
		},
		{
			"bufferView":1,
			"componentType":5126,
			"count":292,
			"type":"VEC3"
		},
		{
			"bufferView":2,
			"componentType":5123,
			"count":528,
			"type":"SCALAR"
		},
		{
			"bufferView":3,
			"componentType":5126,
			"count":58,
			"max":[
				0.15988251566886902,
				0.5336042642593384,
				0.15626868605613708
			],
			"min":[
				-0.15988251566886902,
				0.4770568609237671,
				-0.15626868605613708
			],
			"type":"VEC3"
		},
		{
			"bufferView":4,
			"componentType":5126,
			"count":58,
			"type":"VEC3"
		},
		{
			"bufferView":5,
			"componentType":5123,
			"count":144,
			"type":"SCALAR"
		}
	],
	"bufferViews":[
		{
			"buffer":0,
			"byteLength":3504,
			"byteOffset":0,
			"target":34962
		},
		{
			"buffer":0,
			"byteLength":3504,
			"byteOffset":3504,
			"target":34962
		},
		{
			"buffer":0,
			"byteLength":1056,
			"byteOffset":7008,
			"target":34963
		},
		{
			"buffer":0,
			"byteLength":696,
			"byteOffset":8064,
			"target":34962
		},
		{
			"buffer":0,
			"byteLength":696,
			"byteOffset":8760,
			"target":34962
		},
		{
			"buffer":0,
			"byteLength":288,
			"byteOffset":9456,
			"target":34963
		}
	],
	"buffers":[
		{
			"byteLength":9744,
			"uri":"Stool-b2a00e1e690fa97b5f77cc997436d1ec.bin"
		}
	]
}
