{
	"asset":{
		"generator":"Khronos glTF Blender I/O v4.4.55",
		"version":"2.0"
	},
	"scene":0,
	"scenes":[
		{
			"name":"Scene",
			"nodes":[
				0
			]
		}
	],
	"nodes":[
		{
			"mesh":0,
			"name":"Table_RoundSmall"
		}
	],
	"materials":[
		{
			"doubleSided":true,
			"name":"Wood",
			"pbrMetallicRoughness":{
				"baseColorFactor":[
					0.11443537473678589,
					0.08865559101104736,
					0.05612849444150925,
					1
				],
				"metallicFactor":0,
				"roughnessFactor":0.5
			}
		}
	],
	"meshes":[
		{
			"name":"Cylinder.008",
			"primitives":[
				{
					"attributes":{
						"POSITION":0,
						"NORMAL":1
					},
					"indices":2,
					"material":0
				}
			]
		}
	],
	"accessors":[
		{
			"bufferView":0,
			"componentType":5126,
			"count":560,
			"max":[
				0.970493733882904,
				1.144635796546936,
				0.970493733882904
			],
			"min":[
				-0.970493733882904,
				-0.002694828202947974,
				-0.970493733882904
			],
			"type":"VEC3"
		},
		{
			"bufferView":1,
			"componentType":5126,
			"count":560,
			"type":"VEC3"
		},
		{
			"bufferView":2,
			"componentType":5123,
			"count":1776,
			"type":"SCALAR"
		}
	],
	"bufferViews":[
		{
			"buffer":0,
			"byteLength":6720,
			"byteOffset":0,
			"target":34962
		},
		{
			"buffer":0,
			"byteLength":6720,
			"byteOffset":6720,
			"target":34962
		},
		{
			"buffer":0,
			"byteLength":3552,
			"byteOffset":13440,
			"target":34963
		}
	],
	"buffers":[
		{
			"byteLength":16992,
			"uri":"Table_RoundSmall-ba0368a27c11db9e1e4eebc4ff8647c6.bin"
		}
	]
}
