{
	"asset":{
		"generator":"Khronos glTF Blender I/O v4.4.55",
		"version":"2.0"
	},
	"scene":0,
	"scenes":[
		{
			"name":"Scene",
			"nodes":[
				0
			]
		}
	],
	"nodes":[
		{
			"mesh":0,
			"name":"Table"
		}
	],
	"materials":[
		{
			"doubleSided":true,
			"name":"DarkWood.012"
		},
		{
			"doubleSided":true,
			"name":"Wood.014"
		}
	],
	"meshes":[
		{
			"name":"Cube.001",
			"primitives":[
				{
					"attributes":{
						"POSITION":0,
						"NORMAL":1
					},
					"indices":2,
					"material":0
				},
				{
					"attributes":{
						"POSITION":3,
						"NORMAL":4
					},
					"indices":5,
					"material":1
				}
			]
		}
	],
	"accessors":[
		{
			"bufferView":0,
			"componentType":5126,
			"count":156,
			"max":[
				0.5308369994163513,
				0.5611211061477661,
				0.4841904640197754
			],
			"min":[
				-0.5308369994163513,
				-0.005166157614439726,
				-0.4841904640197754
			],
			"type":"VEC3"
		},
		{
			"bufferView":1,
			"componentType":5126,
			"count":156,
			"type":"VEC3"
		},
		{
			"bufferView":2,
			"componentType":5123,
			"count":288,
			"type":"SCALAR"
		},
		{
			"bufferView":3,
			"componentType":5126,
			"count":58,
			"max":[
				0.552959680557251,
				0.6176685690879822,
				0.5081156492233276
			],
			"min":[
				-0.552959680557251,
				0.5611211061477661,
				-0.5081156492233276
			],
			"type":"VEC3"
		},
		{
			"bufferView":4,
			"componentType":5126,
			"count":58,
			"type":"VEC3"
		},
		{
			"bufferView":5,
			"componentType":5123,
			"count":144,
			"type":"SCALAR"
		}
	],
	"bufferViews":[
		{
			"buffer":0,
			"byteLength":1872,
			"byteOffset":0,
			"target":34962
		},
		{
			"buffer":0,
			"byteLength":1872,
			"byteOffset":1872,
			"target":34962
		},
		{
			"buffer":0,
			"byteLength":576,
			"byteOffset":3744,
			"target":34963
		},
		{
			"buffer":0,
			"byteLength":696,
			"byteOffset":4320,
			"target":34962
		},
		{
			"buffer":0,
			"byteLength":696,
			"byteOffset":5016,
			"target":34962
		},
		{
			"buffer":0,
			"byteLength":288,
			"byteOffset":5712,
			"target":34963
		}
	],
	"buffers":[
		{
			"byteLength":6000,
			"uri":"Table-6d51ccd1bf1727ed2956282c86df24cd.bin"
		}
	]
}
