{
	"asset":{
		"generator":"Khronos glTF Blender I/O v4.4.55",
		"version":"2.0"
	},
	"scene":0,
	"scenes":[
		{
			"name":"Scene",
			"nodes":[
				0
			]
		}
	],
	"nodes":[
		{
			"mesh":0,
			"name":"Trashcan_Large"
		}
	],
	"materials":[
		{
			"doubleSided":true,
			"name":"LightMetal",
			"pbrMetallicRoughness":{
				"baseColorFactor":[
					0.1733521670103073,
					0.1733521670103073,
					0.1733521670103073,
					1
				],
				"metallicFactor":0,
				"roughnessFactor":0.5
			}
		}
	],
	"meshes":[
		{
			"name":"Cylinder.004",
			"primitives":[
				{
					"attributes":{
						"POSITION":0,
						"NORMAL":1
					},
					"indices":2,
					"material":0
				}
			]
		}
	],
	"accessors":[
		{
			"bufferView":0,
			"componentType":5126,
			"count":648,
			"max":[
				0.6116183400154114,
				1.841283917427063,
				0.6116185188293457
			],
			"min":[
				-0.6116182208061218,
				-0.005004242993891239,
				-0.6116179823875427
			],
			"type":"VEC3"
		},
		{
			"bufferView":1,
			"componentType":5126,
			"count":648,
			"type":"VEC3"
		},
		{
			"bufferView":2,
			"componentType":5123,
			"count":1938,
			"type":"SCALAR"
		}
	],
	"bufferViews":[
		{
			"buffer":0,
			"byteLength":7776,
			"byteOffset":0,
			"target":34962
		},
		{
			"buffer":0,
			"byteLength":7776,
			"byteOffset":7776,
			"target":34962
		},
		{
			"buffer":0,
			"byteLength":3876,
			"byteOffset":15552,
			"target":34963
		}
	],
	"buffers":[
		{
			"byteLength":19428,
			"uri":"Trashcan_Large-8a2c7cd593c5512b4ab3be20016cab7e.bin"
		}
	]
}
