{
	"asset":{
		"generator":"Khronos glTF Blender I/O v4.4.55",
		"version":"2.0"
	},
	"scene":0,
	"scenes":[
		{
			"name":"Scene",
			"nodes":[
				0
			]
		}
	],
	"nodes":[
		{
			"mesh":0,
			"name":"Trashcan_Green"
		}
	],
	"materials":[
		{
			"doubleSided":true,
			"name":"DarkGreen",
			"pbrMetallicRoughness":{
				"baseColorFactor":[
					0.08744194358587265,
					0.15232062339782715,
					0.05986013635993004,
					1
				],
				"metallicFactor":0,
				"roughnessFactor":0.5
			}
		},
		{
			"doubleSided":true,
			"name":"Black",
			"pbrMetallicRoughness":{
				"baseColorFactor":[
					0.03521668538451195,
					0.03521668538451195,
					0.03521668538451195,
					1
				],
				"metallicFactor":0,
				"roughnessFactor":0.5
			}
		}
	],
	"meshes":[
		{
			"name":"Cube.066",
			"primitives":[
				{
					"attributes":{
						"POSITION":0,
						"NORMAL":1
					},
					"indices":2,
					"material":0
				},
				{
					"attributes":{
						"POSITION":3,
						"NORMAL":4
					},
					"indices":5,
					"material":1
				}
			]
		}
	],
	"accessors":[
		{
			"bufferView":0,
			"componentType":5126,
			"count":519,
			"max":[
				0.610397458076477,
				2.2111732959747314,
				0.7204201817512512
			],
			"min":[
				-0.6068794131278992,
				-2.840085835487116e-05,
				-0.8709225654602051
			],
			"type":"VEC3"
		},
		{
			"bufferView":1,
			"componentType":5126,
			"count":519,
			"type":"VEC3"
		},
		{
			"bufferView":2,
			"componentType":5123,
			"count":1521,
			"type":"SCALAR"
		},
		{
			"bufferView":3,
			"componentType":5126,
			"count":200,
			"max":[
				0.45077642798423767,
				0.4086894690990448,
				0.0012451556976884604
			],
			"min":[
				-0.4507763683795929,
				0.017992224544286728,
				-0.4126390218734741
			],
			"type":"VEC3"
		},
		{
			"bufferView":4,
			"componentType":5126,
			"count":200,
			"type":"VEC3"
		},
		{
			"bufferView":5,
			"componentType":5123,
			"count":696,
			"type":"SCALAR"
		}
	],
	"bufferViews":[
		{
			"buffer":0,
			"byteLength":6228,
			"byteOffset":0,
			"target":34962
		},
		{
			"buffer":0,
			"byteLength":6228,
			"byteOffset":6228,
			"target":34962
		},
		{
			"buffer":0,
			"byteLength":3042,
			"byteOffset":12456,
			"target":34963
		},
		{
			"buffer":0,
			"byteLength":2400,
			"byteOffset":15500,
			"target":34962
		},
		{
			"buffer":0,
			"byteLength":2400,
			"byteOffset":17900,
			"target":34962
		},
		{
			"buffer":0,
			"byteLength":1392,
			"byteOffset":20300,
			"target":34963
		}
	],
	"buffers":[
		{
			"byteLength":21692,
			"uri":"Trashcan_Green-9f67f68972f3b67c097faac3a2a70857.bin"
		}
	]
}
