{
	"asset":{
		"generator":"Khronos glTF Blender I/O v4.4.55",
		"version":"2.0"
	},
	"scene":0,
	"scenes":[
		{
			"name":"Scene",
			"nodes":[
				0
			]
		}
	],
	"nodes":[
		{
			"mesh":0,
			"name":"Trashcan_Small1"
		}
	],
	"materials":[
		{
			"doubleSided":true,
			"name":"LightMetal",
			"pbrMetallicRoughness":{
				"baseColorFactor":[
					0.1733521670103073,
					0.1733521670103073,
					0.1733521670103073,
					1
				],
				"metallicFactor":0,
				"roughnessFactor":0.5
			}
		},
		{
			"doubleSided":true,
			"name":"Black",
			"pbrMetallicRoughness":{
				"baseColorFactor":[
					0.03521668538451195,
					0.03521668538451195,
					0.03521668538451195,
					1
				],
				"metallicFactor":0,
				"roughnessFactor":0.5
			}
		}
	],
	"meshes":[
		{
			"name":"Cube.061",
			"primitives":[
				{
					"attributes":{
						"POSITION":0,
						"NORMAL":1
					},
					"indices":2,
					"material":0
				},
				{
					"attributes":{
						"POSITION":3,
						"NORMAL":4
					},
					"indices":5,
					"material":1
				}
			]
		}
	],
	"accessors":[
		{
			"bufferView":0,
			"componentType":5126,
			"count":76,
			"max":[
				0.24646729230880737,
				0.6083840131759644,
				0.1608435958623886
			],
			"min":[
				-0.24646729230880737,
				0.021534910425543785,
				-0.139225572347641
			],
			"type":"VEC3"
		},
		{
			"bufferView":1,
			"componentType":5126,
			"count":76,
			"type":"VEC3"
		},
		{
			"bufferView":2,
			"componentType":5123,
			"count":174,
			"type":"SCALAR"
		},
		{
			"bufferView":3,
			"componentType":5126,
			"count":236,
			"max":[
				0.2515144944190979,
				0.7055832147598267,
				0.16399241983890533
			],
			"min":[
				-0.2515144944190979,
				-0.006860058289021254,
				-0.1422216296195984
			],
			"type":"VEC3"
		},
		{
			"bufferView":4,
			"componentType":5126,
			"count":236,
			"type":"VEC3"
		},
		{
			"bufferView":5,
			"componentType":5123,
			"count":606,
			"type":"SCALAR"
		}
	],
	"bufferViews":[
		{
			"buffer":0,
			"byteLength":912,
			"byteOffset":0,
			"target":34962
		},
		{
			"buffer":0,
			"byteLength":912,
			"byteOffset":912,
			"target":34962
		},
		{
			"buffer":0,
			"byteLength":348,
			"byteOffset":1824,
			"target":34963
		},
		{
			"buffer":0,
			"byteLength":2832,
			"byteOffset":2172,
			"target":34962
		},
		{
			"buffer":0,
			"byteLength":2832,
			"byteOffset":5004,
			"target":34962
		},
		{
			"buffer":0,
			"byteLength":1212,
			"byteOffset":7836,
			"target":34963
		}
	],
	"buffers":[
		{
			"byteLength":9048,
			"uri":"Trashcan_Small1-6f80be929b1d82335c871198d22973d5.bin"
		}
	]
}
