{
	"asset":{
		"generator":"Khronos glTF Blender I/O v4.4.55",
		"version":"2.0"
	},
	"scene":0,
	"scenes":[
		{
			"name":"Scene",
			"nodes":[
				0
			]
		}
	],
	"nodes":[
		{
			"mesh":0,
			"name":"Trashcan_Cylindric"
		}
	],
	"materials":[
		{
			"doubleSided":true,
			"name":"LightMetal",
			"pbrMetallicRoughness":{
				"baseColorFactor":[
					0.1733521670103073,
					0.1733521670103073,
					0.1733521670103073,
					1
				],
				"metallicFactor":0,
				"roughnessFactor":0.5
			}
		}
	],
	"meshes":[
		{
			"name":"Cylinder.007",
			"primitives":[
				{
					"attributes":{
						"POSITION":0,
						"NORMAL":1
					},
					"indices":2,
					"material":0
				}
			]
		}
	],
	"accessors":[
		{
			"bufferView":0,
			"componentType":5126,
			"count":360,
			"max":[
				0.37735044956207275,
				1.0740883350372314,
				0.3773502707481384
			],
			"min":[
				-0.37735024094581604,
				-3.389414859888973e-10,
				-0.37735044956207275
			],
			"type":"VEC3"
		},
		{
			"bufferView":1,
			"componentType":5126,
			"count":360,
			"type":"VEC3"
		},
		{
			"bufferView":2,
			"componentType":5123,
			"count":1140,
			"type":"SCALAR"
		}
	],
	"bufferViews":[
		{
			"buffer":0,
			"byteLength":4320,
			"byteOffset":0,
			"target":34962
		},
		{
			"buffer":0,
			"byteLength":4320,
			"byteOffset":4320,
			"target":34962
		},
		{
			"buffer":0,
			"byteLength":2280,
			"byteOffset":8640,
			"target":34963
		}
	],
	"buffers":[
		{
			"byteLength":10920,
			"uri":"Trashcan_Cylindric-4e6321da4fa5ce93682077e74969aa3a.bin"
		}
	]
}
