{
	"asset":{
		"generator":"Khronos glTF Blender I/O v4.4.55",
		"version":"2.0"
	},
	"scene":0,
	"scenes":[
		{
			"name":"Scene",
			"nodes":[
				0
			]
		}
	],
	"nodes":[
		{
			"mesh":0,
			"name":"Window_Small2"
		}
	],
	"materials":[
		{
			"doubleSided":true,
			"name":"White",
			"pbrMetallicRoughness":{
				"baseColorFactor":[
					0.44797539710998535,
					0.443290650844574,
					0.4294084906578064,
					1
				],
				"metallicFactor":0,
				"roughnessFactor":0.5
			}
		},
		{
			"doubleSided":true,
			"name":"Glass"
		}
	],
	"meshes":[
		{
			"name":"Cube.034",
			"primitives":[
				{
					"attributes":{
						"POSITION":0,
						"NORMAL":1
					},
					"indices":2,
					"material":0
				},
				{
					"attributes":{
						"POSITION":3,
						"NORMAL":4
					},
					"indices":5,
					"material":1
				}
			]
		}
	],
	"accessors":[
		{
			"bufferView":0,
			"componentType":5126,
			"count":160,
			"max":[
				0.464099645614624,
				1.2379509210586548,
				0.0705520361661911
			],
			"min":[
				-0.4640986919403076,
				-2.384185791015625e-07,
				-0.0705520361661911
			],
			"type":"VEC3"
		},
		{
			"bufferView":1,
			"componentType":5126,
			"count":160,
			"type":"VEC3"
		},
		{
			"bufferView":2,
			"componentType":5123,
			"count":324,
			"type":"SCALAR"
		},
		{
			"bufferView":3,
			"componentType":5126,
			"count":48,
			"max":[
				0.4076923131942749,
				1.1915929317474365,
				0.006195263471454382
			],
			"min":[
				-0.4076915681362152,
				0.10618573427200317,
				-0.006195263471454382
			],
			"type":"VEC3"
		},
		{
			"bufferView":4,
			"componentType":5126,
			"count":48,
			"type":"VEC3"
		},
		{
			"bufferView":5,
			"componentType":5123,
			"count":72,
			"type":"SCALAR"
		}
	],
	"bufferViews":[
		{
			"buffer":0,
			"byteLength":1920,
			"byteOffset":0,
			"target":34962
		},
		{
			"buffer":0,
			"byteLength":1920,
			"byteOffset":1920,
			"target":34962
		},
		{
			"buffer":0,
			"byteLength":648,
			"byteOffset":3840,
			"target":34963
		},
		{
			"buffer":0,
			"byteLength":576,
			"byteOffset":4488,
			"target":34962
		},
		{
			"buffer":0,
			"byteLength":576,
			"byteOffset":5064,
			"target":34962
		},
		{
			"buffer":0,
			"byteLength":144,
			"byteOffset":5640,
			"target":34963
		}
	],
	"buffers":[
		{
			"byteLength":5784,
			"uri":"Window_Small2-374e3a9b678d9a8b1890cc08d4b956dc.bin"
		}
	]
}
