{
	"asset":{
		"generator":"Khronos glTF Blender I/O v4.4.55",
		"version":"2.0"
	},
	"scene":0,
	"scenes":[
		{
			"name":"Scene",
			"nodes":[
				0
			]
		}
	],
	"nodes":[
		{
			"mesh":0,
			"name":"Window_Small1"
		}
	],
	"materials":[
		{
			"doubleSided":true,
			"name":"White",
			"pbrMetallicRoughness":{
				"baseColorFactor":[
					0.44797539710998535,
					0.443290650844574,
					0.4294084906578064,
					1
				],
				"metallicFactor":0,
				"roughnessFactor":0.5
			}
		},
		{
			"doubleSided":true,
			"name":"Glass"
		}
	],
	"meshes":[
		{
			"name":"Cube.031",
			"primitives":[
				{
					"attributes":{
						"POSITION":0,
						"NORMAL":1
					},
					"indices":2,
					"material":0
				},
				{
					"attributes":{
						"POSITION":3,
						"NORMAL":4
					},
					"indices":5,
					"material":1
				}
			]
		}
	],
	"accessors":[
		{
			"bufferView":0,
			"componentType":5126,
			"count":128,
			"max":[
				0.4640991687774658,
				1.2379509210586548,
				0.0705522745847702
			],
			"min":[
				-0.4640991687774658,
				-2.384185791015625e-07,
				-0.070551797747612
			],
			"type":"VEC3"
		},
		{
			"bufferView":1,
			"componentType":5126,
			"count":128,
			"type":"VEC3"
		},
		{
			"bufferView":2,
			"componentType":5123,
			"count":264,
			"type":"SCALAR"
		},
		{
			"bufferView":3,
			"componentType":5126,
			"count":48,
			"max":[
				0.4076918363571167,
				1.1915929317474365,
				0.0061955018900334835
			],
			"min":[
				-0.4076920449733734,
				0.10618573427200317,
				-0.00619502505287528
			],
			"type":"VEC3"
		},
		{
			"bufferView":4,
			"componentType":5126,
			"count":48,
			"type":"VEC3"
		},
		{
			"bufferView":5,
			"componentType":5123,
			"count":72,
			"type":"SCALAR"
		}
	],
	"bufferViews":[
		{
			"buffer":0,
			"byteLength":1536,
			"byteOffset":0,
			"target":34962
		},
		{
			"buffer":0,
			"byteLength":1536,
			"byteOffset":1536,
			"target":34962
		},
		{
			"buffer":0,
			"byteLength":528,
			"byteOffset":3072,
			"target":34963
		},
		{
			"buffer":0,
			"byteLength":576,
			"byteOffset":3600,
			"target":34962
		},
		{
			"buffer":0,
			"byteLength":576,
			"byteOffset":4176,
			"target":34962
		},
		{
			"buffer":0,
			"byteLength":144,
			"byteOffset":4752,
			"target":34963
		}
	],
	"buffers":[
		{
			"byteLength":4896,
			"uri":"Window_Small1-8d7e88ccd4ecdc597bc71a94c44f68fc.bin"
		}
	]
}
