{
	"asset":{
		"generator":"Khronos glTF Blender I/O v4.4.55",
		"version":"2.0"
	},
	"scene":0,
	"scenes":[
		{
			"name":"Scene",
			"nodes":[
				0
			]
		}
	],
	"nodes":[
		{
			"mesh":0,
			"name":"Window_Large2"
		}
	],
	"materials":[
		{
			"doubleSided":true,
			"name":"White",
			"pbrMetallicRoughness":{
				"baseColorFactor":[
					0.44797539710998535,
					0.443290650844574,
					0.4294084906578064,
					1
				],
				"metallicFactor":0,
				"roughnessFactor":0.5
			}
		},
		{
			"doubleSided":true,
			"name":"Glass"
		}
	],
	"meshes":[
		{
			"name":"Cube.091",
			"primitives":[
				{
					"attributes":{
						"POSITION":0,
						"NORMAL":1
					},
					"indices":2,
					"material":0
				},
				{
					"attributes":{
						"POSITION":3,
						"NORMAL":4
					},
					"indices":5,
					"material":1
				}
			]
		}
	],
	"accessors":[
		{
			"bufferView":0,
			"componentType":5126,
			"count":474,
			"max":[
				0.9162147641181946,
				1.6984531879425049,
				0.07055201381444931
			],
			"min":[
				-0.9162147641181946,
				-5.960464477539063e-08,
				-0.0705520510673523
			],
			"type":"VEC3"
		},
		{
			"bufferView":1,
			"componentType":5126,
			"count":474,
			"type":"VEC3"
		},
		{
			"bufferView":2,
			"componentType":5123,
			"count":972,
			"type":"SCALAR"
		},
		{
			"bufferView":3,
			"componentType":5126,
			"count":96,
			"max":[
				0.8598076105117798,
				1.652095079421997,
				0.00619524298235774
			],
			"min":[
				-0.8598076105117798,
				0.1061859130859375,
				-0.0061952839605510235
			],
			"type":"VEC3"
		},
		{
			"bufferView":4,
			"componentType":5126,
			"count":96,
			"type":"VEC3"
		},
		{
			"bufferView":5,
			"componentType":5123,
			"count":144,
			"type":"SCALAR"
		}
	],
	"bufferViews":[
		{
			"buffer":0,
			"byteLength":5688,
			"byteOffset":0,
			"target":34962
		},
		{
			"buffer":0,
			"byteLength":5688,
			"byteOffset":5688,
			"target":34962
		},
		{
			"buffer":0,
			"byteLength":1944,
			"byteOffset":11376,
			"target":34963
		},
		{
			"buffer":0,
			"byteLength":1152,
			"byteOffset":13320,
			"target":34962
		},
		{
			"buffer":0,
			"byteLength":1152,
			"byteOffset":14472,
			"target":34962
		},
		{
			"buffer":0,
			"byteLength":288,
			"byteOffset":15624,
			"target":34963
		}
	],
	"buffers":[
		{
			"byteLength":15912,
			"uri":"Window_Large2-3a7d4da8a2fe8c782b1b477e916bd50f.bin"
		}
	]
}
