{
	"asset":{
		"generator":"Khronos glTF Blender I/O v4.4.55",
		"version":"2.0"
	},
	"scene":0,
	"scenes":[
		{
			"name":"Scene",
			"nodes":[
				0
			]
		}
	],
	"nodes":[
		{
			"mesh":0,
			"name":"Window_Large1"
		}
	],
	"materials":[
		{
			"doubleSided":true,
			"name":"White",
			"pbrMetallicRoughness":{
				"baseColorFactor":[
					0.44797539710998535,
					0.443290650844574,
					0.4294084906578064,
					1
				],
				"metallicFactor":0,
				"roughnessFactor":0.5
			}
		},
		{
			"doubleSided":true,
			"name":"Glass"
		}
	],
	"meshes":[
		{
			"name":"Cube.090",
			"primitives":[
				{
					"attributes":{
						"POSITION":0,
						"NORMAL":1
					},
					"indices":2,
					"material":0
				},
				{
					"attributes":{
						"POSITION":3,
						"NORMAL":4
					},
					"indices":5,
					"material":1
				}
			]
		}
	],
	"accessors":[
		{
			"bufferView":0,
			"componentType":5126,
			"count":282,
			"max":[
				0.9162152409553528,
				1.6984527111053467,
				0.07055201381444931
			],
			"min":[
				-0.9162142872810364,
				-5.364418029785156e-07,
				-0.0705520510673523
			],
			"type":"VEC3"
		},
		{
			"bufferView":1,
			"componentType":5126,
			"count":282,
			"type":"VEC3"
		},
		{
			"bufferView":2,
			"componentType":5123,
			"count":612,
			"type":"SCALAR"
		},
		{
			"bufferView":3,
			"componentType":5126,
			"count":96,
			"max":[
				0.859808087348938,
				1.6520946025848389,
				0.00619524298235774
			],
			"min":[
				-0.8598071336746216,
				0.1061854362487793,
				-0.0061952839605510235
			],
			"type":"VEC3"
		},
		{
			"bufferView":4,
			"componentType":5126,
			"count":96,
			"type":"VEC3"
		},
		{
			"bufferView":5,
			"componentType":5123,
			"count":144,
			"type":"SCALAR"
		}
	],
	"bufferViews":[
		{
			"buffer":0,
			"byteLength":3384,
			"byteOffset":0,
			"target":34962
		},
		{
			"buffer":0,
			"byteLength":3384,
			"byteOffset":3384,
			"target":34962
		},
		{
			"buffer":0,
			"byteLength":1224,
			"byteOffset":6768,
			"target":34963
		},
		{
			"buffer":0,
			"byteLength":1152,
			"byteOffset":7992,
			"target":34962
		},
		{
			"buffer":0,
			"byteLength":1152,
			"byteOffset":9144,
			"target":34962
		},
		{
			"buffer":0,
			"byteLength":288,
			"byteOffset":10296,
			"target":34963
		}
	],
	"buffers":[
		{
			"byteLength":10584,
			"uri":"Window_Large1-367b569f19b88a7d58ee893d54a9df00.bin"
		}
	]
}
