{
	"asset":{
		"generator":"Khronos glTF Blender I/O v4.4.55",
		"version":"2.0"
	},
	"scene":0,
	"scenes":[
		{
			"name":"Scene",
			"nodes":[
				0
			]
		}
	],
	"nodes":[
		{
			"mesh":0,
			"name":"Window_Round1"
		}
	],
	"materials":[
		{
			"doubleSided":true,
			"name":"White",
			"pbrMetallicRoughness":{
				"baseColorFactor":[
					0.44797539710998535,
					0.443290650844574,
					0.4294084906578064,
					1
				],
				"metallicFactor":0,
				"roughnessFactor":0.5
			}
		},
		{
			"doubleSided":true,
			"name":"Glass"
		}
	],
	"meshes":[
		{
			"name":"Cylinder.039",
			"primitives":[
				{
					"attributes":{
						"POSITION":0,
						"NORMAL":1
					},
					"indices":2,
					"material":0
				},
				{
					"attributes":{
						"POSITION":3,
						"NORMAL":4
					},
					"indices":5,
					"material":1
				}
			]
		}
	],
	"accessors":[
		{
			"bufferView":0,
			"componentType":5126,
			"count":114,
			"max":[
				0.45319628715515137,
				1.5498008728027344,
				0.05627857893705368
			],
			"min":[
				-0.453196257352829,
				-4.76837158203125e-07,
				-0.05627860873937607
			],
			"type":"VEC3"
		},
		{
			"bufferView":1,
			"componentType":5126,
			"count":114,
			"type":"VEC3"
		},
		{
			"bufferView":2,
			"componentType":5123,
			"count":324,
			"type":"SCALAR"
		},
		{
			"bufferView":3,
			"componentType":5126,
			"count":18,
			"max":[
				0.4174107313156128,
				1.5097167491912842,
				0.03687559813261032
			],
			"min":[
				-0.4174107015132904,
				0.02175140380859375,
				-0.036875635385513306
			],
			"type":"VEC3"
		},
		{
			"bufferView":4,
			"componentType":5126,
			"count":18,
			"type":"VEC3"
		},
		{
			"bufferView":5,
			"componentType":5123,
			"count":42,
			"type":"SCALAR"
		}
	],
	"bufferViews":[
		{
			"buffer":0,
			"byteLength":1368,
			"byteOffset":0,
			"target":34962
		},
		{
			"buffer":0,
			"byteLength":1368,
			"byteOffset":1368,
			"target":34962
		},
		{
			"buffer":0,
			"byteLength":648,
			"byteOffset":2736,
			"target":34963
		},
		{
			"buffer":0,
			"byteLength":216,
			"byteOffset":3384,
			"target":34962
		},
		{
			"buffer":0,
			"byteLength":216,
			"byteOffset":3600,
			"target":34962
		},
		{
			"buffer":0,
			"byteLength":84,
			"byteOffset":3816,
			"target":34963
		}
	],
	"buffers":[
		{
			"byteLength":3900,
			"uri":"Window_Round1-0a6d12d23aaf306247376ae232d4da5e.bin"
		}
	]
}
