{
	"asset":{
		"generator":"Khronos glTF Blender I/O v4.4.55",
		"version":"2.0"
	},
	"scene":0,
	"scenes":[
		{
			"name":"Scene",
			"nodes":[
				0
			]
		}
	],
	"nodes":[
		{
			"mesh":0,
			"name":"Window_Round2"
		}
	],
	"materials":[
		{
			"doubleSided":true,
			"name":"White",
			"pbrMetallicRoughness":{
				"baseColorFactor":[
					0.44797539710998535,
					0.443290650844574,
					0.4294084906578064,
					1
				],
				"metallicFactor":0,
				"roughnessFactor":0.5
			}
		},
		{
			"doubleSided":true,
			"name":"Glass"
		}
	],
	"meshes":[
		{
			"name":"Cylinder.043",
			"primitives":[
				{
					"attributes":{
						"POSITION":0,
						"NORMAL":1
					},
					"indices":2,
					"material":0
				},
				{
					"attributes":{
						"POSITION":3,
						"NORMAL":4
					},
					"indices":5,
					"material":1
				}
			]
		}
	],
	"accessors":[
		{
			"bufferView":0,
			"componentType":5126,
			"count":138,
			"max":[
				0.45319533348083496,
				1.5498013496398926,
				0.05627845972776413
			],
			"min":[
				-0.4531972110271454,
				0,
				-0.05627872794866562
			],
			"type":"VEC3"
		},
		{
			"bufferView":1,
			"componentType":5126,
			"count":138,
			"type":"VEC3"
		},
		{
			"bufferView":2,
			"componentType":5123,
			"count":360,
			"type":"SCALAR"
		},
		{
			"bufferView":3,
			"componentType":5126,
			"count":18,
			"max":[
				0.4174097776412964,
				1.5097172260284424,
				0.03687547892332077
			],
			"min":[
				-0.4174116551876068,
				0.021751880645751953,
				-0.036875754594802856
			],
			"type":"VEC3"
		},
		{
			"bufferView":4,
			"componentType":5126,
			"count":18,
			"type":"VEC3"
		},
		{
			"bufferView":5,
			"componentType":5123,
			"count":42,
			"type":"SCALAR"
		}
	],
	"bufferViews":[
		{
			"buffer":0,
			"byteLength":1656,
			"byteOffset":0,
			"target":34962
		},
		{
			"buffer":0,
			"byteLength":1656,
			"byteOffset":1656,
			"target":34962
		},
		{
			"buffer":0,
			"byteLength":720,
			"byteOffset":3312,
			"target":34963
		},
		{
			"buffer":0,
			"byteLength":216,
			"byteOffset":4032,
			"target":34962
		},
		{
			"buffer":0,
			"byteLength":216,
			"byteOffset":4248,
			"target":34962
		},
		{
			"buffer":0,
			"byteLength":84,
			"byteOffset":4464,
			"target":34963
		}
	],
	"buffers":[
		{
			"byteLength":4548,
			"uri":"Window_Round2-0e2cea55e20138a845082604e8b53f47.bin"
		}
	]
}
